<?xml version="1.0" encoding="UTF-8" standalone="no"?>
<!-- Created with Inkscape (http://www.inkscape.org/) -->

<svg
   xmlns:dc="http://purl.org/dc/elements/1.1/"
   xmlns:cc="http://creativecommons.org/ns#"
   xmlns:rdf="http://www.w3.org/1999/02/22-rdf-syntax-ns#"
   xmlns:svg="http://www.w3.org/2000/svg"
   xmlns="http://www.w3.org/2000/svg"
   xmlns:sodipodi="http://sodipodi.sourceforge.net/DTD/sodipodi-0.dtd"
   xmlns:inkscape="http://www.inkscape.org/namespaces/inkscape"
   width="300"
   height="80"
   id="svg3065"
   version="1.1"
   inkscape:version="0.48.2 r9819"
   sodipodi:docname="New document 4">
  <defs
     id="defs3067" />
  <sodipodi:namedview
     id="base"
     pagecolor="#ffffff"
     bordercolor="#666666"
     borderopacity="1.0"
     inkscape:pageopacity="0.0"
     inkscape:pageshadow="2"
     inkscape:zoom="1.886737"
     inkscape:cx="114.26643"
     inkscape:cy="68.387097"
     inkscape:document-units="px"
     inkscape:current-layer="layer1"
     showgrid="false"
     inkscape:window-width="1126"
     inkscape:window-height="640"
     inkscape:window-x="88"
     inkscape:window-y="88"
     inkscape:window-maximized="0" />
  <metadata
     id="metadata3070">
    <rdf:RDF>
      <cc:Work
         rdf:about="">
        <dc:format>image/svg+xml</dc:format>
        <dc:type
           rdf:resource="http://purl.org/dc/dcmitype/StillImage" />
        <dc:title></dc:title>
      </cc:Work>
    </rdf:RDF>
  </metadata>
  <g
     inkscape:label="Layer 1"
     inkscape:groupmode="layer"
     id="layer1"
     transform="translate(0,-972.36218)">
    <path
       id="path2997"
       style="fill:#0c7cc0;fill-opacity:1;fill-rule:nonzero;stroke:none"
       d="m 281.48151,1042.1533 0,-34.1466 c 0,-2.4585 -0.92234,-4.2445 -2.76532,-5.3558 -1.84326,-1.1115 -4.14096,-1.668 -6.89223,-1.668 -1.34558,0 -2.63342,0.1021 -3.8624,0.3072 -1.22956,0.2051 -2.25359,0.4535 -3.07253,0.7458 l 0,40.1174 -14.83743,0 0,-45.91135 c 2.63412,-0.9951 5.88195,-1.82885 9.74477,-2.50193 3.86283,-0.67343 8.04776,-1.00952 12.55464,-1.00952 7.78408,0 13.72547,1.21421 17.8216,3.64295 4.09756,2.42876 6.14562,6.24955 6.14562,11.45755 l 0,34.3223 -14.83672,0 z"
       inkscape:connector-curvature="0" />
    <path
       id="path2999"
       style="fill:#0c7cc0;fill-opacity:1;fill-rule:nonzero;stroke:none"
       d="m 150.11734,1042.1533 c 0,-16.065 0,-32.7499 0,-48.81496 4.94558,0 9.97923,0.26631 14.8363,0.84238 l 0,47.97258 -14.8363,0 z"
       inkscape:connector-curvature="0" />
    <path
       id="path3001"
       style="fill:#0c7cc0;fill-opacity:1;fill-rule:nonzero;stroke:none"
       d="m 165.74407,980.43953 c 0,1.75533 -0.80489,3.26301 -2.41427,4.52107 -1.60981,1.25834 -3.55575,1.88723 -5.83813,1.88723 -2.28281,0 -4.21472,-0.62889 -5.79473,-1.88723 -1.5796,-1.25806 -2.37003,-2.76574 -2.37003,-4.52107 0,-1.75604 0.79043,-3.263 2.37003,-4.52178 1.58001,-1.25835 3.51192,-1.88765 5.79473,-1.88765 2.28238,0 4.22832,0.6293 5.83813,1.88765 1.60938,1.25878 2.41427,2.76574 2.41427,4.52178"
       inkscape:connector-curvature="0" />
    <path
       id="path3003"
       style="fill:#0c7cc0;fill-opacity:1;fill-rule:nonzero;stroke:none"
       d="m 140.91281,1002.2997 c -2.04877,-0.6433 -4.22903,-0.9951 -6.54077,-1.0539 -2.31217,-0.058 -4.19981,0.2345 -5.66254,0.8781 l 0,40.0302 -14.83744,0 0,-45.91215 c 2.75113,-1.11197 5.95543,-1.97511 9.61331,-2.58998 3.65816,-0.61431 8.15028,-0.92147 13.47654,-0.92147 1.17083,0 2.39953,0.0289 3.68723,0.0873 1.2877,0.0588 2.31174,0.14683 3.07281,0.26382 l -2.80914,9.21808 z"
       inkscape:connector-curvature="0" />
    <path
       id="path3005"
       style="fill:#0c7cc0;fill-opacity:1;fill-rule:nonzero;stroke:none"
       d="m 52.022803,1016.3467 c 0,8.2525 -2.428749,14.6764 -7.286665,19.2706 -4.857927,4.594 -11.852279,6.8914 -20.982773,6.8914 -4.682191,0 -8.676492,-0.3361 -11.983753,-1.0095 -3.3068425,-0.673 -5.8964293,-1.507 -7.769612,-2.502 l 0,-66.63506 14.749497,0 0,22.3875 c 1.287696,-0.46839 2.809144,-0.89253 4.565173,-1.27321 1.755325,-0.38045 3.892328,-0.57063 6.40873,-0.57063 3.277476,0 6.291995,0.57063 9.04242,1.71233 2.751129,1.14102 5.107123,2.73602 7.067959,4.78432 1.959995,2.04895 3.48243,4.50665 4.565183,7.37475 1.082754,2.8679 1.623841,6.0577 1.623841,9.5695 z m -15.100392,0.7905 c 0,-2.3416 -0.204659,-4.5218 -0.61442,-6.5408 -0.409614,-2.0197 -1.082606,-3.7749 -2.019419,-5.2672 -0.936381,-1.4929 -2.121537,-2.6488 -3.555753,-3.4682 -1.433648,-0.8198 -3.204291,-1.2294 -5.311362,-1.2294 -2.750845,0 -4.974503,0.3803 -6.67196,1.1412 l 0,31.6934 c 0.643638,0.2928 1.433648,0.5271 2.370449,0.7021 0.936382,0.176 2.077853,0.2636 3.423848,0.2636 4.155571,0 7.257311,-1.5804 9.306094,-4.7408 2.048489,-3.1606 3.072523,-7.3454 3.072523,-12.5539"
       inkscape:connector-curvature="0" />
    <path
       id="path3007"
       style="fill:#0c7cc0;fill-opacity:1;fill-rule:nonzero;stroke:none"
       d="m 105.75595,1042.1541 c 0,0.023 -23.309124,0.341 -25.422567,0.341 -3.382013,0 -6.497085,-0.5493 -9.345943,-1.6464 -2.847303,-1.0989 -5.295476,-2.6557 -7.342694,-4.673 -2.046798,-2.017 -3.648943,-4.4655 -4.806437,-7.343 -1.156223,-2.8782 -1.735616,-6.1268 -1.735616,-9.746 0,-3.9759 0.59386,-7.5807 1.780719,-10.8139 1.187142,-3.2347 2.981466,-6.0082 5.384117,-8.32311 2.403933,-2.3138 5.400297,-4.09409 8.989806,-5.3403 3.58951,-1.24518 7.788901,-1.86883 12.594482,-1.86883 4.212293,0 8.099232,0.34226 11.659375,1.02408 3.559728,0.68193 6.287168,1.19967 8.244758,2.2084 l 0,46.18106 z m -14.919985,-40.4234 c -0.652852,-0.2978 -1.453357,-0.5649 -2.403071,-0.8012 -0.949147,-0.2372 -2.106651,-0.3562 -3.471221,-0.3562 -4.212151,0 -7.357871,1.513 -9.434874,4.5395 -2.076435,3.0265 -3.114936,7.4462 -3.114936,13.2611 0,11.0369 4.065082,16.555 12.193242,16.555 1.187142,0 2.344635,-0.1033 3.471221,-0.3111 1.128559,-0.2082 2.048068,-0.4902 2.759639,-0.8453 l 0,-32.0418 z"
       inkscape:connector-curvature="0" />
    <path
       id="path3009"
       style="fill:#0c7cc0;fill-opacity:1;fill-rule:evenodd;stroke:none"
       d="m 208.49964,1052.352 c 19.24645,-0.46 34.47463,-16.4356 34.01481,-35.6819 -0.15886,-6.654 -2.17387,-12.8282 -5.53545,-18.03945 -6.69042,-0.0931 -13.42222,1.85175 -15.92828,2.51875 4.59823,3.7663 7.58863,9.4395 7.74139,15.8487 0.21274,8.8748 -5.07734,16.6019 -12.75604,19.9162 -0.81866,-1.9098 -1.12572,-2.6238 -1.92906,-4.4833 -7.50978,4.4007 -18.43659,9.3057 -30.96598,9.842 6.49538,6.4304 15.49767,10.315 25.35861,10.079"
       inkscape:connector-curvature="0" />
    <path
       id="path3011"
       style="fill:#0c7cc0;fill-opacity:1;fill-rule:evenodd;stroke:none"
       d="m 206.82515,982.64517 c -19.24632,0.45997 -34.47463,16.43571 -34.01467,35.68213 0.15871,6.6537 2.17373,12.828 5.53532,18.0394 6.6904,0.093 13.42236,-1.852 15.92827,-2.5188 -4.59822,-3.7664 -7.58863,-9.4397 -7.7414,-15.8488 -0.21273,-8.8748 5.07749,-16.602 12.75605,-19.91616 0.81866,1.90987 1.12572,2.62376 1.92906,4.48336 7.50977,-4.40087 18.43659,-9.30591 30.96598,-9.8422 -6.49539,-6.43027 -15.49767,-10.31494 -25.35861,-10.07893"
       inkscape:connector-curvature="0" />
  </g>
</svg>
