<?xml version="1.0" encoding="utf-8"?>
<!-- Generator: Adobe Illustrator 22.0.1, SVG Export Plug-In . SVG Version: 6.00 Build 0)  -->
<svg version="1.1" id="paysafe" xmlns="http://www.w3.org/2000/svg" xmlns:xlink="http://www.w3.org/1999/xlink" x="0px" y="0px"
	 viewBox="0 0 732.7 211" style="enable-background:new 0 0 732.7 211;" xml:space="preserve">
<style type="text/css">
	.st0{fill:#7887E6;}
	.st1{fill:#FF5073;}
	.st2{fill:#372341;}
</style>
<g>
	<g>
		<circle class="st0" cx="437.6" cy="92.5" r="11.2"/>
		<circle class="st1" cx="437.6" cy="127.5" r="11.2"/>
		<path class="st2" d="M415.3,113.4v-4.3c0-16-11.2-27.8-26.5-27.8c-15.2,0-27,12.1-27,29c0,17.3,11.2,28.3,29,28.3l0,0
			c5,0,14.8-0.9,22.4-6.1l-4.8-10.6c-5.1,2.9-10.3,4.2-15,4.2h0v0c-0.4,0-0.8,0-1.2,0c-0.1,0-0.2,0-0.3,0c-0.4,0-0.7-0.1-1.1-0.1
			c-0.1,0-0.2,0-0.2,0c-0.3,0-0.6-0.1-0.9-0.2c-0.1,0-0.2,0-0.3-0.1c-0.3-0.1-0.6-0.1-0.9-0.2c-0.2,0-0.3-0.1-0.5-0.1
			c-0.2-0.1-0.4-0.1-0.6-0.2c-0.2-0.1-0.4-0.2-0.7-0.3c-0.1,0-0.1-0.1-0.2-0.1c-0.3-0.2-0.7-0.3-1-0.5c0,0,0,0,0,0
			c-0.7-0.4-1.3-0.9-1.9-1.5c0,0,0,0,0,0c-0.2-0.2-0.5-0.5-0.7-0.7c-0.1-0.1-0.2-0.2-0.2-0.3c-0.1-0.2-0.2-0.3-0.4-0.5
			c-0.2-0.3-0.4-0.5-0.6-0.8c0,0,0,0,0,0c-1.1-1.8-1.8-4.1-2.1-6.9v0h0v0H415.3z M388.9,93.3c4.7,0,8.5,3.8,9.1,11h-18.2
			C380.4,97.1,384.1,93.3,388.9,93.3z M239.6,98.1c0-2.6,2.6-4.2,6.9-4.2c4.5,0,9.2,1.6,12.7,3.1l4.8-11.3
			c-4.5-2.3-11.4-4.4-18.3-4.4c-12.8,0-23.1,5.8-23.1,17.4c0,18.2,25.7,14.9,25.7,23c0,3-3,4.5-8,4.5c-5.1,0-10.1-1.7-13.9-3.6
			l-5.5,11c6.4,3.4,13.9,5,20.9,5c12.4,0,23.2-6.4,23.2-18.2C264.9,102.4,239.6,105.4,239.6,98.1z M140.4,81.3
			c-10.6,0-19,3.3-24.1,6.5l4.7,9.8c3.1-1.4,9.7-3.9,15.2-3.9c4,0,7.5,1.4,7.5,5.6v3.6c-23.7-1.7-30.5,8.7-30.5,18.3
			c0,9.4,8,17.3,18.4,17.3c4.1,0,8.6-1.6,12-3.7v2.4h17.2V99.2C160.9,86.9,153,81.3,140.4,81.3z M144.3,125.3
			c-1.6,1.2-4.1,2.1-6.8,2.1c-4.3,0-7.2-2.5-7.2-6.4c0-4.5,3.5-8.9,13.9-7.2V125.3z M297.1,81.3c-10.6,0-19,3.3-24.1,6.5l4.7,9.8
			c3.1-1.4,9.7-3.9,15.2-3.9c4,0,7.5,1.4,7.5,5.6v3.6c-23.7-1.7-30.5,8.7-30.5,18.3c0,9.4,8,17.3,18.4,17.3c4.1,0,8.6-1.6,12-3.7
			v2.4h17.2V99.2C317.6,86.9,309.8,81.3,297.1,81.3z M300.4,125.3c-1.6,1.2-4.1,2.1-6.8,2.1c-4.3,0-7.2-2.5-7.2-6.4
			c0-4.5,3.6-8.9,13.9-7.2V125.3z M331.6,80.4v2.3h-9.1v11.7h9.1v43h17.1v-43h11.8V82.6h-11.8v-2.9c0-4.8,1.9-8.3,7.2-8.3
			c1.6,0,3.6,0.3,5,0.8V60c-2.4-0.6-5-1.1-8.2-1.1C338.9,58.9,331.6,67.4,331.6,80.4z M204.8,82.6L193,115.3l-13.6-32.7h-17.6
			l23.1,52.1l-7.2,17.9h16.3l27.7-70.1H204.8z M87.3,63.3H58.9v74h17.6v-27h10.8c14.3,0,25-8.9,25-24
			C112.3,73.2,104.3,63.3,87.3,63.3z M85.4,97.4h-8.9V76.2h8.9c6.3,0,9.9,4.4,9.9,10.7C95.3,93.7,91.3,97.4,85.4,97.4z"/>
		<path class="st0" d="M545.5,81.3c-10.6,0-19,3.3-24.1,6.5l4.7,9.8c3.1-1.4,9.7-3.9,15.2-3.9c4,0,7.5,1.4,7.5,5.6v3.6
			c-23.7-1.7-30.5,8.7-30.5,18.3c0,9.4,8,17.3,18.4,17.3c4.1,0,8.6-1.6,12-3.7v2.4H566V99.2C566,86.9,558.2,81.3,545.5,81.3z
			 M548.9,125.3c-1.6,1.2-4.1,2.1-6.8,2.1c-4.3,0-7.2-2.5-7.2-6.4c0-4.5,3.6-8.9,13.9-7.2V125.3z"/>
		<path class="st0" d="M578.4,122.5c3.9,1.9,8.8,3.6,13.9,3.6c5,0,8-1.5,8-4.5c0-8-25.7-4.7-25.7-23c0-11.6,10.3-17.4,23.1-17.4
			c7,0,13.8,2.1,18.3,4.4L611.2,97c-3.4-1.5-8.2-3.1-12.7-3.1c-4.3,0-6.9,1.6-6.9,4.2c0,7.3,25.3,4.3,25.3,22.3
			c0,11.8-10.7,18.2-23.2,18.2c-7,0-14.5-1.6-20.9-5L578.4,122.5z"/>
		<path class="st0" d="M657.2,137.3v-36.6c0-4.1-1.8-6.8-5.9-6.8c-4.2,0-8.6,2.8-10.8,4.6v38.7h-17.2V63.4h17.2v25.1
			c4.4-3.5,10.5-7.2,17.5-7.2c7,0,16.4,3.6,16.4,18.6v37.4H657.2z"/>
		<path class="st0" d="M497.4,117.9c-1.4,5-4.5,8.2-9.7,8.2c-7.6,0-10.6-7.1-10.6-16.1c0-9.4,3.3-16.2,10.6-16.2
			c5,0,8.1,3.1,9.6,8.1h16.5c-3.1-13.2-14-20.7-26.1-20.7c-16.8,0-28.9,10.6-28.9,28.6c0,18,12,28.6,28.9,28.6
			c12.2,0,23-7.5,26.1-20.7H497.4z"/>
	</g>
</g>
</svg>
