<?xml version="1.0" encoding="UTF-8" standalone="no"?>
<!-- Created with Inkscape (http://www.inkscape.org/) -->
<svg
   xmlns:svg="http://www.w3.org/2000/svg"
   xmlns="http://www.w3.org/2000/svg"
   version="1.0"
   width="1133.8583"
   height="366.02362"
   id="svg2168">
  <defs
     id="defs2170" />
  <g
     transform="matrix(1.0044378,0,0,1.0044378,-9.7087714,11.629611)"
     id="g2844">
    <path
       d="M 352.96182,208.34383 A 133.51897,133.51897 0 1 1 85.923889,208.34383 A 133.51897,133.51897 0 1 1 352.96182,208.34383 z"
       transform="matrix(1.0999941,0,0,1.0999941,-49.573347,-58.55198)"
       id="path2834"
       style="opacity:1;fill:#a90432;fill-opacity:1;fill-rule:nonzero;stroke:none;marker:none;marker-start:none;marker-mid:none;marker-end:none;visibility:visible;display:inline;overflow:visible;enable-background:accumulate" />
    <path
       d="M 160.625,60.28125 C 149.89505,60.281249 141.68347,66.50288 141.5625,78.78125 C 141.48991,85.28939 145.61989,91.26607 152.03125,96.25 L 152.03125,96.28125 C 162.79751,104.61603 179.99882,110.13407 194.78125,110.59375 C 208.64431,111.02924 220.56038,112.8427 229.875,116.375 C 243.93162,121.70974 252.0625,131.04016 252.0625,145.75 C 252.06249,149.17342 250.82865,152.85076 248.6875,156.625 C 244.92536,163.24201 238.36098,170.1864 230.8125,176.71875 C 221.99385,184.364 211.86301,191.44148 203.25,196.8125 C 198.55639,199.75205 194.30247,202.1885 191,203.90625 C 187.73383,205.61191 182.91438,208.87899 177.15625,212.375 C 176.62399,212.82258 176.04434,212.07762 176.625,211.59375 C 180.78633,207.21466 184.37193,202.23192 187.09375,196.8125 C 190.19056,190.61888 192.1774,183.84382 192.625,176.71875 C 192.68548,175.69052 192.71874,174.66535 192.71875,173.625 C 192.71875,167.68542 191.7591,161.96478 189.96875,156.59375 C 182.21463,133.34348 159.01242,116.5 131.625,116.5 C 110.90299,116.5 92.638232,126.13592 81.59375,140.90625 C 91.525315,134.95456 103.52505,131.375 116.46875,131.375 C 138.44885,131.375 157.74685,141.44841 168.71875,156.59375 C 173.07364,162.60591 176.12096,169.4243 177.5,176.71875 C 178.04437,179.62201 178.34375,182.61991 178.34375,185.65625 C 178.34375,189.50306 177.84477,193.21972 176.9375,196.8125 L 171.65625,196.8125 L 176.9375,196.84375 C 174.78425,205.35998 170.26721,213.11887 164.21875,219.6875 C 163.78326,220.34073 162.69959,219.80546 163.4375,219.03125 C 168.97789,212.00294 171.08769,205.48599 171.65625,196.8125 C 171.77722,194.88909 171.8125,192.85285 171.8125,190.6875 C 171.8125,185.83664 171.15223,181.14621 169.90625,176.71875 C 167.753,169.10979 163.88616,162.24301 158.78125,156.59375 C 149.9868,146.91622 137.50016,140.875 123.625,140.875 C 109.76194,140.875 97.282359,146.91622 88.5,156.59375 C 86.915304,158.3357 85.424413,160.19655 84.09375,162.15625 C 87.553467,159.85784 91.346724,157.98489 95.375,156.59375 C 100.45571,154.8276 105.94651,153.875 111.65625,153.875 C 117.39019,153.875 122.88299,154.8155 128,156.59375 C 138.68157,160.28331 147.65518,167.4646 153.4375,176.71875 C 157.16335,182.68252 159.56048,189.50597 160.25,196.8125 C 160.39516,198.25203 160.46875,199.72378 160.46875,201.1875 C 160.46875,211.71182 156.68757,221.23075 150.6875,229.09375 C 150.2883,229.6744 149.40825,229.29335 149.84375,228.53125 C 153.69056,222.49489 154.99999,216.82773 155,207.34375 C 155,203.71467 154.57964,200.17545 153.78125,196.8125 C 151.95461,188.98579 148.10792,182.06557 142.90625,176.71875 C 136.19246,169.83561 127.21483,165.62499 117.34375,165.625 C 107.47267,165.625 98.514189,169.84769 91.8125,176.71875 C 89.828606,178.73893 88.017158,181.01308 86.46875,183.46875 C 91.634132,179.80339 97.72472,177.37197 104.28125,176.71875 C 105.50304,176.59778 106.75401,176.53125 108,176.53125 C 109.10587,176.53125 110.19582,176.58036 111.28125,176.6875 L 111.625,176.6875 C 124.39934,177.94558 135.31746,185.73173 141.28125,196.8125 C 144.35386,202.52225 146.125,209.08964 146.125,216.09375 C 146.125,227.12613 144.00913,235.88905 139.59375,241.5625 C 134.98483,247.53838 128.6875,256.20856 128.6875,266.40625 C 128.68749,270.70066 129.14414,274.29331 129.90625,277.28125 C 133.51113,291.27738 144.07959,292.15624 147.78125,292.15625 C 152.2692,292.15625 159.34375,287.8277 159.34375,280.59375 C 159.34375,279.43244 159.05846,278.34578 158.5625,277.28125 L 158.5625,277.25 C 155.92537,271.56445 147.64416,266.17252 146.90625,253.53125 C 146.04737,238.49479 166.00345,231.84405 215.625,205.21875 C 220.99603,202.33968 226.17937,199.53431 231.1875,196.8125 L 231.25,196.8125 C 244.34995,189.68835 256.11051,183.07157 266.0625,176.71875 C 276.832,169.84126 285.51042,163.2486 291.4375,156.625 C 297.23192,150.14105 300.40625,143.63516 300.40625,136.8125 C 300.40625,129.25193 298.63815,122.27829 294.71875,116.375 C 286.84366,104.52002 270.28862,96.875003 241.8125,96.875 C 226.93329,96.875 214.59689,96.656264 204.375,96.28125 C 158.62447,94.611884 155.53526,89.74096 158.28125,86.65625 C 162.69663,91.059519 173.80741,88.94966 177.59375,83.3125 C 181.81558,77.010011 178.60091,68.02122 170.375,63.21875 C 167.254,61.39211 163.86698,60.28125 160.625,60.28125 z"
       id="path2839"
       style="opacity:1;fill:#ffffff;fill-opacity:1;fill-rule:nonzero;stroke:none;marker:none;marker-start:none;marker-mid:none;marker-end:none;visibility:visible;display:inline;overflow:visible;enable-background:accumulate" />
    <path
       d="M 390.76602,308.53682 L 390.76602,36.743364 L 575.28025,36.743364 L 575.28025,113.88538 L 492.98494,113.88538 L 492.98494,143.08734 L 566.96967,143.08734 L 566.96967,215.33011 L 492.98494,215.33011 L 492.98494,308.53682 L 390.76602,308.53682 z M 690.53964,216.18899 L 690.53964,308.53682 L 596.77646,308.53682 L 596.77646,36.743364 L 690.53964,36.743364 L 690.53964,129.39363 L 755.30652,129.39363 L 755.30652,36.743364 L 849.65035,36.743364 L 849.65035,308.53682 L 755.30652,308.53682 L 755.30652,216.18899 L 690.53964,216.18899 z M 873.08208,308.53682 L 873.08208,36.743364 L 974.98648,36.743364 C 1001.9021,36.743364 1024.2935,39.259524 1042.1606,44.231354 C 1060.0278,49.203184 1073.3586,56.872624 1082.1651,67.324364 C 1090.9112,77.764004 1095.3145,90.973834 1095.3145,106.94176 C 1095.3145,138.76874 1085.4797,159.15204 1046.7938,168.15214 C 1090.766,176.1361 1103.238,198.15249 1103.238,234.26178 C 1103.238,283.76235 1067.8303,308.53682 996.94238,308.53682 L 873.08208,308.53682 z M 962.46617,139.51875 L 976.19617,139.51875 C 985.98257,139.51875 993.16814,138.01873 997.74077,135.04289 C 1002.3134,132.07914 1004.6118,127.37344 1004.6118,120.8774 C 1004.6118,108.69581 995.12784,102.58687 976.19617,102.58687 L 962.46617,102.58687 L 962.46617,139.51875 z M 958.57097,243.80624 L 978.54297,243.80624 C 991.00279,243.80624 1000.0271,242.04009 1005.628,238.50779 C 1011.2288,234.97549 1014.0353,229.09639 1014.0353,220.95517 C 1014.0353,213.27363 1011.1804,207.70905 1005.4586,204.21304 C 999.72467,200.72913 990.73666,198.95088 978.54297,198.95088 L 958.57097,198.95088 L 958.57097,243.80624"
       id="path2594"
       style="fill:#007f3d;fill-opacity:1;fill-rule:evenodd;stroke:none" />
  </g>
</svg>
