<?xml version="1.0" encoding="utf-8"?>
<!-- Generator: Adobe Illustrator 21.1.0, SVG Export Plug-In . SVG Version: 6.00 Build 0)  -->
<svg version="1.1" id="Layer_1" xmlns="http://www.w3.org/2000/svg" xmlns:xlink="http://www.w3.org/1999/xlink" x="0px" y="0px"
	 viewBox="0 0 566.9 201.5" style="enable-background:new 0 0 566.9 201.5;" xml:space="preserve">
<style type="text/css">
	.st0{fill:#333333;}
	.st1{fill:url(#XMLID_2_);}
	.st2{fill:url(#XMLID_3_);}
	.st3{fill:url(#XMLID_4_);}
	.st4{fill:url(#XMLID_5_);}
</style>
<g id="XMLID_25684_">
	<path id="XMLID_26763_" class="st0" d="M35,132.3H22.5v43.3H0V60.9h35c27.5,0,38.8,10.9,38.8,36.3C73.8,120.1,62.9,132.3,35,132.3z
		 M34.8,80.4H22.5v33.2H35c10.9,0,15.6-2.9,15.6-16.6C50.6,84,46.4,80.4,34.8,80.4z"/>
	<path id="XMLID_25696_" class="st0" d="M391.3,78c0-5.6,3-8.9,10.9-8.9c2.6,0,5.2,0.4,7.5,1V55.5c-3.2-0.9-7.7-1.5-11.8-1.5
		c-18.9,0-27.5,10.3-27.5,23.2v11.3h-9.9v16.1h9.9v70.9h20.9v-70.9h16.8V88.6h-16.8V78z"/>
	<path id="XMLID_25695_" class="st0" d="M203.5,88.6l-12.6,52.7l-2.3,11.3h-0.4l-3.3-11l-16.8-53h-23.8l34,85.1l-1.3,3.9
		c-2.4,6.4-6.7,8.2-12.2,8.2c-2.9,0-5.4-0.6-8.3-1.9v15.7c3.6,1.3,7.7,2,12,2c13.9,0,23.6-6.6,29.4-24.7l27.8-88.3H203.5z"/>
	<path id="XMLID_25692_" class="st0" d="M109.9,87c-9.3,0-18,1.6-25.7,4.9v17.9c7.3-3.2,13.2-4.6,21.8-4.6c11,0,15.2,3.7,15.2,12.8
		v5.4c-4-1.3-9-2.3-14.9-2.3c-18.2,0-28.7,10.7-28.7,27.1c0,19.6,9.7,28.7,24.9,28.7c9,0,16.5-3.4,21.4-9.6l0.4,0.1l1.6,8.2H142
		v-54.5C142,97.3,133.5,87,109.9,87z M121.2,149.6c0,5.7-6,10.2-12.9,10.2c-6.6,0-11-3.2-11-11.9c0-8,4-12,13-12c5.3,0,9,1.1,10.9,2
		V149.6z"/>
	<path id="XMLID_25691_" class="st0" d="M248,112.8c0-4.7,3.7-7.5,10.6-7.5c5.7,0,14.2,1.3,20.6,4V91.1c-6.1-2.4-13.3-3.8-20.6-3.8
		c-20.6,0-30.5,11.2-30.5,26.4c0,29.8,36.7,22.5,36.7,36.8c0,5.4-3.6,9-11.9,9c-6.7,0-15.8-1.9-22.1-5.7v18.9
		c6.3,3.1,14,4.6,22.5,4.6c21.6,0,30.8-11,30.8-28.7C284.1,119.1,248,126.3,248,112.8z"/>
	<path id="XMLID_25688_" class="st0" d="M322.6,87c-9.3,0-18,1.6-25.7,4.9v17.9c7.3-3.2,13.2-4.6,21.8-4.6c11,0,15.2,3.7,15.2,12.8
		v5.4c-4-1.3-9-2.3-14.9-2.3c-18.2,0-28.7,10.7-28.7,27.1c0,19.6,9.7,28.7,24.9,28.7c9,0,16.5-3.4,21.4-9.6l0.4,0.1l1.6,8.2h16
		v-54.5C354.7,97.3,346.2,87,322.6,87z M333.9,149.6c0,5.7-6,10.2-12.9,10.2c-6.6,0-11-3.2-11-11.9c0-8,4-12,13-12
		c5.3,0,9,1.1,10.9,2V149.6z"/>
	<path id="XMLID_25685_" class="st0" d="M475.2,154.5c-6.6,2.6-13.5,4-21.1,4c-13.9,0-20.2-5.2-21.1-20.8h46.1
		c0.4-3.2,0.6-7,0.6-10.5c0-27.9-12.3-40.1-33.1-40.1c-24.1,0-35.3,15.3-35.3,43.7c0,31.1,12.2,46.3,40.1,46.3
		c9,0,17.3-1.7,23.6-4.3V154.5z M446.8,105c8.5,0,13.5,4.6,13.8,18.2h-27.9C433.5,109.8,437.2,105,446.8,105z"/>
</g>
<linearGradient id="XMLID_2_" gradientUnits="userSpaceOnUse" x1="-479.1885" y1="875.5401" x2="-447.6794" y2="834.8261" gradientTransform="matrix(3.360608e-07 -1 1 3.646346e-07 -382.4243 -389.5658)">
	<stop  offset="5.231153e-02" style="stop-color:#FFE600"/>
	<stop  offset="0.9133" style="stop-color:#66CC99"/>
</linearGradient>
<path id="XMLID_26794_" class="st1" d="M440.4,55.3v15.9l19.7,0c19.6,0,35.6,15.9,35.6,35.6h0c0-10.1,2.9-19.5,8-27.5
	c-4.1-6.5-9.6-12-16-16h0c-8-5-17.4-8-27.5-8L440.4,55.3z"/>
<linearGradient id="XMLID_3_" gradientUnits="userSpaceOnUse" x1="477.307" y1="52.7147" x2="508.8162" y2="12.0007">
	<stop  offset="5.231153e-02" style="stop-color:#FFE600"/>
	<stop  offset="0.9133" style="stop-color:#66CC99"/>
</linearGradient>
<path id="XMLID_26793_" class="st2" d="M511.6,0h-15.9v19.7c0,19.6-15.9,35.6-35.6,35.6v0c10.1,0,19.5,2.9,27.5,8
	c6.5-4.1,12-9.6,16-16v0c5-8,8-17.4,8-27.5V0z"/>
<linearGradient id="XMLID_4_" gradientUnits="userSpaceOnUse" x1="-360.8833" y1="-640.355" x2="-329.3741" y2="-681.069" gradientTransform="matrix(-3.360608e-07 1 -1 -3.646346e-07 -126.1407 397.7893)">
	<stop  offset="5.231153e-02" style="stop-color:#FFE600"/>
	<stop  offset="0.9133" style="stop-color:#66CC99"/>
</linearGradient>
<path id="XMLID_26792_" class="st3" d="M566.9,71.2V55.3l-19.7,0c-19.6,0-35.6-15.9-35.6-35.6h0c0,10.1-2.9,19.5-8,27.5
	c4.1,6.5,9.6,12,16,16h0c8,5,17.4,8,27.5,8L566.9,71.2z"/>
<linearGradient id="XMLID_5_" gradientUnits="userSpaceOnUse" x1="-1038.5881" y1="-65.591" x2="-1007.0789" y2="-106.305" gradientTransform="matrix(-1 0 0 -1 -508.5651 8.2235)">
	<stop  offset="4.720949e-02" style="stop-color:#FFE600"/>
	<stop  offset="0.9133" style="stop-color:#66CC99"/>
</linearGradient>
<path id="XMLID_26791_" class="st4" d="M495.7,126.5l15.9,0l0-19.7c0-19.6,15.9-35.6,35.6-35.6v0c-10.1,0-19.5-2.9-27.5-8
	c-6.5,4.1-12,9.6-16,16v0c-5,8-8,17.4-8,27.5L495.7,126.5z"/>
</svg>
