<?xml version="1.0" encoding="utf-8"?>
<!-- Generator: Adobe Illustrator 19.0.0, SVG Export Plug-In . SVG Version: 6.00 Build 0)  -->
<!DOCTYPE svg PUBLIC "-//W3C//DTD SVG 1.1//EN" "http://www.w3.org/Graphics/SVG/1.1/DTD/svg11.dtd" [
	<!ENTITY ns_extend "http://ns.adobe.com/Extensibility/1.0/">
	<!ENTITY ns_ai "http://ns.adobe.com/AdobeIllustrator/10.0/">
	<!ENTITY ns_graphs "http://ns.adobe.com/Graphs/1.0/">
	<!ENTITY ns_vars "http://ns.adobe.com/Variables/1.0/">
	<!ENTITY ns_imrep "http://ns.adobe.com/ImageReplacement/1.0/">
	<!ENTITY ns_sfw "http://ns.adobe.com/SaveForWeb/1.0/">
	<!ENTITY ns_custom "http://ns.adobe.com/GenericCustomNamespace/1.0/">
	<!ENTITY ns_adobe_xpath "http://ns.adobe.com/XPath/1.0/">
]>
<svg version="1.1" id="Layer_1" xmlns:x="&ns_extend;" xmlns:i="&ns_ai;" xmlns:graph="&ns_graphs;"
	 xmlns="http://www.w3.org/2000/svg" xmlns:xlink="http://www.w3.org/1999/xlink" x="0px" y="0px" viewBox="0 0 136.1 27.3"
	 enable-background="new 0 0 136.1 27.3" xml:space="preserve">
<metadata>
	<sfw  xmlns="&ns_sfw;">
		<slices></slices>
		<sliceSourceBounds  height="27.3" width="136.1" x="230" y="-434" bottomLeftOrigin="true"></sliceSourceBounds>
	</sfw>
</metadata>
<g>
	<polygon fill="#002846" points="23.8,7.4 19.9,21.9 19.8,21.9 16.3,7.4 12,7.4 8.4,21.9 8.3,21.9 4.5,7.4 0,7.4 6,26.8 10.5,26.8 
		14.1,12.4 14.1,12.4 17.7,26.8 22.1,26.8 28.2,7.4 	"/>
	<rect x="29.7" y="7.4" fill="#002846" width="4.3" height="19.4"/>
	<g>
		<path fill="#002846" d="M36.8,7.4h4v3.7h0.1c0.5-2.1,3-4.3,5.7-4.3c1,0,1.2,0.1,1.6,0.1v4.1c-0.6-0.1-1.2-0.2-1.8-0.2
			c-2.9,0-5.3,2.4-5.3,6.6v9.2h-4.3V7.4z"/>
		<path fill="#002846" d="M51.3,18.2c0,3,1.7,5.7,5.2,5.7c2.5,0,4-1.1,4.7-3.2h4c-0.9,4.2-4.5,6.6-8.8,6.6c-6.1,0-9.5-4.2-9.5-10.2
			c0-5.5,3.6-10.2,9.4-10.2c6.1,0,9.9,5.5,9.1,11.3H51.3z M61.3,15.4c-0.1-2.7-2-5.1-4.9-5.1c-3,0-5,2.3-5.1,5.1H61.3z"/>
		<path fill="#002846" d="M80.6,13.9c-0.3-2.4-2.1-3.6-4.4-3.6c-2.2,0-5.3,1.2-5.3,7c0,3.2,1.4,6.6,5.1,6.6c2.5,0,4.2-1.6,4.6-4.4
			h4.3c-0.8,5-3.9,7.8-8.9,7.8c-6.1,0-9.4-4.3-9.4-10c0-5.9,3.2-10.4,9.6-10.4c4.5,0,8.3,2.2,8.7,7H80.6z"/>
		<path fill="#002846" d="M103.3,22.5c0,1,0.2,1.5,1,1.5c0.3,0,0.6,0,1-0.1v3c-0.6,0.2-2,0.5-2.7,0.5c-1.7,0-3-0.6-3.3-2.4
			c-1.7,1.6-4.4,2.4-6.7,2.4c-3.5,0-6.6-1.9-6.6-5.7c0-4.8,3.9-5.6,7.5-6c3.1-0.6,5.8-0.2,5.8-2.7c0-2.2-2.3-2.6-4-2.6
			c-2.4,0-4.1,1-4.3,3.1h-4.3c0.3-5,4.5-6.4,8.8-6.4c3.8,0,7.8,1.5,7.8,5.6V22.5z M99,17.1c-1.3,0.9-3.4,0.8-5.2,1.2
			c-1.8,0.3-3.5,1-3.5,3.2c0,1.9,2.4,2.5,3.9,2.5c1.9,0,4.8-1,4.8-3.7V17.1z"/>
		<path fill="#002846" d="M106.6,7.4h4v3.7h0.1c0.5-2.1,3-4.3,5.7-4.3c1,0,1.2,0.1,1.6,0.1v4.1c-0.6-0.1-1.2-0.2-1.8-0.2
			c-2.9,0-5.3,2.4-5.3,6.6v9.2h-4.3V7.4z"/>
		<path fill="#002846" d="M136.1,26.8h-4v-2.6h-0.1c-1.1,2.2-3.6,3.1-6,3.1c-6.1,0-9.1-4.5-9.1-10.3c0-7,4.2-10.1,8.4-10.1
			c2.4,0,5.1,0.9,6.4,3h0.1V0h4.3V26.8z M126.5,23.9c3.8,0,5.4-3.5,5.4-6.9c0-4.3-2.1-6.8-5.4-6.8c-4,0-5.4,3.6-5.4,7
			C121.1,20.6,122.8,23.9,126.5,23.9"/>
	</g>
	<rect x="29.7" fill="#E00000" width="4.3" height="4.3"/>
</g>
</svg>
