<?xml version="1.0" encoding="utf-8"?>
<!-- Generator: Adobe Illustrator 21.1.0, SVG Export Plug-In . SVG Version: 6.00 Build 0)  -->
<svg version="1.0" id="Layer_1" xmlns="http://www.w3.org/2000/svg" xmlns:xlink="http://www.w3.org/1999/xlink" x="0px" y="0px"
	 viewBox="0 0 540 120" enable-background="new 0 0 540 120" xml:space="preserve">
<g>
	<g>
		<g>
			<g>
				<path fill="#EBBD00" d="M84,39.6L84,39.6L84,39.6c-0.6-0.4-1.5-0.6-2-0.3c-3.7-0.4-7.3-0.3-11-0.3h-0.2c-1.9,0-3.8,0-5.8,0
					c-15.7-0.3-15.7-0.3-15.7-0.3c-3.7-0.1-7.7-0.1-11.7,0.1c-2.9,0-5.8,0.1-8.7,0.2C25.8,39,18.6,39,14.3,39c-2.3,0-3.5,0-3.7,0
					c-0.5,0-1.1,0.7-1.1,1.3c0,0.3,0.2,0.7,0.7,0.7c0.4,0,3,0.1,7.8,0l4.8,0c1.3,0,1.9,0,2.2,0l0,0c3.6-0.4,7.1-0.3,10.6-0.3h0.3
					c2.2,0,4.6,0,6.9-0.1c0.5,0.1,1,0,1.5-0.1l0.1,0c0.2,0,0.5-0.1,0.7-0.1c0.5,0.2,1.1,0.1,1.8,0.1c0.6,0,1.2,0,1.8,0.1v0h0.1v0
					c0.5-0.2,1-0.1,1.4,0c0,0,0.1,0,0.1,0c0.2,0,0.4,0.1,0.7,0.1c4.5-0.1,9.5,0,15.7,0.5c0,0,2.9,0.3,2.9,0.3v0v0h0
					c2.6-0.3,5.3-0.1,7.9,0.1c0,0,0.1,0,0.1,0c2,0.2,3.8,0.3,5.6,0.2l0,0l0.1-0.1l0,0l1-0.8h0l0,0l0,0C84.6,40.7,84.5,40,84,39.6"/>
				<path fill="#006F2E" d="M58,73L58,73l0.1-0.2L58,66.6v0c-0.1-0.9-0.1-1.9-0.2-3c0-1.2-0.1-2.5-0.2-3.6c0-1.6-0.3-3.3-0.6-4.9
					l-0.2-1.1l0-0.1l-0.1-0.1c-0.2-0.2-0.3-0.5-0.4-0.9c-0.1-0.3-0.2-0.6-0.3-0.9c-0.4-0.7-1.1-1.5-1.6-2.1l0,0
					c-0.1-0.2-0.3-0.3-0.5-0.4c-0.1,0-0.2-0.1-0.3-0.2l-0.1-0.1l-0.1,0L53.2,49c-0.5-0.4-1-0.6-1.6-0.8h0C51.5,48,51.2,48,50.9,48
					v-0.1l-0.3-0.1l-1.4-0.2l-0.2,0L49,47.7c-0.1,0.1-0.1,0.1-0.4,0c-0.1,0-0.3-0.1-0.4-0.1l-0.2,0L48,47.6c0,0-0.1-0.1-0.2-0.1
					l-0.6-0.2l0,0.3c-0.2,0-0.5,0-0.6,0.1h-0.9l-0.8,0l0.1,0.3l0,0c-0.4-0.1-0.6,0.1-0.8,0.3c0,0-0.1,0-0.1,0.1
					c-0.3,0-0.5,0.2-0.6,0.3c-0.1,0.1-0.1,0.1-0.2,0.1l-0.1,0L43,48.9c-0.1,0.1-0.5,0.3-0.7,0.4l-0.5,0.2l0.1,0.1
					c-0.1,0-0.1,0.1-0.2,0.1h-0.4v0.4c0,0,0,0-0.1,0L41,50c0,0-0.2,0.2-0.2,0.2c-0.3,0.4-0.6,0.7-1,1.1c-0.4,0.5-0.9,0.9-1.2,1.5
					L38.5,53l0.1,0.2c-0.1,0-0.3,0.2-0.3,0.4C38,53.8,38,54,38,54.2c0,0,0,0.1,0,0.2c-0.2,0.2-0.2,0.4-0.3,0.6c0,0.1,0,0.2-0.1,0.3
					l-0.2,0.3l0.1,0.1c-0.1,0.2-0.1,0.3-0.1,0.4c0,0,0,0.1,0,0.1l-0.2,0.1l0,0.2c0.1,0.4,0,0.8-0.1,1.2c-0.1,0.4-0.1,0.8-0.1,1.3
					c-0.2,0.2-0.1,0.5-0.1,0.7c0,0.1,0,0.1,0,0.2l-0.2,0.2l0.2,0.3c0.1,0.2,0,0.5-0.1,0.8c-0.1,0.3-0.2,0.6-0.1,0.9
					c0,0-0.1,0.1-0.1,0.1c0,0.1-0.1,0.1-0.1,0.3c0,0.2,0,0.3,0,0.3l-0.2,0.3l0,0.1l0.3,0.2c0,0.2,0,0.4,0,0.5c0,0.2,0.1,0.3,0,0.4
					l-0.2,0.3l0.2,0.2c0,0,0,0,0,0.1c0,0.1,0,0.4,0.2,0.6c0,0,0,0.1,0,0.1l-0.3,0.1l0.2,0.5c0,0,0,0.1,0,0.1c0,0.1-0.1,0.4,0,0.6
					c-0.1,0.3,0,0.5,0,0.7c0,0,0,0.1,0,0.2c-0.3,0.3-0.2,0.8-0.1,1c-0.1,0.2-0.1,0.5-0.1,0.6l-0.4,0.1l0.4,0.4c0,0.1,0,0.2,0,0.3
					c0.1,0.1,0.1,0.1,0.2,0.2l-0.1,0c0,0,0,0,0,0h0l0.2,0.4l0,0c0,0.2,0,0.5,0.1,0.6c0,0.1-0.1,0.1-0.1,0.2l-0.2,0.2l0.2,0.2
					c0.1,0.2,0.1,0.4,0,0.8c-0.1,0.3-0.2,0.8,0,1.1l-0.2,0.2l0.3,0.2c0,0,0,0,0,0c-0.1,0.1-0.2,0.4,0,0.7l0,0c0.1,0.1,0,0.4,0,0.6
					c0,0.4-0.1,0.8,0.1,1.2l-0.1,0.4l0-0.1c-0.1,0.2,0,0.3,0,0.4L37,78l0.1,0.3c0.1,0.3,0.1,0.7,0.1,1.1c0,0.7,0,1.6,0.7,2.2
					l0.1,0.1l0.2-0.1c0.5-0.1,0.5-0.6,0.5-0.9c0-0.1,0-0.1,0-0.2l0-0.1l0-0.1c-0.2-0.7-0.1-1.6,0-2.3c0-0.2,0-0.4,0.1-0.6l0-0.1
					l0-0.1c-0.1-0.3-0.1-0.5-0.1-0.8c0-0.3,0.1-0.6,0-0.9c0.1-1.4,0-3.1,0-4.6c0-0.6,0-1.2-0.1-1.8v0l0,0c-0.1-0.7-0.1-1.5,0-2.2
					c0-0.7,0-1.3,0-2c0.2-0.7,0.2-1.4,0.1-2.1c0-0.3,0-0.6,0-1v-0.1l0,0c0.2-0.2,0.2-0.4,0.1-0.6c0.1-0.3,0.1-0.5,0.1-0.7
					c0-0.2,0-0.3,0-0.5l0-0.1l0-0.1c0-0.2,0-0.3,0-0.5c0.1-0.2,0.1-0.5,0-0.8c0.3-0.5,0.3-1.2,0.4-1.8l0-0.2c0-0.1,0-0.3-0.1-0.4
					c0,0,0,0,0,0c0-0.3,0.1-0.5,0.3-0.8c0.2-0.3,0.4-0.7,0.5-1.2l0-0.1l0,0c0,0,0.1,0,0.1-0.1c0.1-0.1,0.3-0.3,0.3-0.5
					c0,0,0-0.1,0-0.1c0.2-0.2,0.4-0.5,0.5-0.7c0.2-0.3,0.3-0.6,0.7-0.7l0.2-0.1l0.1-0.2c0-0.2,0.2-0.3,0.5-0.5
					c0.2-0.1,0.5-0.3,0.6-0.5c0.2,0,0.4,0,0.5-0.1c0.3-0.1,0.5-0.2,0.7-0.4c0.3-0.3,0.4-0.3,0.6-0.2l0.2,0.1l0.1-0.1c0,0,0,0,0,0
					c0.1,0,0.3-0.1,0.4-0.2c0.1,0,0.2,0,0.3-0.1c0.2-0.1,0.2-0.1,0.3,0c0.1,0,0.2,0.1,0.3,0l0,0l0.2,0l0.3,0c1-0.1,1.8-0.2,2.6,0.2
					l0.3,0.1l0.2-0.3c0,0,0.1,0.1,0.1,0.1c0.2,0.2,0.5,0.6,1,0.5c0.1,0.1,0.2,0.2,0.3,0.2c0,0,0.1,0.1,0.1,0.1v0l0.1,0.1
					c0.2,0.2,0.5,0.3,0.7,0.3c0.6,0.6,1.2,1.4,1.2,1.8v0.3h0.3c0,0,0,0,0,0c0.1,0.4,0.2,1,0.6,1.4c-0.1,0.2,0,0.5,0,0.6
					c0,0,0,0.1,0,0.1l-0.1,0.3l0.2,0.2l0.1,0c0,0.2,0.1,0.4,0.2,0.6c0,0,0,0.1,0.1,0.1l0,0.1c-0.3,0.6,0.1,0.9,0.3,1.1
					c0,0,0.1,0,0.1,0.1c-0.2,0.1-0.2,0.2-0.2,0.5l0,0.3l0.1,0.2c0,0,0,0,0,0c0,0,0,0,0,0c0,0,0,0.1,0.1,0.2L55.2,59l-0.1,0.3
					l0.2,0.2l0.1,0.1c0,0.1,0.1,0.3,0.1,0.3c0,0,0,0,0,0l0,0.2c-0.1,0.6-0.3,1.3,0.1,1.9c0,0,0,0,0,0c-0.2,0.2-0.1,0.5-0.1,0.6
					c0,0.1,0,0.2,0,0.2l-0.1,0.3c0,0,0.1,0,0.2,0.1c0,0,0,0.1,0,0.1l-0.1,0.4h0.1c0,0.1,0,0.3,0,0.4c0,0.2,0,0.3-0.1,0.4l0,0l0,0.1
					c-0.1,0.4,0,0.7,0.1,1c0,0.1,0,0.1,0.1,0.2c-0.1,0.1-0.1,0.2-0.1,0.3c0,0,0,0.1,0,0.1l-0.1,0.1l0.1,0.2c0,0.1,0.1,0.2,0.2,0.2
					l-0.1,0c0,0,0,0.3,0,0.3v0.1l-0.2,0.1l0.1,0.2c-0.1,0.1-0.1,0.3-0.1,0.4l-0.1,0.3c0,0,0,0.2,0.2,0.2c-0.1,0.5,0.2,0.8,0.4,1
					c0.1,0.1,0.1,0.2,0.2,0.2H56l0.1,0.4l0,0c0,0-0.1,0.1-0.1,0.1l-0.3,0.1l0.1,0.4l0,0.1c-0.1,0.2,0,0.3,0,0.4c0,0,0,0,0,0
					c-0.1,0.1-0.2,0.2-0.2,0.5l0,0.3l0.3,0c0,0.1,0,0.1-0.1,0.2c0,0.1-0.1,0.2-0.1,0.3c0,0,0,0,0,0l0.5,0.3C56.1,72.9,56,73,56,73.1
					c0,0.1,0,0.1,0,0.1c0,0,0,0,0,0h-0.4l0,0.4c0,0.1,0,0.1,0,0.2c0,0.1,0,0.2,0,0.3v0.4c0,0.1,0,0.2,0,0.3l-0.1,0l0,0.2
					c0,0.1,0,0.2,0,0.4c0,0.1,0,0.1,0,0.2l-0.3,0.2l0.4,0.4l0,0c0,0.1-0.1,0.2-0.1,0.4h-0.3l0.5,0.6c0,0,0.1,0.2,0.1,0.3
					c0,0,0,0,0,0c-0.2,0.2-0.2,0.5-0.2,0.6c0,0.1,0,0.2,0,0.2c0,0,0,0,0,0l0.1,0.2c-0.1,0.1-0.1,0.1-0.2,0.2c0,0.1-0.1,0.2,0,0.3
					h-0.4l0.4,0.4l-0.4,0.1l0.3,0.2v0.9c0,0.2,0.1,0.3,0.2,0.4c0,0,0,0,0,0c0.2,0.1,0.4,0.1,0.5,0.1v0.4l0.4-0.1
					c0.3-0.1,0.6-0.1,0.8-0.1l0.4,0.1l0.1-0.4c0.2-1.4,0.1-2.7,0.1-4c0-1.3-0.1-2.4,0.1-3.6C58.2,73.3,58.1,73.1,58,73"/>
				<path fill="#0056A4" d="M31.9,73L31.9,73l0.1-0.2l-0.1-6.1v0c-0.1-0.9-0.1-1.9-0.2-3c0-1.2-0.1-2.5-0.2-3.6
					c0-1.6-0.3-3.3-0.6-4.9l-0.2-1.1l0-0.1l-0.1-0.1c-0.2-0.2-0.3-0.5-0.4-0.9c-0.1-0.3-0.2-0.6-0.3-0.9c-0.4-0.7-1.1-1.5-1.6-2.1
					l0,0c-0.1-0.2-0.3-0.3-0.5-0.4c-0.1,0-0.2-0.1-0.3-0.2l-0.1-0.1l-0.1,0L27.1,49c-0.5-0.4-1-0.6-1.6-0.8h0
					C25.4,48,25.1,48,24.9,48v-0.1l-0.3-0.1l-1.4-0.2l-0.2,0l-0.1,0.2c-0.1,0.1-0.1,0.1-0.4,0c-0.1,0-0.3-0.1-0.4-0.1l-0.2,0
					l-0.1,0.1c0,0-0.1-0.1-0.2-0.1l-0.6-0.2l0,0.3c-0.2,0-0.5,0-0.6,0.1h-0.9l-0.8,0l0.1,0.3l0,0c-0.4-0.1-0.7,0.1-0.8,0.3
					c0,0-0.1,0-0.1,0.1c-0.3,0-0.5,0.2-0.6,0.3c-0.1,0.1-0.1,0.1-0.2,0.1l-0.1,0l-0.1,0.1c-0.1,0.1-0.5,0.3-0.7,0.4l-0.5,0.2
					l0.1,0.1c-0.1,0-0.2,0.1-0.2,0.1h-0.4v0.4c0,0,0,0-0.1,0L14.9,50c0,0-0.2,0.2-0.2,0.2c-0.3,0.4-0.6,0.7-1,1.1
					c-0.4,0.5-0.9,0.9-1.2,1.5L12.4,53l0.1,0.2c-0.1,0-0.3,0.2-0.3,0.4c-0.2,0.2-0.2,0.4-0.2,0.6c0,0,0,0.1,0,0.2
					c-0.2,0.2-0.2,0.4-0.3,0.6c0,0.1,0,0.2-0.1,0.3l-0.2,0.3l0.1,0.1c-0.1,0.2-0.1,0.3-0.1,0.4c0,0,0,0.1,0,0.1l-0.1,0.1l0,0.2
					c0.1,0.4,0,0.8-0.1,1.2c-0.1,0.4-0.1,0.8-0.1,1.3c-0.2,0.2-0.1,0.5-0.1,0.7c0,0.1,0,0.1,0,0.2l-0.2,0.2l0.2,0.3
					c0.1,0.2,0,0.5-0.1,0.8c-0.1,0.3-0.2,0.6-0.1,0.9c0,0-0.1,0.1-0.1,0.1c0,0.1-0.1,0.1-0.1,0.3c0,0.2,0,0.3,0,0.3l-0.2,0.3l0,0.1
					l0.3,0.2c0,0.2,0,0.4,0,0.5c0,0.2,0,0.3,0,0.4l-0.2,0.3l0.2,0.2c0,0,0,0,0,0.1c0,0.1,0,0.4,0.2,0.6c0,0,0,0.1,0,0.1l-0.3,0.1
					l0.2,0.5c0,0,0,0.1,0,0.1c0,0.1-0.1,0.4,0,0.6c-0.1,0.3,0,0.5,0,0.7c0,0,0,0.1,0,0.2c-0.3,0.3-0.2,0.8-0.1,1
					c-0.1,0.2-0.1,0.5-0.1,0.6l-0.4,0.1l0.4,0.4c0,0.1,0,0.2,0,0.3c0.1,0.1,0.1,0.1,0.2,0.2l-0.1,0c0,0,0,0,0,0h0l0.2,0.4v0
					c0,0.2,0,0.5,0.1,0.6c0,0.1-0.1,0.1-0.1,0.2l-0.2,0.2l0.2,0.2c0.1,0.2,0.1,0.4,0,0.8c-0.1,0.3-0.2,0.8,0,1.1l-0.2,0.2l0.3,0.2
					c0,0,0,0,0,0c-0.1,0.1-0.2,0.4,0,0.7l0,0c0,0.1,0,0.4,0,0.6c0,0.4-0.1,0.8,0.1,1.2L11,77.6l0-0.1c0,0.2,0,0.3,0,0.4L10.9,78
					l0.1,0.3c0.1,0.3,0.1,0.7,0.1,1.1c0,0.7,0,1.6,0.7,2.2l0.1,0.1l0.2-0.1c0.5-0.1,0.5-0.6,0.5-0.9c0-0.1,0-0.1,0-0.2l0-0.1l0-0.1
					c-0.2-0.7-0.1-1.6,0-2.3c0-0.2,0-0.4,0-0.6l0-0.1l0-0.1c-0.1-0.3-0.1-0.5-0.1-0.8c0-0.3,0.1-0.6,0-0.9c0.1-1.4,0-3.1,0-4.6
					c0-0.6,0-1.2-0.1-1.8v0l0,0c-0.1-0.7-0.1-1.5,0-2.2c0-0.7,0-1.3,0-2c0.2-0.7,0.1-1.4,0.1-2.1c0-0.3,0-0.6,0-1v-0.1l0,0
					c0.2-0.2,0.2-0.4,0.1-0.6c0.1-0.3,0.1-0.5,0.1-0.7c0-0.2,0-0.3,0-0.5l0-0.1l0-0.1c0-0.2,0-0.3,0-0.5c0.1-0.2,0.1-0.5,0-0.8
					c0.3-0.5,0.3-1.2,0.4-1.8l0-0.2c0-0.1,0-0.3-0.1-0.4c0,0,0,0,0,0c0-0.3,0.1-0.5,0.3-0.8c0.2-0.3,0.4-0.7,0.5-1.2l0-0.1v0
					c0,0,0.1,0,0.1-0.1c0.1-0.1,0.3-0.3,0.3-0.5c0,0,0-0.1,0-0.1c0.2-0.2,0.4-0.5,0.5-0.7c0.2-0.3,0.3-0.6,0.7-0.7l0.2-0.1l0.1-0.2
					c0-0.2,0.2-0.3,0.5-0.5c0.2-0.1,0.5-0.3,0.6-0.5c0.3,0,0.4,0,0.5-0.1c0.3-0.1,0.5-0.2,0.7-0.4c0.3-0.3,0.4-0.3,0.6-0.2l0.2,0.1
					l0.1-0.1c0,0,0,0,0,0c0.1,0,0.3-0.1,0.4-0.2c0.1,0,0.2,0,0.3-0.1c0.2-0.1,0.2-0.1,0.3,0c0.1,0,0.2,0.1,0.3,0l0,0l0.3,0l0.3,0
					c1-0.1,1.8-0.2,2.6,0.2l0.3,0.1l0.2-0.3c0,0,0.1,0.1,0.1,0.1c0.2,0.2,0.5,0.6,1,0.5c0.1,0.1,0.2,0.2,0.3,0.2
					c0,0,0.1,0.1,0.1,0.1v0l0.1,0.1c0.2,0.2,0.5,0.3,0.7,0.3c0.6,0.6,1.2,1.4,1.2,1.8v0.3h0.3c0,0,0,0,0,0c0.1,0.4,0.2,1,0.6,1.4
					c-0.1,0.2,0,0.5,0,0.6c0,0,0,0.1,0,0.1l-0.1,0.3l0.2,0.2l0.1,0c0,0.2,0.1,0.4,0.2,0.6c0,0,0,0.1,0.1,0.1l-0.1,0.1
					c-0.3,0.6,0.1,0.9,0.3,1.1c0,0,0,0,0.1,0.1C29,57.9,29,58,29,58.2l0,0.3l0.1,0.2c0,0,0,0,0,0c0,0,0,0,0,0c0,0,0,0.1,0.1,0.2
					L29.1,59L29,59.3l0.2,0.2l0.1,0.1c0,0.1,0.1,0.3,0.1,0.3c0,0,0,0,0,0l0,0.2c-0.1,0.6-0.3,1.3,0.1,1.9c0,0,0,0,0,0
					c-0.2,0.2-0.1,0.5-0.1,0.6c0,0.1,0,0.2,0,0.2l-0.1,0.3c0,0,0.1,0,0.2,0.1c0,0,0,0.1,0,0.1l-0.1,0.4h0.1c0,0.1,0,0.3,0,0.4
					c0,0.2,0,0.3-0.1,0.4l0,0l0,0.1c-0.1,0.4,0,0.7,0.1,1c0,0.1,0,0.1,0.1,0.2c-0.1,0.1-0.1,0.2-0.1,0.3c0,0,0,0.1,0,0.1l-0.1,0.1
					l0.1,0.2c0,0.1,0.1,0.2,0.2,0.2l-0.1,0c0,0,0,0.3,0,0.3v0.1l-0.2,0.1l0.1,0.2c-0.1,0.1-0.1,0.3-0.1,0.4l-0.1,0.3
					c0,0,0,0.2,0.1,0.2c-0.1,0.5,0.2,0.8,0.4,1c0.1,0.1,0.1,0.2,0.2,0.2h-0.2L30,70l0,0c0,0-0.1,0.1-0.1,0.1l-0.3,0.1l0.1,0.4l0,0.1
					c-0.1,0.2,0,0.3,0,0.4c0,0,0,0,0,0c-0.1,0.1-0.2,0.2-0.2,0.5l0,0.3l0.3,0c0,0.1,0,0.1-0.1,0.2c0,0.1-0.1,0.2-0.1,0.3h0
					c0,0,0,0,0,0l0.5,0.3c-0.1,0.1-0.1,0.2-0.1,0.3c0,0.1,0,0.1-0.1,0.1c0,0,0,0,0,0h-0.4l0,0.4c0,0.1,0,0.1,0,0.2
					c0,0.1,0,0.2,0,0.3v0.4c0,0.1,0,0.2,0,0.3l-0.1,0l0,0.2c0,0.1,0,0.2,0,0.4c0,0.1,0,0.1,0,0.2l-0.3,0.2l0.4,0.4c0,0,0,0,0,0
					c0,0.1-0.1,0.2-0.1,0.4h-0.3l0.5,0.6c0,0,0.1,0.2,0.1,0.3c0,0,0,0,0,0c-0.2,0.2-0.2,0.5-0.2,0.6c0,0.1,0,0.2,0,0.2c0,0,0,0,0,0
					l0.1,0.2c-0.1,0.1-0.1,0.1-0.2,0.2c0,0.1,0,0.2,0,0.3H29l0.4,0.4L29,79.5l0.3,0.2v0.9c0,0.2,0.1,0.3,0.2,0.4c0,0,0,0,0,0
					c0.2,0.1,0.4,0.1,0.6,0.1v0.4l0.4-0.1c0.3-0.1,0.6-0.1,0.8-0.1l0.4,0.1l0-0.4c0.2-1.4,0.1-2.7,0.1-4c0-1.3-0.1-2.4,0.1-3.6
					C32.1,73.3,32,73.1,31.9,73"/>
				<path fill="#EC6608" d="M83.6,73.4L83.6,73.4l0.1-0.2l-0.1-6.1v0c-0.1-0.9-0.1-1.9-0.2-3c0-1.2-0.1-2.5-0.2-3.6
					c0-1.6-0.3-3.3-0.6-4.9l-0.2-1.1l0-0.1l-0.1-0.1c-0.3-0.2-0.3-0.6-0.4-0.9c-0.1-0.3-0.2-0.6-0.3-0.9c-0.4-0.7-1.1-1.5-1.6-2.1
					l0,0c-0.1-0.2-0.3-0.3-0.5-0.4c-0.1-0.1-0.2-0.1-0.3-0.2L79,49.5l-0.1,0l-0.1-0.1c-0.5-0.4-1-0.6-1.6-0.8l0,0
					c-0.2-0.2-0.5-0.3-0.7-0.3v-0.2l-0.3,0L74.9,48l-0.2,0l-0.1,0.2c0,0.1-0.1,0.1-0.4,0c-0.1,0-0.3-0.1-0.4-0.1l-0.2,0l-0.1,0.1
					c0,0-0.1-0.1-0.2-0.1l-0.6-0.2l0,0.3c-0.3,0-0.5,0-0.7,0.1h-0.9l-0.8,0l0.1,0.3c0,0,0,0,0,0c-0.4-0.1-0.7,0.1-0.8,0.3
					c0,0-0.1,0.1-0.1,0.1c-0.3,0.1-0.5,0.2-0.6,0.3c-0.1,0.1-0.1,0.1-0.2,0.1l-0.1,0l-0.1,0.1c-0.1,0.2-0.5,0.3-0.7,0.4L67.5,50
					l0.1,0.1c-0.1,0-0.2,0.1-0.2,0.1h-0.4v0.4c0,0,0,0-0.1,0l-0.2-0.1c0,0-0.2,0.2-0.2,0.2c-0.3,0.4-0.6,0.8-1,1.1
					c-0.4,0.5-0.9,0.9-1.2,1.5l-0.1,0.2l0.1,0.2c-0.1,0.1-0.3,0.2-0.3,0.4c-0.2,0.2-0.2,0.4-0.2,0.6c0,0,0,0.1,0,0.1
					c-0.2,0.2-0.2,0.4-0.2,0.6c0,0.1,0,0.2-0.1,0.3L63,55.9l0.1,0.1C63,56.2,63,56.3,63,56.4c0,0,0,0.1,0,0.1l-0.1,0.1l0,0.2
					c0.1,0.4,0,0.8-0.1,1.3c0,0.4-0.1,0.8-0.1,1.3c-0.2,0.3-0.1,0.6-0.1,0.7c0,0.1,0,0.2,0,0.2l-0.2,0.2l0.2,0.3
					c0.1,0.2,0,0.5-0.1,0.8c-0.1,0.3-0.2,0.6-0.1,0.9c0,0,0,0-0.1,0.1c0,0.1-0.1,0.1-0.1,0.3c0,0.2,0,0.3,0,0.3l-0.2,0.3l0,0.1
					l0.3,0.2c0,0.2,0,0.4,0,0.5c0,0.2,0,0.3,0,0.4l-0.2,0.3l0.2,0.2c0,0,0,0,0,0.1c0,0.2,0,0.4,0.2,0.6c0,0,0,0.1,0,0.1l-0.3,0.1
					l0.2,0.5c0,0,0,0.1,0,0.1c0,0.1-0.1,0.4,0,0.6c-0.1,0.3,0,0.5,0,0.7c0,0.1,0,0.1,0,0.2c-0.3,0.3-0.2,0.8-0.1,1
					c-0.1,0.2-0.1,0.5-0.1,0.7L62,70.1l0.4,0.4c0,0.1,0,0.2,0.1,0.3c0,0.1,0.1,0.1,0.2,0.2l-0.1,0c0,0,0,0,0,0.1h0l0.2,0.4l0,0
					c0,0.2,0,0.5,0.1,0.6c0,0-0.1,0.1-0.1,0.2l-0.2,0.2l0.2,0.2c0.1,0.2,0.1,0.4,0,0.8c-0.1,0.3-0.2,0.8,0,1.1L62.5,75l0.3,0.2
					c0,0,0,0,0,0c-0.1,0.1-0.2,0.4,0,0.7l0,0c0.1,0.1,0,0.4,0,0.6c0,0.3-0.1,0.8,0.1,1.2l-0.1,0.4l0-0.1c-0.1,0.2,0,0.3,0,0.4
					l-0.1,0.1l0.1,0.3c0.1,0.3,0.1,0.7,0.1,1.1c0,0.7,0,1.6,0.7,2.2l0.1,0.1l0.2-0.1c0.5-0.1,0.5-0.6,0.5-0.9c0-0.1,0-0.1,0-0.2
					l0-0.1l0-0.1c-0.2-0.7-0.1-1.6,0-2.3c0-0.2,0-0.4,0.1-0.6l0-0.1l-0.1-0.1c-0.1-0.3-0.1-0.5-0.1-0.9c0-0.3,0.1-0.6,0-0.9
					c0.1-1.4,0-3.1,0-4.6c0-0.6,0-1.2-0.1-1.8v0l0,0c-0.1-0.7-0.1-1.5,0-2.2c0-0.7,0-1.3,0-2c0.2-0.7,0.1-1.4,0.1-2.1
					c0-0.3,0-0.6,0-1l0-0.1l0,0c0.2-0.2,0.2-0.4,0.1-0.6c0.1-0.3,0.1-0.5,0.1-0.7c0-0.2,0-0.3,0-0.5l0-0.1l0-0.1c0-0.2,0-0.3,0-0.5
					c0.1-0.2,0.1-0.5,0-0.8c0.3-0.5,0.3-1.2,0.4-1.8l0-0.2c0-0.1,0-0.3-0.1-0.4v0c0-0.3,0.1-0.5,0.3-0.8c0.2-0.3,0.4-0.7,0.5-1.2
					l0-0.1v0c0,0,0.1-0.1,0.1-0.1c0.1-0.1,0.3-0.3,0.3-0.5c0-0.1,0-0.1,0-0.1c0.2-0.2,0.4-0.5,0.5-0.7c0.2-0.3,0.3-0.6,0.7-0.7
					l0.2-0.1l0-0.2c0.1-0.2,0.2-0.3,0.5-0.5c0.2-0.1,0.5-0.3,0.6-0.5c0.2,0,0.4-0.1,0.5-0.1c0.3-0.1,0.5-0.2,0.7-0.4
					c0.3-0.3,0.4-0.3,0.6-0.2l0.2,0.1l0.1-0.1c0,0,0,0,0,0c0.1,0,0.3-0.1,0.4-0.2c0.1,0,0.2,0,0.2-0.1c0.2-0.1,0.2-0.1,0.3,0
					c0.1,0,0.2,0.1,0.3,0l0,0l0.2,0l0.3,0c1-0.1,1.8-0.2,2.6,0.2l0.3,0.1l0.2-0.2c0,0,0.1,0.1,0.1,0.1c0.2,0.2,0.5,0.6,1,0.5
					c0.1,0.1,0.2,0.2,0.3,0.2c0,0,0.1,0.1,0.1,0.1v0l0.1,0.1c0.2,0.2,0.5,0.3,0.7,0.3c0.6,0.6,1.2,1.4,1.2,1.8v0.3h0.3l0,0
					c0.1,0.4,0.2,1,0.6,1.4c-0.1,0.2,0,0.5,0,0.6c0,0,0,0.1,0,0.1L80.1,56l0.2,0.2l0.1,0c0,0.2,0.1,0.5,0.2,0.6c0,0,0,0.1,0.1,0.1
					l-0.1,0.1c-0.3,0.6,0.1,0.9,0.3,1.1c0,0,0.1,0,0.1,0.1c-0.2,0.1-0.2,0.2-0.2,0.5l0,0.2l0.1,0.2h0c0,0,0,0,0,0
					c0,0.1,0,0.1,0.1,0.2l-0.1,0.1l-0.1,0.3l0.2,0.2l0.1,0.1c0,0.1,0.1,0.3,0.1,0.3c0,0,0,0,0,0l0,0.2c-0.1,0.5-0.3,1.3,0.1,1.9
					c0,0,0,0,0,0c-0.2,0.2-0.1,0.5-0.1,0.6c0,0.1,0,0.2,0,0.2L81,63.7c0,0,0.1,0,0.2,0.1c0,0,0,0.1,0,0.1l-0.1,0.4h0.1
					c0,0.1,0,0.3,0,0.4c0,0.2,0,0.3-0.1,0.4l0,0l0,0.1c-0.1,0.4,0,0.7,0.1,1c0,0.1,0,0.1,0.1,0.2c-0.1,0.1-0.1,0.2-0.1,0.3
					c0,0,0,0.1,0,0.1l-0.1,0.1l0.1,0.2c0,0.1,0.1,0.2,0.2,0.2l0,0c0,0,0,0.3,0,0.3v0.1l-0.2,0.1l0.1,0.2c0,0.1-0.1,0.3,0,0.4
					l-0.1,0.3c0,0,0,0.2,0.2,0.2c-0.1,0.5,0.2,0.8,0.4,1c0.1,0.1,0.1,0.1,0.2,0.2h-0.2l0.1,0.4v0c0,0-0.1,0.1-0.1,0.1l-0.3,0.1
					l0.1,0.4l0,0.1c-0.1,0.2,0,0.3,0,0.4c0,0,0,0,0,0c-0.1,0.1-0.2,0.3-0.2,0.5l0,0.3l0.3,0c0,0.1,0,0.1-0.1,0.2
					c0,0.1-0.1,0.2-0.1,0.3h0c0,0,0,0,0,0l0.5,0.3c-0.1,0.1-0.1,0.2-0.1,0.3c0,0,0,0.1-0.1,0.1c0,0,0,0,0,0h-0.4l0,0.4
					c0,0.1,0,0.1,0,0.2c0,0.1,0,0.2,0,0.3v0.4c0,0.1,0,0.1,0,0.2l-0.1,0l0,0.2c0,0.1,0,0.2,0,0.4c0,0.1,0,0.1,0,0.2L81,76.4l0.4,0.4
					c0,0,0,0,0,0c0,0.1-0.1,0.2-0.1,0.4H81l0.5,0.6c0,0,0.1,0.2,0.1,0.3c0,0,0,0,0,0c-0.2,0.2-0.2,0.5-0.2,0.6c0,0.1,0,0.2,0,0.2
					l0,0l0.1,0.2c-0.1,0.1-0.1,0.1-0.2,0.2c0,0.1,0,0.2,0,0.3h-0.5l0.4,0.4L80.8,80l0.3,0.2v0.9c0,0.2,0.1,0.3,0.2,0.4c0,0,0,0,0,0
					c0.2,0.1,0.4,0.1,0.5,0.1V82l0.4-0.1c0.3-0.1,0.6-0.1,0.8-0.1l0.4,0.1l0-0.4c0.2-1.4,0.1-2.7,0.1-4c0-1.2-0.1-2.4,0.1-3.6
					C83.8,73.7,83.7,73.5,83.6,73.4"/>
				<path fill="#EC6608" d="M89,102H5V18h84V102z M93.9,13H0V107h93.9V13z"/>
				<path fill="#006F2E" d="M335.4,78.2c0,9.1-6.7,11.2-10.6,11.2c-2,0-4-0.1-6.4-1.1c-2.8-1.1-3.1-2.6-3.1-8.4V59.2
					c0-0.4,0.2-0.6,0.5-0.6c1.3,0,2.2,0,3.8,0.1c3.4,0.2,5.4,0.8,7.3,2.1C333.5,65.4,335.4,72.7,335.4,78.2 M304.7,67.7
					c0,8.1,0,15-0.4,18.7c-0.4,2.6-0.8,4.5-2.5,4.8c-0.8,0.2-1.8,0.3-3.2,0.3c-1.1,0-1.4,0.3-1.4,0.7c0,0.6,0.6,0.9,1.7,0.9
					c3.5,0,9-0.3,11-0.3c2.7,0,10.6,0.5,12.7,0.5c16.2,0,23.4-9.7,23.4-19.1c0-10.3-8.8-16.5-16-19c4.8-3.8,9-8.1,9-15.3
					c0-4.6-2.8-13.2-18.7-13.2c-3,0-6.4,0.3-10.7,0.3c-1.7,0-7.3-0.3-11.9-0.3c-1.3,0-1.9,0.2-1.9,0.8c0,0.6,0.5,0.8,1.5,0.8
					c1.2,0,2.7,0.1,3.4,0.3c2.9,0.6,3.6,2,3.8,5c0.2,2.8,0.2,5.3,0.2,18.6V67.7z M315.3,32c0-1,0.2-1.3,0.8-1.5
					c0.9-0.2,1.7-0.2,2.9-0.2c7.5,0,11,7.7,11,13.6c0,4.3-1.3,7.5-3.6,9.3c-1.5,1.3-3.4,1.7-6.3,1.7c-2,0-3.3-0.1-4.1-0.3
					c-0.3-0.1-0.6-0.3-0.6-1V32z"/>
				<path fill="#006F2E" d="M469.5,27.4c-4.3,0-7.6,0.2-8.6,0.2c-1.8,0-6-0.2-10.5-0.2c-1.3,0-2.3,0.1-2.3,0.8
					c0,0.5,0.3,0.8,1.4,0.8c1.2,0,3.3,0,4.6,0.5c2.1,0.9,2.9,2.5,3,7.8l0.9,39.1h-0.4c-1.5-1.4-13.2-13.9-19.2-19.9
					c-12.7-12.6-26-26.8-27-28c-1.5-1.6-2.3-2.7-3.2-2.7c-0.9,0-1.1,1.2-1.1,3l-0.8,51.6c-0.1,7.6-0.9,10.8-2.7,10.8
					c-3.3,0-4.3-2.1-7.3-9.3c-5.6-13.2-19.5-48.8-21.6-53.6c-0.9-2-1.4-2.8-2.2-2.8c-0.9,0-1.4,1-2.5,3.5L348,83.8
					c-1.7,4.3-3.4,7.3-7.4,7.8c-0.7,0.1-0.8,0.2-1.6,0.2c-0.7,0-1,0.2-1,0.7c0,0.7,0.5,0.9,1.7,0.9c4.5,0,8.2-0.2,9.1-0.2
					c2.7,0,6.4,0.2,9.2,0.2c1,0,1.5-0.2,1.5-0.9c0-0.5-0.3-0.7-1.3-0.7h-1.3c-2.7,0-3.5-1.1-3.5-2.7c0-1.1,0.5-3.1,1.3-5.3l4.7-12.5
					c0.2-0.5,0.3-0.7,0.8-0.7h19.4c0.4,0,0.7,0.2,0.9,0.6l7,18.5c0.4,1.1-0.2,1.8-0.8,2c-0.9,0.1-1.2,0.3-1.2,0.8
					c0,0.6,1.1,0.6,2.6,0.7c7,0.2,13.3,0.2,16.5,0.2c1.9,0,10-0.1,15.7-0.1c1.2,0,2-0.2,2-0.9c0-0.5-0.5-0.7-1.5-0.7
					c-1.4,0-3-0.1-4.5-0.6c-1.7-0.6-2.9-2.9-3.1-9.7l-0.9-36.6h0.3c1.6,1.7,11.2,12.6,20.7,22c9.1,9,20.2,20.4,25.7,25.6
					c1,1,2,1.9,3,1.9c0.8,0,1.1-0.8,1.1-2.7l1-55c0.1-4.9,0.8-6.7,3.2-7.4c1.1-0.3,1.7-0.3,2.6-0.3c1,0,1.6-0.2,1.6-0.8
					C471.4,27.5,470.6,27.4,469.5,27.4 M378,66.3h-16c-0.4,0-0.4-0.3-0.4-0.6l8-21.4c0.1-0.4,0.2-0.8,0.5-0.8c0.2,0,0.3,0.4,0.4,0.8
					l7.9,21.5C378.5,66,378.4,66.3,378,66.3z"/>
				<path fill-rule="evenodd" clip-rule="evenodd" fill="#006F2E" d="M489.3,52.6c0-13.2,0-15.7,0.2-18.5c0.2-3.1,0.9-4.5,3.2-5
					c1-0.2,1.6-0.3,2.4-0.3c0.7,0,1.2-0.2,1.2-0.8c0-0.6-0.6-0.8-1.8-0.8c-3,0-8.5,0.3-10.5,0.3c-2.1,0-7.6-0.3-12.2-0.3
					c-1.3,0-1.9,0.2-1.9,0.8c0,0.6,0.5,0.8,1.5,0.8c1.2,0,2.7,0.1,3.4,0.3c2.9,0.6,3.6,2,3.7,5c0.2,2.8,0.2,5.2,0.2,18.5v15.3
					c0,8,0,14.9-0.4,18.6c-0.3,2.5-0.8,4.5-2.5,4.8c-0.8,0.2-1.8,0.3-3.1,0.3c-1,0-1.4,0.3-1.4,0.7c0,0.6,0.6,0.9,1.7,0.9
					c3.5,0,9-0.3,11-0.3c2.2,0,7.7,0.3,12.6,0.3c1,0,1.7-0.3,1.7-0.9c0-0.4-0.4-0.7-1.1-0.7c-1.1,0-3.1-0.2-4.3-0.3
					c-2.2-0.3-3-2.3-3.1-4.7c-0.3-3.7-0.3-10.6-0.3-18.7V60h0.4l1,1.3c1.8,2.5,19,22.7,22.8,26.1c3.8,3.3,6.1,5.2,10.8,5.7
					c1.8,0.2,3.4,0.2,6,0.2h7.6c1.7,0,2.1-0.3,2.1-0.9c0-0.5-0.5-0.7-1.1-0.7c-1,0-2.8-0.3-5.4-1.3c-4.7-1.8-8.6-5.7-12.5-9.4
					c-3.4-3.2-20.5-21.6-23.6-25.7c3-3.1,16.1-16.2,18.8-18.8c3.7-3.7,6.7-5.5,9.4-6.5c1.7-0.6,3.8-1,5.1-1c0.9,0,1.3-0.2,1.3-0.8
					c0-0.6-0.6-0.8-1.5-0.8c-2.7,0-7.5,0.3-10.2,0.3c-2.3,0-7.1-0.3-9-0.3c-1,0-1.4,0.2-1.4,0.8c0,0.5,0.3,0.7,1.1,0.9
					c0.9,0.2,1.2,0.8,1.2,1.7c0,1.5-1.9,3.7-4.4,6.5c-2.5,3-15.3,15.9-18.2,19.2h-0.4V52.6"/>
				<path fill-rule="evenodd" clip-rule="evenodd" fill="#006F2E" d="M161.6,94c5.6,0,12.2-0.6,15.6-2c1.5-0.6,1.8-1,2.3-2.5
					c0.9-2.9,1.9-10.5,1.9-11.5c0-0.7-0.2-1.3-0.8-1.3c-0.7,0-0.9,0.3-1.1,1.7c-0.3,1.6-1.5,4.1-3,5.7c-3.5,4-8.2,4.9-15.9,4.9
					c-11.6,0-27.4-10.2-27.4-30.9c0-8.4,1.7-16.7,8-22.5c3.8-3.5,8.8-5.4,16.3-5.4c8,0,14.8,2.3,17.6,5.4c2.2,2.3,3.3,5.3,3.4,8
					c0,1.2,0.2,1.9,0.9,1.9c0.8,0,1-0.7,1-2c0.2-1.7,0.1-6.5,0.3-9.4c0.2-3,0.4-4.1,0.4-4.8c0-0.5-0.3-1-1.3-1
					c-2.6-0.3-5.4-1-8.7-1.5c-4-0.5-7.2-0.9-12.6-0.9c-12.9,0-21.2,3.5-27.5,9.2C122.8,42.8,121,53,121,58.9
					c0,8.4,2.3,18.2,10.8,25.6C139.7,91.4,149.7,94,161.6,94"/>
				<path fill-rule="evenodd" clip-rule="evenodd" fill="#006F2E" d="M230.2,67.6c0,8,0,14.9-0.4,18.5c-0.3,2.5-0.8,4.4-2.5,4.8
					c-0.8,0.2-1.8,0.4-3.1,0.4c-1,0-1.4,0.3-1.4,0.7c0,0.6,0.6,0.9,1.7,0.9c1.7,0,4-0.2,6-0.2c2.1-0.1,4-0.1,5-0.1
					c1.3,0,3.9,0.1,6.5,0.3c2.5,0.1,5,0.2,6.1,0.2c16,0,23.2-9.6,23.2-18.9c0-10.2-8.7-16.3-15.8-18.8c4.8-3.8,8.9-8.1,8.9-15.2
					c0-4.6-2.8-13-18.5-13c-3,0-6.3,0.3-10.6,0.3c-1.7,0-7.2-0.3-11.8-0.3c-1.3,0-1.9,0.2-1.9,0.8c0,0.6,0.5,0.8,1.5,0.8
					c1.2,0,2.7,0.1,3.4,0.3c2.9,0.6,3.6,2,3.7,5c0.2,2.8,0.2,5.2,0.2,18.4V67.6 M240.6,32.4c0-1,0.2-1.3,0.8-1.5
					c0.9-0.2,1.6-0.2,2.9-0.2c7.5,0,10.9,7.6,10.9,13.5c0,4.3-1.3,7.4-3.6,9.2c-1.5,1.3-3.4,1.6-6.3,1.6c-2,0-3.3-0.1-4.1-0.3
					c-0.4-0.1-0.6-0.3-0.6-1V32.4z M260.5,78.1c0,9-6.6,11.1-10.5,11.1c-2,0-4-0.1-6.3-1c-2.8-1.1-3-2.6-3-8.3V59.2
					c0-0.4,0.2-0.6,0.5-0.6c1.3,0,2.2,0,3.7,0.1c3.4,0.2,5.4,0.8,7.2,2.1C258.7,65.4,260.5,72.7,260.5,78.1z"/>
				<path fill-rule="evenodd" clip-rule="evenodd" fill="#006F2E" d="M196.9,67.6c0,8.4,0,15.3-0.4,18.9c-0.3,2.5-0.8,4-2.5,4.3
					c-0.8,0.2-1.8,0.4-3.1,0.4c-1,0-1.4,0.3-1.4,0.7c0,0.6,0.6,0.9,1.7,0.9c3.5,0,8.9-0.3,10.9-0.3c2.3,0,7.8,0.3,13.5,0.3
					c1,0,1.7-0.3,1.7-0.9c0-0.4-0.4-0.7-1.4-0.7c-1.3,0-3.2-0.2-4.4-0.4c-2.6-0.3-3.2-1.9-3.5-4.3c-0.4-3.7-0.4-10.6-0.4-19V52.4
					c0-13.2,0-15.6,0.2-18.4c0.2-3,0.9-4.5,3.2-4.9c1-0.2,1.7-0.3,2.6-0.3c0.9,0,1.4-0.2,1.4-0.9c0-0.5-0.7-0.7-1.8-0.7
					c-3.3,0-8.4,0.3-10.6,0.3c-2.5,0-8-0.3-11.3-0.3c-1.4,0-2.1,0.2-2.1,0.7c0,0.7,0.5,0.9,1.4,0.9c1,0,2.2,0.1,3.1,0.3
					c1.9,0.4,2.8,1.9,3,4.9c0.2,2.8,0.2,5.2,0.2,18.4V67.6"/>
			</g>
		</g>
	</g>
</g>
</svg>
