<?xml version="1.0" encoding="utf-8"?>
<svg version="1.1" id="Layer_1" xmlns="http://www.w3.org/2000/svg" xmlns:xlink="http://www.w3.org/1999/xlink" x="0px" y="0px" viewBox="0 0 184 23" enable-background="new 0 0 184 23" xml:space="preserve">
	<g id="Layer_2">
	   <g id="Layer_1-2">
		   <g>
			   <defs>
				   <rect id="SVGID_1_" y="0" width="184" height="23"/>
			   </defs>
			   <clipPath id="SVGID_2_">
				   <use xlink:href="#SVGID_1_"  overflow="visible"/>
			   </clipPath>
			   <g clip-path="url(#SVGID_2_)">
				   <path fill="#1E5A77" d="M4.4,9.6h13.7c1,0,2-1,2-2.7s-0.9-2.6-2-2.6H4.4V9.6z M4.4,18.7h15.3c1.2,0,2-1.2,2-2.7s-0.8-2.6-2-2.6
					   H4.4V18.7z M19.7,23H0V0h18.1c3.5,0,6.3,2.8,6.3,6.3c0,0.1,0,0.2,0,0.3c0.1,1.4-0.4,2.8-1.2,3.9c1.7,1.4,2.7,3.4,2.9,5.6
					   C26,19.9,23.3,23,19.7,23"/>
			   </g>
		   </g>
		   <g>
			   <defs>
				   <rect id="SVGID_3_" y="0" width="184" height="23"/>
			   </defs>
			   <clipPath id="SVGID_4_">
				   <use xlink:href="#SVGID_3_"  overflow="visible"/>
			   </clipPath>
			   <g clip-path="url(#SVGID_4_)">
				   <path fill="#1E5A77" d="M40.6,4.3c-3.2,0-6,3.4-6.1,7.2s2.8,7.2,6,7.2H47c3.2,0,6.1-3.4,6.1-7.2S50.3,4.3,47,4.3H40.6z
						M47.5,22.9h-7.2c-5.4,0-10.1-5.1-10.1-11.4S34.8,0,40.2,0h7.2c5.4,0,10.1,5.2,10.1,11.5S52.8,22.9,47.5,22.9"/>
			   </g>
		   </g>
		   <polygon fill="#1E5A77" points="179.6,0 179.6,15.7 160.7,0.1 160.6,0 158.5,0 158.5,22.9 162.9,22.9 162.9,7.6 181.5,22.9
			   184,22.9 184,0"/>
		   <g>
			   <defs>
				   <rect id="SVGID_5_" y="0" width="184" height="23"/>
			   </defs>
			   <clipPath id="SVGID_6_">
				   <use xlink:href="#SVGID_5_"  overflow="visible"/>
			   </clipPath>
			   <g clip-path="url(#SVGID_6_)">
				   <path fill="#1E5A77" d="M120.2,22.9h-16.6c-5.8,0-10.1-5.1-10.1-11.4S97.8,0,103.6,0h16.6v4.3h-16.4c-3.2,0-5.9,3.4-5.9,7.2
					   s2.6,7.2,5.9,7.2h12v-5.3h-8.9V9.6h13.3L120.2,22.9z"/>
			   </g>
		   </g>
		   <g>
			   <defs>
				   <rect id="SVGID_7_" y="0" width="184" height="23"/>
			   </defs>
			   <clipPath id="SVGID_8_">
				   <use xlink:href="#SVGID_7_"  overflow="visible"/>
			   </clipPath>
			   <g clip-path="url(#SVGID_8_)">
				   <path fill="#1E5A77" d="M142.2,23h-5.4c-5.4,0-9.7-5.1-9.7-11.5V0h4.4v11.5c0,3.8,2.2,7.2,5.5,7.2h5c3.2,0,5.5-3.4,5.5-7.2V0
					   h4.4v11.5C151.9,17.8,147.6,23,142.2,23"/>
			   </g>
		   </g>
		   <g>
			   <defs>
				   <rect id="SVGID_9_" y="0" width="184" height="23"/>
			   </defs>
			   <clipPath id="SVGID_10_">
				   <use xlink:href="#SVGID_9_"  overflow="visible"/>
			   </clipPath>
			   <g clip-path="url(#SVGID_10_)">
				   <path fill="#1E5A77" d="M67.6,9.6h14.6c1.2,0,2.2-0.8,2.2-2.6s-1-2.6-2.1-2.6H67.6V9.6z M87.6,23h-4.9l-4.3-9.5H67.6V23h-4.4
					   V0.1h19c3.3,0,6,3,6,6.9c0.2,3.1-2,5.9-5,6.5L87.6,23z"/>
			   </g>
		   </g>
	   </g>
	</g>
</svg>
