<?xml version="1.0" encoding="utf-8"?>
<!-- Generator: Adobe Illustrator 19.1.0, SVG Export Plug-In . SVG Version: 6.00 Build 0)  -->
<svg version="1.1" id="Ebene_1" xmlns="http://www.w3.org/2000/svg" xmlns:xlink="http://www.w3.org/1999/xlink" x="0px" y="0px"
	 viewBox="0 0 368 102" style="enable-background:new 0 0 368 102;" xml:space="preserve">
<style type="text/css">
	.st0{fill:#DE3919;}
</style>
<path class="st0" d="M93.7,14.6C101.2,5.7,112.4,0,124.9,0h28v20.4h-28c-6.3,0-11.9,2.8-15.6,7.3L59.2,87.5
	C51.7,96.4,40.5,102,28,102H0V81.6h28c6.3,0,11.9-2.8,15.6-7.3L93.7,14.6z"/>
<rect x="173.3" y="0" class="st0" width="21.4" height="102"/>
<path class="st0" d="M274.3,14.6l17.2,20.6l17.2-20.6C316.3,5.7,327.5,0,340.1,0h28v20.4h-28c-6.3,0-11.9,2.8-15.6,7.3L304.9,51
	l19.6,23.3c3.7,4.5,9.3,7.3,15.6,7.3h28V102h-28c-12.5,0-23.8-5.7-31.2-14.6l-17.2-20.6l-17.2,20.6c-7.5,8.9-18.7,14.6-31.2,14.6
	h-28V81.6h28c6.3,0,11.9-2.8,15.6-7.3L278.3,51l-19.6-23.3c-3.7-4.5-9.3-7.3-15.6-7.3h-28V0h28C255.6,0,266.8,5.7,274.3,14.6"/>
</svg>
