<?xml version="1.0" encoding="UTF-8"?>
<svg width="185px" height="129px" viewBox="0 0 185 129" version="1.1" xmlns="http://www.w3.org/2000/svg" xmlns:xlink="http://www.w3.org/1999/xlink">
    <!-- Generator: Sketch 47.1 (45422) - http://www.bohemiancoding.com/sketch -->
    <title>diners</title>
    <desc>Created with Sketch.</desc>
    <defs></defs>
    <g id="Page-1" stroke="none" stroke-width="1" fill="none" fill-rule="evenodd">
        <g id="diners" fill-rule="nonzero">
            <g id="Group" transform="translate(0.000000, 74.000000)" fill="#000000">
                <path d="M7.948,26.058 C7.948,29.052 10.087,29.4 11.991,29.4 C20.387,29.4 23.143,23.066 23.143,17.277 C23.143,10.009 18.48,4.763 10.981,4.763 C9.383,4.763 8.649,4.877 7.948,4.919 L7.948,26.058 Z M4.138,7.83 C4.138,4.337 2.313,4.565 0.566,4.53 L0.566,3.52 C2.081,3.593 3.634,3.593 5.151,3.593 C6.783,3.593 8.998,3.52 11.875,3.52 C21.938,3.52 27.419,10.24 27.419,17.123 C27.419,20.972 25.166,30.645 11.407,30.645 C9.427,30.645 7.598,30.571 5.773,30.571 C4.025,30.571 2.313,30.606 0.565,30.645 L0.565,29.634 C2.895,29.4 4.025,29.322 4.137,26.681 L4.137,7.83 L4.138,7.83 Z" id="Shape"></path>
                <path d="M32.939,6.9 C31.926,6.9 31.035,5.966 31.035,4.957 C31.035,3.985 31.969,3.087 32.939,3.087 C33.948,3.087 34.844,3.907 34.844,4.957 C34.845,6.008 33.988,6.9 32.939,6.9 L32.939,6.9 Z M28.782,29.634 L29.519,29.634 C30.606,29.634 31.385,29.634 31.385,28.35 L31.385,17.82 C31.385,16.113 30.802,15.874 29.364,15.102 L29.364,14.481 C31.19,13.931 33.367,13.197 33.521,13.083 C33.794,12.926 34.024,12.884 34.222,12.884 C34.412,12.884 34.493,13.118 34.493,13.433 L34.493,28.351 C34.493,29.635 35.349,29.635 36.439,29.635 L37.096,29.635 L37.096,30.646 C35.774,30.646 34.412,30.572 33.018,30.572 C31.618,30.572 30.219,30.607 28.782,30.646 L28.782,29.634 L28.782,29.634 Z" id="Shape"></path>
                <path d="M40.791,18.052 C40.791,16.616 40.361,16.228 38.538,15.49 L38.538,14.753 C40.206,14.206 41.798,13.7 43.666,12.883 C43.783,12.883 43.896,12.96 43.896,13.272 L43.896,15.799 C46.115,14.206 48.021,12.883 50.627,12.883 C53.926,12.883 55.09,15.293 55.09,18.324 L55.09,28.349 C55.09,29.633 55.948,29.633 57.035,29.633 L57.735,29.633 L57.735,30.644 C56.37,30.644 55.012,30.57 53.614,30.57 C52.215,30.57 50.814,30.605 49.414,30.644 L49.414,29.633 L50.116,29.633 C51.205,29.633 51.979,29.633 51.979,28.349 L51.979,18.288 C51.979,16.07 50.625,14.982 48.407,14.982 C47.163,14.982 45.181,15.99 43.894,16.848 L43.894,28.348 C43.894,29.632 44.753,29.632 45.843,29.632 L46.54,29.632 L46.54,30.643 C45.181,30.643 43.822,30.569 42.418,30.569 C41.022,30.569 39.622,30.604 38.224,30.643 L38.224,29.632 L38.925,29.632 C40.011,29.632 40.789,29.632 40.789,28.348 L40.789,18.052 L40.791,18.052 Z" id="Shape"></path>
                <path d="M67.571,18.676 C68.541,18.676 68.655,18.169 68.655,17.701 C68.655,15.722 67.451,14.13 65.273,14.13 C62.905,14.13 61.273,15.873 60.806,18.676 L67.571,18.676 L67.571,18.676 Z M60.69,19.92 C60.611,20.269 60.611,20.853 60.69,22.176 C60.919,25.866 63.294,28.897 66.4,28.897 C68.541,28.897 70.213,27.73 71.648,26.293 L72.191,26.839 C70.401,29.209 68.189,31.232 65.004,31.232 C58.823,31.232 57.579,25.242 57.579,22.756 C57.579,15.139 62.708,12.883 65.425,12.883 C68.576,12.883 71.96,14.863 71.996,18.986 C71.996,19.221 71.996,19.454 71.959,19.687 L71.607,19.92 L60.69,19.92 Z" id="Shape"></path>
                <path d="M72.894,29.634 L73.943,29.634 C75.027,29.634 75.805,29.634 75.805,28.35 L75.805,17.433 C75.805,16.228 74.368,15.992 73.784,15.681 L73.784,15.102 C76.621,13.895 78.177,12.883 78.531,12.883 C78.759,12.883 78.876,12.999 78.876,13.391 L78.876,16.888 L78.958,16.888 C79.927,15.372 81.562,12.883 83.931,12.883 C84.902,12.883 86.145,13.543 86.145,14.944 C86.145,15.992 85.409,16.928 84.322,16.928 C83.113,16.928 83.113,15.991 81.752,15.991 C81.091,15.991 78.916,16.887 78.916,19.22 L78.916,28.349 C78.916,29.633 79.693,29.633 80.781,29.633 L82.956,29.633 L82.956,30.644 C80.818,30.605 79.19,30.57 77.518,30.57 C75.925,30.57 74.29,30.605 72.893,30.644 L72.893,29.634 L72.894,29.634 Z" id="Shape"></path>
                <path d="M87.853,25.241 C88.361,27.806 89.912,29.984 92.753,29.984 C95.043,29.984 95.896,28.585 95.896,27.227 C95.896,22.637 87.428,24.116 87.428,17.859 C87.428,15.68 89.177,12.883 93.454,12.883 C94.693,12.883 96.365,13.236 97.878,14.012 L98.152,17.974 L97.257,17.974 C96.868,15.526 95.512,14.129 93.021,14.129 C91.467,14.129 89.992,15.021 89.992,16.691 C89.992,21.241 99.007,19.84 99.007,25.94 C99.007,28.506 96.949,31.23 92.322,31.23 C90.769,31.23 88.94,30.682 87.584,29.907 L87.155,25.436 L87.853,25.241 Z" id="Shape"></path>
                <path d="M134.1,10.552 L133.13,10.552 C132.392,6.008 129.164,4.18 124.814,4.18 C120.34,4.18 113.852,7.17 113.852,16.496 C113.852,24.35 119.452,29.984 125.433,29.984 C129.278,29.984 132.472,27.341 133.248,23.257 L134.142,23.491 L133.248,29.167 C131.615,30.178 127.223,31.23 124.655,31.23 C115.564,31.23 109.812,25.36 109.812,16.615 C109.812,8.646 116.924,2.931 124.542,2.931 C127.689,2.931 130.72,3.945 133.712,4.994 L134.1,10.552 Z" id="Shape"></path>
                <path d="M135.501,29.634 L136.237,29.634 C137.33,29.634 138.106,29.634 138.106,28.35 L138.106,6.709 C138.106,4.18 137.522,4.102 136.044,3.676 L136.044,3.053 C137.599,2.548 139.231,1.85 140.05,1.379 C140.473,1.15 140.788,0.953 140.899,0.953 C141.14,0.953 141.214,1.187 141.214,1.499 L141.214,28.35 C141.214,29.634 142.07,29.634 143.159,29.634 L143.816,29.634 L143.816,30.645 C142.499,30.645 141.139,30.571 139.737,30.571 C138.34,30.571 136.942,30.606 135.501,30.645 L135.501,29.634 L135.501,29.634 Z" id="Shape"></path>
                <path d="M160.454,28.508 C160.454,29.209 160.879,29.245 161.538,29.245 C162.009,29.245 162.588,29.209 163.096,29.209 L163.096,30.025 C161.423,30.179 158.238,30.995 157.497,31.231 L157.304,31.111 L157.304,27.962 C154.975,29.868 153.184,31.232 150.42,31.232 C148.323,31.232 146.149,29.869 146.149,26.607 L146.149,16.656 C146.149,15.643 145.994,14.671 143.821,14.481 L143.821,13.741 C145.221,13.702 148.323,13.47 148.83,13.47 C149.262,13.47 149.262,13.741 149.262,14.596 L149.262,24.619 C149.262,25.787 149.262,29.127 152.642,29.127 C153.961,29.127 155.709,28.118 157.34,26.762 L157.34,16.304 C157.34,15.527 155.477,15.102 154.079,14.712 L154.079,14.014 C157.575,13.779 159.752,13.47 160.141,13.47 C160.453,13.47 160.453,13.741 160.453,14.168 L160.453,28.508 L160.454,28.508 Z" id="Shape"></path>
                <path d="M168.186,26.252 C168.186,27.73 169.586,30.219 172.189,30.219 C176.347,30.219 178.096,26.137 178.096,22.677 C178.096,18.481 174.912,14.984 171.88,14.984 C170.438,14.984 169.235,15.918 168.186,16.813 L168.186,26.252 L168.186,26.252 Z M168.186,15.681 C169.741,14.363 171.838,12.883 173.977,12.883 C178.487,12.883 181.206,16.813 181.206,21.047 C181.206,26.137 177.474,31.232 171.914,31.232 C169.042,31.232 167.525,30.294 166.513,29.869 L165.352,30.763 L164.537,30.335 C164.884,28.044 165.08,25.788 165.08,23.417 L165.08,6.709 C165.08,4.18 164.495,4.102 163.018,3.676 L163.018,3.053 C164.574,2.548 166.205,1.85 167.02,1.379 C167.448,1.15 167.758,0.953 167.877,0.953 C168.106,0.953 168.186,1.188 168.186,1.499 L168.186,15.681 Z" id="Shape"></path>
                <path d="M0.522,53.243 L0.819,53.243 C1.579,53.243 2.383,53.139 2.383,52.038 L2.383,40.96 C2.383,39.856 1.578,39.753 0.819,39.753 L0.522,39.753 L0.522,39.117 C1.347,39.117 2.616,39.201 3.655,39.201 C4.711,39.201 5.978,39.117 6.973,39.117 L6.973,39.753 L6.674,39.753 C5.917,39.753 5.112,39.857 5.112,40.96 L5.112,52.038 C5.112,53.139 5.917,53.243 6.674,53.243 L6.973,53.243 L6.973,53.878 C5.958,53.878 4.686,53.797 3.633,53.797 C2.594,53.797 1.346,53.878 0.522,53.878 L0.522,53.243 L0.522,53.243 Z" id="Shape"></path>
                <path d="M6.882,53.787 L6.883,53.338 L6.678,53.338 C5.922,53.338 5.024,53.206 5.019,52.038 L5.019,40.96 C5.024,39.789 5.922,39.659 6.678,39.659 L6.882,39.659 L6.882,39.208 C5.906,39.209 4.68,39.293 3.656,39.293 C2.651,39.293 1.435,39.213 0.615,39.208 L0.615,39.659 L0.819,39.659 C1.572,39.659 2.473,39.789 2.473,40.96 L2.473,52.038 C2.473,53.206 1.572,53.338 0.819,53.338 L0.615,53.338 L0.615,53.787 C1.434,53.78 2.629,53.702 3.632,53.702 C4.662,53.702 5.884,53.781 6.882,53.787 L6.882,53.787 Z M6.974,53.969 C5.951,53.969 4.685,53.885 3.633,53.885 C2.598,53.885 1.354,53.969 0.523,53.969 L0.432,53.969 L0.432,53.878 L0.432,53.244 L0.432,53.151 L0.523,53.151 L0.819,53.151 C1.587,53.132 2.283,53.072 2.291,52.038 L2.291,40.96 C2.284,39.925 1.587,39.856 0.819,39.845 L0.431,39.845 L0.431,39.752 L0.431,39.024 L0.522,39.024 C1.353,39.024 2.621,39.107 3.655,39.107 C4.706,39.107 5.972,39.024 6.973,39.024 L7.067,39.024 L7.067,39.119 L7.067,39.845 L6.973,39.845 L6.677,39.845 C5.909,39.857 5.207,39.925 5.203,40.96 L5.203,52.038 C5.207,53.072 5.909,53.133 6.677,53.151 L7.067,53.151 L7.067,53.244 L7.067,53.969 L6.974,53.969 L6.974,53.969 Z" id="Shape"></path>
                <path d="M21.501,49.71 L21.543,49.668 L21.543,41.74 C21.543,40.004 20.335,39.752 19.702,39.752 L19.236,39.752 L19.236,39.117 C20.232,39.117 21.204,39.201 22.196,39.201 C23.063,39.201 23.935,39.117 24.797,39.117 L24.797,39.752 L24.484,39.752 C23.593,39.752 22.599,39.921 22.599,42.439 L22.599,52.06 C22.599,52.8 22.62,53.539 22.724,54.196 L21.92,54.196 L11.031,42.055 L11.031,50.769 C11.031,52.612 11.389,53.244 13.017,53.244 L13.377,53.244 L13.377,53.879 C12.468,53.879 11.56,53.797 10.65,53.797 C9.7,53.797 8.727,53.879 7.774,53.879 L7.774,53.244 L8.07,53.244 C9.529,53.244 9.972,52.249 9.972,50.563 L9.972,41.653 C9.972,40.469 8.997,39.753 8.05,39.753 L7.774,39.753 L7.774,39.118 C8.576,39.118 9.401,39.202 10.204,39.202 C10.841,39.202 11.454,39.118 12.087,39.118 L21.501,49.71 Z" id="Shape"></path>
                <path d="M21.451,49.668 L21.451,49.66 L21.433,49.647 L21.451,49.668 Z M21.501,49.71 L21.568,49.649 L21.501,49.71 Z M21.921,54.101 L22.62,54.101 C22.526,53.465 22.509,52.763 22.509,52.06 L22.509,42.439 C22.509,39.9 23.572,39.66 24.484,39.658 L24.707,39.658 L24.707,39.209 C23.873,39.214 23.039,39.293 22.198,39.293 C21.229,39.293 20.288,39.214 19.332,39.209 L19.33,39.658 L19.704,39.658 C20.354,39.66 21.635,39.95 21.635,41.741 L21.607,49.736 L21.565,49.778 L21.492,49.844 L12.088,39.208 C11.46,39.208 10.848,39.292 10.203,39.292 C9.428,39.292 8.634,39.213 7.867,39.208 L7.863,39.657 L8.051,39.657 C9.043,39.659 10.063,40.418 10.063,41.654 L10.063,50.561 C10.063,52.252 9.592,53.334 8.071,53.339 L7.866,53.334 L7.866,53.786 C8.783,53.779 9.726,53.701 10.65,53.701 C11.532,53.701 12.412,53.779 13.285,53.786 L13.285,53.339 L13.017,53.339 C11.353,53.334 10.941,52.609 10.939,50.768 L10.939,41.819 L21.921,54.101 Z M22.724,54.283 L21.853,54.256 L11.122,42.294 L11.122,50.769 C11.148,52.61 11.427,53.131 13.018,53.152 L13.471,53.152 L13.471,53.244 L13.471,53.97 L13.378,53.97 C12.463,53.97 11.553,53.886 10.651,53.886 C9.704,53.886 8.733,53.97 7.775,53.97 L7.682,53.97 L7.682,53.879 L7.682,53.152 L7.775,53.152 L8.072,53.152 C9.469,53.142 9.869,52.246 9.884,50.562 L9.884,41.655 C9.881,40.529 8.957,39.845 8.052,39.845 L7.681,39.845 L7.681,39.747 L7.681,39.024 L7.774,39.024 C8.582,39.024 9.41,39.107 10.203,39.107 C10.834,39.107 11.445,39.024 12.159,39.057 L21.452,49.518 L21.452,41.74 C21.442,40.062 20.319,39.856 19.704,39.844 L19.144,39.844 L19.144,39.746 L19.144,39.023 L19.237,39.023 C20.236,39.023 21.21,39.106 22.198,39.106 C23.058,39.106 23.925,39.023 24.799,39.023 L24.892,39.023 L24.892,39.116 L24.892,39.844 L24.799,39.844 L24.485,39.844 C23.611,39.865 22.716,39.942 22.69,42.438 L22.69,52.059 C22.69,52.798 22.714,53.536 22.815,54.178 L22.834,54.282 L22.724,54.282 L22.724,54.283 Z" id="Shape"></path>
                <path d="M27.967,40.175 C26.379,40.175 26.318,40.556 26,42.098 L25.366,42.098 C25.449,41.507 25.554,40.915 25.619,40.303 C25.704,39.708 25.746,39.117 25.746,38.506 L26.253,38.506 C26.423,39.142 26.952,39.117 27.525,39.117 L38.432,39.117 C39.006,39.117 39.534,39.096 39.578,38.461 L40.082,38.548 C40,39.117 39.914,39.689 39.853,40.26 C39.811,40.832 39.811,41.402 39.811,41.972 L39.174,42.206 C39.131,41.427 39.027,40.175 37.611,40.175 L34.142,40.175 L34.142,51.425 C34.142,53.055 34.883,53.243 35.896,53.243 L36.3,53.243 L36.3,53.878 C35.476,53.878 33.994,53.797 32.854,53.797 C31.584,53.797 30.102,53.878 29.277,53.878 L29.277,53.243 L29.68,53.243 C30.846,53.243 31.434,53.139 31.434,51.468 L31.434,40.175 L27.967,40.175 L27.967,40.175 Z" id="Shape"></path>
                <path d="M36.302,53.969 C35.469,53.969 33.99,53.885 32.854,53.885 C31.585,53.885 30.107,53.969 29.277,53.969 L29.187,53.969 L29.187,53.878 L29.187,53.151 L29.277,53.151 L29.68,53.151 C30.846,53.123 31.313,53.108 31.341,51.467 L31.341,40.264 L27.966,40.264 L27.966,40.174 L27.966,40.079 L31.524,40.079 L31.524,51.467 C31.524,53.165 30.839,53.337 29.68,53.339 L29.367,53.339 L29.367,53.784 C30.201,53.779 31.627,53.701 32.854,53.701 C33.956,53.701 35.368,53.779 36.206,53.784 L36.206,53.339 L35.897,53.339 C34.875,53.337 34.051,53.085 34.051,51.424 L34.051,40.08 L37.611,40.08 C39.029,40.085 39.217,41.292 39.261,42.077 L39.719,41.91 C39.719,41.356 39.721,40.805 39.759,40.247 C39.822,39.701 39.898,39.164 39.978,38.621 L39.657,38.57 C39.559,39.185 38.963,39.216 38.432,39.209 L27.526,39.209 L27.416,39.209 C26.918,39.209 26.376,39.188 26.187,38.595 L25.837,38.595 C25.834,39.181 25.793,39.747 25.713,40.31 C25.65,40.893 25.553,41.451 25.476,42.011 L25.927,42.011 C26.206,40.534 26.386,40.06 27.967,40.08 L27.967,40.175 L27.967,40.265 C26.401,40.295 26.434,40.557 26.091,42.12 L26.075,42.192 L26,42.192 L25.26,42.192 L25.271,42.084 C25.357,41.492 25.464,40.9 25.526,40.286 C25.614,39.697 25.654,39.111 25.654,38.506 L25.654,38.412 L25.745,38.412 L26.325,38.412 L26.341,38.479 C26.485,39.011 26.875,39.014 27.415,39.024 L27.525,39.024 L38.431,39.024 C39.02,39.014 39.45,39.008 39.485,38.454 L39.493,38.353 L39.588,38.373 L40.185,38.467 L40.17,38.562 C40.086,39.128 40.004,39.698 39.941,40.265 C39.9,40.832 39.9,41.401 39.9,41.972 L39.9,42.036 L39.838,42.06 L39.09,42.332 L39.084,42.211 C39.027,41.414 38.944,40.264 37.608,40.264 L34.232,40.264 L34.232,51.424 C34.253,53.019 34.886,53.13 35.894,53.151 L36.389,53.151 L36.389,53.243 L36.389,53.969 L36.302,53.969 Z" id="Shape"></path>
                <path d="M40.758,53.243 L41.056,53.243 C41.815,53.243 42.621,53.139 42.621,52.038 L42.621,40.96 C42.621,39.856 41.815,39.753 41.056,39.753 L40.758,39.753 L40.758,39.117 C42.044,39.117 44.249,39.201 46.021,39.201 C47.801,39.201 49.997,39.117 51.435,39.117 C51.398,40.025 51.417,41.427 51.48,42.353 L50.843,42.522 C50.741,41.145 50.488,40.048 48.266,40.048 L45.33,40.048 L45.33,45.585 L47.844,45.585 C49.111,45.585 49.388,44.87 49.513,43.727 L50.147,43.727 C50.105,44.552 50.084,45.378 50.084,46.201 C50.084,47.009 50.105,47.809 50.147,48.612 L49.513,48.739 C49.388,47.471 49.324,46.647 47.865,46.647 L45.33,46.647 L45.33,51.572 C45.33,52.947 46.553,52.947 47.907,52.947 C50.444,52.947 51.564,52.777 52.2,50.37 L52.789,50.515 C52.514,51.639 52.262,52.756 52.073,53.878 C50.718,53.878 48.286,53.797 46.387,53.797 C44.48,53.797 41.965,53.878 40.758,53.878 L40.758,53.243 Z" id="Shape"></path>
                <path d="M51.994,53.785 C52.179,52.718 52.419,51.647 52.679,50.585 L52.263,50.481 C51.63,52.845 50.403,53.055 47.907,53.041 C46.574,53.041 45.241,53.041 45.235,51.573 L45.235,46.554 L47.864,46.554 C49.341,46.54 49.49,47.428 49.596,48.634 L50.053,48.54 C50.011,47.759 49.99,46.977 49.99,46.201 C49.99,45.406 50.011,44.615 50.053,43.817 L49.596,43.817 C49.477,44.921 49.131,45.692 47.844,45.679 L45.236,45.679 L45.236,39.954 L48.268,39.954 C50.468,39.936 50.832,41.076 50.927,42.405 L51.383,42.28 C51.346,41.685 51.321,40.918 51.321,40.212 C51.321,39.849 51.33,39.507 51.342,39.207 C49.905,39.212 47.76,39.291 46.022,39.291 C44.286,39.291 42.145,39.212 40.851,39.207 L40.851,39.656 L41.056,39.656 C41.809,39.658 42.708,39.788 42.713,40.959 L42.713,52.037 C42.708,53.205 41.809,53.334 41.056,53.339 L40.851,53.339 L40.851,53.784 C42.082,53.78 44.527,53.701 46.384,53.701 C48.25,53.702 50.63,53.781 51.994,53.785 L51.994,53.785 Z M52.072,53.969 C50.714,53.969 48.282,53.881 46.383,53.881 C44.479,53.881 41.966,53.969 40.758,53.969 L40.669,53.969 L40.669,53.878 L40.669,53.243 L40.669,53.151 L40.758,53.151 L41.056,53.151 C41.821,53.138 42.518,53.072 42.528,52.038 L42.528,40.96 C42.518,39.927 41.821,39.856 41.056,39.845 L40.669,39.845 L40.669,39.752 L40.669,39.024 L40.758,39.024 C42.051,39.024 44.25,39.107 46.022,39.107 C47.801,39.107 49.997,39.024 51.436,39.024 L51.529,39.024 L51.526,39.121 C51.513,39.439 51.504,39.814 51.504,40.213 C51.504,40.945 51.526,41.744 51.568,42.348 L51.571,42.421 L51.5,42.443 L50.756,42.637 L50.754,42.528 C50.629,41.158 50.444,40.158 48.267,40.137 L45.416,40.137 L45.415,45.493 L47.843,45.493 C49.061,45.48 49.279,44.857 49.424,43.716 L49.429,43.632 L49.513,43.632 L50.242,43.632 L50.241,43.73 C50.2,44.555 50.176,45.378 50.176,46.201 C50.176,47.003 50.2,47.805 50.241,48.608 L50.242,48.683 L50.165,48.702 L49.429,48.849 L49.424,48.747 C49.277,47.457 49.268,46.749 47.864,46.734 L45.417,46.734 L45.417,51.571 C45.42,52.855 46.529,52.849 47.907,52.855 C50.452,52.84 51.473,52.716 52.11,50.344 L52.132,50.259 L52.221,50.272 L52.899,50.449 L52.879,50.535 C52.604,51.655 52.352,52.773 52.162,53.89 L52.145,53.967 L52.072,53.967 L52.072,53.969 Z" id="Shape"></path>
                <path d="M58.352,46.263 L59.385,46.263 C61.501,46.263 62.641,45.461 62.641,42.965 C62.641,41.083 61.435,39.879 59.552,39.879 C58.918,39.879 58.646,39.942 58.351,39.962 L58.351,46.263 L58.352,46.263 Z M55.646,41.356 C55.646,39.814 54.799,39.752 54.143,39.752 L53.76,39.752 L53.76,39.117 C54.437,39.117 55.748,39.201 57.04,39.201 C58.306,39.201 59.323,39.117 60.444,39.117 C63.104,39.117 65.478,39.835 65.478,42.839 C65.478,44.742 64.208,45.904 62.539,46.564 L66.153,51.975 C66.746,52.868 67.166,53.12 68.204,53.244 L68.204,53.879 C67.506,53.879 66.83,53.798 66.133,53.798 C65.478,53.798 64.798,53.879 64.147,53.879 C62.516,51.745 61.119,49.461 59.746,47.025 L58.353,47.025 L58.353,51.554 C58.353,53.181 59.112,53.243 60.082,53.243 L60.465,53.243 L60.465,53.878 C59.257,53.878 58.035,53.797 56.827,53.797 C55.812,53.797 54.819,53.878 53.761,53.878 L53.761,53.243 L54.143,53.243 C54.929,53.243 55.646,52.885 55.646,52.104 L55.646,41.356 L55.646,41.356 Z" id="Shape"></path>
                <path d="M59.385,46.175 C61.479,46.153 62.533,45.427 62.554,42.97 C62.542,41.122 61.394,39.978 59.553,39.968 C58.983,39.968 58.712,40.022 58.443,40.046 L58.443,46.175 L59.385,46.175 Z M58.351,46.353 L58.258,46.353 L58.258,39.879 L58.338,39.87 C58.628,39.849 58.914,39.789 59.553,39.789 C61.479,39.789 62.732,41.041 62.734,42.97 C62.73,45.494 61.519,46.352 59.386,46.353 L58.351,46.353 Z M58.351,46.933 L59.797,46.933 L59.821,46.981 C61.198,49.41 62.588,51.693 64.146,53.788 C64.789,53.788 65.468,53.703 66.127,53.703 C66.801,53.703 67.455,53.778 68.112,53.786 L68.112,53.321 C67.121,53.202 66.655,52.902 66.078,52.025 L62.396,46.522 L62.5,46.48 C64.156,45.826 65.383,44.697 65.384,42.837 C65.383,39.903 63.101,39.223 60.444,39.208 C59.33,39.208 58.313,39.293 57.04,39.293 C55.798,39.293 54.543,39.213 53.851,39.208 L53.851,39.657 L54.142,39.657 C54.798,39.659 55.733,39.768 55.733,41.356 L55.733,52.104 C55.733,52.952 54.937,53.337 54.142,53.339 L53.851,53.339 L53.851,53.784 C54.867,53.78 55.832,53.701 56.826,53.701 C58.007,53.701 59.201,53.78 60.37,53.784 L60.37,53.339 L60.081,53.339 C59.118,53.337 58.257,53.218 58.257,51.548 L58.257,46.932 L58.351,46.932 L58.351,46.933 Z M68.204,53.969 C67.496,53.969 66.823,53.885 66.128,53.885 C65.483,53.885 64.809,53.969 64.071,53.932 C62.447,51.804 61.058,49.534 59.692,47.12 L58.443,47.12 L58.443,51.549 C58.466,53.141 59.104,53.129 60.082,53.152 L60.556,53.152 L60.556,53.244 L60.556,53.97 L60.462,53.97 C59.254,53.97 58.025,53.886 56.826,53.886 C55.816,53.886 54.822,53.97 53.761,53.97 L53.669,53.97 L53.669,53.879 L53.669,53.152 L53.761,53.152 L54.143,53.152 C54.904,53.145 55.547,52.815 55.549,52.105 L55.549,41.357 C55.534,39.857 54.799,39.866 54.143,39.845 L53.669,39.845 L53.669,39.753 L53.669,39.024 L53.761,39.024 C54.446,39.024 55.751,39.107 57.041,39.107 C58.304,39.107 59.317,39.024 60.445,39.024 C63.11,39.03 65.564,39.764 65.57,42.836 C65.57,44.744 64.309,45.936 62.678,46.603 L66.228,51.922 C66.82,52.799 67.189,53.019 68.217,53.151 L68.293,53.163 L68.293,53.243 L68.293,53.969 L68.204,53.969 Z" id="Shape"></path>
                <path d="M82.562,49.71 L82.599,49.668 L82.599,41.74 C82.599,40.004 81.398,39.752 80.762,39.752 L80.3,39.752 L80.3,39.117 C81.294,39.117 82.263,39.201 83.258,39.201 C84.128,39.201 84.989,39.117 85.861,39.117 L85.861,39.752 L85.543,39.752 C84.655,39.752 83.662,39.921 83.662,42.439 L83.662,52.06 C83.662,52.8 83.683,53.539 83.787,54.196 L82.987,54.196 L72.097,42.055 L72.097,50.769 C72.097,52.612 72.455,53.244 74.082,53.244 L74.442,53.244 L74.442,53.879 C73.533,53.879 72.622,53.797 71.714,53.797 C70.758,53.797 69.787,53.879 68.837,53.879 L68.837,53.244 L69.13,53.244 C70.589,53.244 71.037,52.249 71.037,50.563 L71.037,41.653 C71.037,40.469 70.063,39.753 69.113,39.753 L68.837,39.753 L68.837,39.118 C69.637,39.118 70.468,39.202 71.271,39.202 C71.899,39.202 72.515,39.118 73.151,39.118 L82.562,49.71 Z" id="Shape"></path>
                <path d="M82.508,49.668 L82.508,49.663 L82.494,49.647 L82.508,49.668 Z M82.56,49.71 L82.629,49.649 L82.56,49.71 Z M82.985,54.101 L83.677,54.101 C83.584,53.47 83.565,52.763 83.565,52.06 L83.565,42.439 C83.566,39.9 84.637,39.666 85.542,39.658 L85.765,39.658 L85.765,39.209 C84.932,39.214 84.098,39.293 83.257,39.293 C82.287,39.293 81.343,39.214 80.387,39.209 L80.387,39.658 L80.761,39.658 C81.413,39.666 82.695,39.95 82.695,41.741 L82.664,49.736 L82.626,49.778 L82.561,49.845 L73.151,39.208 C72.522,39.208 71.908,39.292 71.27,39.292 C70.486,39.292 69.696,39.213 68.927,39.208 L68.927,39.657 L69.114,39.657 C70.108,39.665 71.126,40.415 71.126,41.652 L71.126,50.555 C71.126,52.252 70.647,53.334 69.131,53.339 L68.927,53.337 L68.927,53.785 C69.84,53.779 70.783,53.701 71.71,53.701 C72.597,53.701 73.476,53.779 74.351,53.785 L74.351,53.339 L74.082,53.339 C72.418,53.337 72.003,52.61 71.999,50.767 L71.999,41.823 L82.985,54.101 Z M83.786,54.283 L82.917,54.256 L72.183,42.294 L72.183,50.768 C72.208,52.612 72.487,53.131 74.082,53.152 L74.53,53.152 L74.53,53.244 L74.53,53.97 L74.438,53.97 C73.523,53.97 72.617,53.882 71.71,53.882 C70.766,53.882 69.788,53.97 68.836,53.97 L68.742,53.97 L68.742,53.879 L68.742,53.152 L68.836,53.152 L69.13,53.152 C70.527,53.145 70.927,52.246 70.941,50.556 L70.941,41.653 C70.939,40.525 70.016,39.845 69.113,39.845 L68.741,39.845 L68.741,39.752 L68.741,39.024 L68.835,39.024 C69.643,39.024 70.47,39.107 71.269,39.107 C71.891,39.107 72.502,39.024 73.212,39.052 L82.507,49.518 L82.507,41.74 C82.502,40.062 81.375,39.852 80.76,39.844 L80.202,39.844 L80.202,39.751 L80.202,39.023 L80.294,39.023 C81.293,39.023 82.268,39.106 83.256,39.106 C84.118,39.106 84.984,39.023 85.857,39.023 L85.949,39.023 L85.949,39.118 L85.949,39.844 L85.857,39.844 L85.541,39.844 C84.67,39.865 83.77,39.942 83.749,42.438 L83.749,52.059 C83.749,52.798 83.769,53.532 83.876,54.18 L83.887,54.283 L83.786,54.283 Z" id="Shape"></path>
                <path d="M92.349,41.486 L92.305,41.486 L90.341,47.471 L94.293,47.471 L92.349,41.486 Z M89.262,50.854 C89.048,51.572 88.792,52.125 88.792,52.502 C88.792,53.138 89.683,53.243 90.379,53.243 L90.615,53.243 L90.615,53.877 C89.766,53.831 88.902,53.796 88.052,53.796 C87.291,53.796 86.532,53.831 85.771,53.877 L85.771,53.243 L85.899,53.243 C86.722,53.243 87.422,52.755 87.736,51.865 L91.12,42.163 C91.396,41.38 91.777,40.323 91.905,39.539 C92.578,39.307 93.428,38.886 93.828,38.629 C93.895,38.608 93.933,38.586 93.998,38.586 C94.061,38.586 94.099,38.586 94.145,38.653 C94.207,38.818 94.269,39.01 94.336,39.179 L98.227,50.239 C98.483,50.979 98.734,51.76 99.004,52.397 C99.261,52.991 99.705,53.243 100.405,53.243 L100.532,53.243 L100.532,53.877 C99.58,53.831 98.625,53.796 97.614,53.796 C96.579,53.796 95.519,53.831 94.44,53.877 L94.44,53.243 L94.672,53.243 C95.154,53.243 95.984,53.159 95.984,52.63 C95.984,52.357 95.794,51.785 95.559,51.106 L94.733,48.654 L89.934,48.654 L89.262,50.854 Z" id="Shape"></path>
                <path d="M92.256,41.515 L92.306,41.496 L92.256,41.515 Z M90.463,47.378 L94.166,47.378 L92.326,41.711 L90.463,47.378 Z M90.21,47.561 L92.234,41.392 L92.305,41.392 L92.348,41.392 L92.348,41.487 L92.326,41.493 L92.348,41.487 L92.348,41.392 L92.411,41.392 L94.422,47.561 L90.21,47.561 Z M94.533,53.78 C95.58,53.743 96.605,53.702 97.615,53.702 C98.598,53.702 99.52,53.743 100.439,53.78 L100.439,53.338 L100.406,53.338 C99.68,53.342 99.183,53.057 98.924,52.434 C98.648,51.796 98.392,51.01 98.141,50.269 L94.248,39.209 C94.183,39.039 94.124,38.852 94.07,38.702 C94.048,38.68 94.05,38.68 94.036,38.68 L93.996,38.68 C93.954,38.68 93.928,38.693 93.874,38.706 C93.467,38.971 92.619,39.386 91.991,39.553 C91.862,40.353 91.481,41.409 91.205,42.194 L87.823,51.898 C87.5,52.817 86.758,53.34 85.9,53.338 L85.863,53.338 L85.863,53.78 C86.589,53.743 87.321,53.702 88.055,53.702 C88.872,53.702 89.707,53.743 90.516,53.78 L90.516,53.338 L90.379,53.338 C89.689,53.327 88.726,53.253 88.702,52.504 C88.703,52.084 88.963,51.543 89.171,50.829 L89.261,50.854 L89.171,50.826 L89.867,48.566 L94.797,48.566 L95.646,51.076 C95.882,51.758 96.075,52.322 96.075,52.631 C96.046,53.277 95.153,53.326 94.675,53.338 L94.534,53.338 L94.534,53.78 L94.533,53.78 Z M100.527,53.969 C99.577,53.928 98.622,53.881 97.615,53.881 C96.58,53.881 95.525,53.928 94.445,53.969 L94.347,53.974 L94.347,53.878 L94.347,53.147 L94.441,53.147 L94.673,53.147 C95.164,53.147 95.891,53.037 95.892,52.631 C95.896,52.39 95.707,51.81 95.475,51.138 L94.667,48.745 L90.003,48.745 L89.346,50.881 C89.133,51.601 88.877,52.159 88.88,52.504 C88.888,53.021 89.677,53.147 90.379,53.147 L90.704,53.147 L90.704,53.245 L90.704,53.974 L90.608,53.969 C89.762,53.928 88.9,53.881 88.054,53.881 C87.298,53.881 86.533,53.928 85.777,53.969 L85.679,53.974 L85.679,53.878 L85.679,53.147 L85.771,53.147 L85.899,53.147 C86.683,53.145 87.341,52.698 87.647,51.839 L91.033,42.132 C91.307,41.348 91.691,40.296 91.872,39.452 C92.538,39.227 93.388,38.8 93.793,38.545 C93.853,38.524 93.912,38.496 93.996,38.496 C94.048,38.493 94.162,38.506 94.23,38.617 C94.292,38.792 94.357,38.981 94.422,39.15 L98.313,50.212 C98.564,50.951 98.818,51.733 99.093,52.359 C99.339,52.921 99.726,53.144 100.405,53.146 L100.62,53.146 L100.62,53.244 L100.62,53.973 L100.527,53.969 Z" id="Shape"></path>
                <path d="M101.463,40.175 C99.877,40.175 99.812,40.556 99.495,42.098 L98.859,42.098 C98.943,41.507 99.049,40.915 99.116,40.303 C99.197,39.708 99.238,39.117 99.238,38.506 L99.75,38.506 C99.917,39.142 100.446,39.117 101.017,39.117 L111.931,39.117 C112.498,39.117 113.028,39.096 113.07,38.461 L113.576,38.548 C113.498,39.117 113.413,39.689 113.345,40.26 C113.3,40.832 113.3,41.402 113.3,41.972 L112.667,42.206 C112.631,41.427 112.525,40.175 111.104,40.175 L107.636,40.175 L107.636,51.425 C107.636,53.055 108.378,53.243 109.39,53.243 L109.796,53.243 L109.796,53.878 C108.972,53.878 107.492,53.797 106.348,53.797 C105.081,53.797 103.596,53.878 102.775,53.878 L102.775,53.243 L103.175,53.243 C104.34,53.243 104.93,53.139 104.93,51.468 L104.93,40.175 L101.463,40.175 L101.463,40.175 Z" id="Shape"></path>
                <path d="M109.795,53.969 C108.965,53.969 107.481,53.885 106.345,53.885 C105.081,53.885 103.602,53.969 102.775,53.969 L102.68,53.969 L102.68,53.878 L102.68,53.151 L102.775,53.151 L103.174,53.151 C104.34,53.123 104.809,53.108 104.838,51.467 L104.836,40.264 L101.463,40.264 L101.463,40.174 L101.463,40.079 L105.02,40.079 L105.02,51.467 C105.02,53.165 104.334,53.334 103.174,53.337 L102.862,53.337 L102.862,53.786 C103.699,53.779 105.12,53.701 106.344,53.701 C107.449,53.701 108.863,53.779 109.698,53.786 L109.698,53.337 L109.386,53.337 C108.369,53.334 107.544,53.088 107.542,51.424 L107.542,40.08 L111.101,40.08 C112.524,40.085 112.707,41.292 112.748,42.077 L113.208,41.91 C113.208,41.356 113.209,40.805 113.253,40.25 C113.312,39.706 113.39,39.164 113.469,38.624 L113.148,38.57 C113.053,39.185 112.455,39.217 111.929,39.209 L101.015,39.209 L100.906,39.209 C100.409,39.213 99.871,39.188 99.676,38.594 L99.331,38.594 C99.326,39.18 99.284,39.747 99.203,40.31 C99.144,40.896 99.042,41.454 98.963,42.011 L99.415,42.011 C99.696,40.534 99.877,40.056 101.462,40.08 L101.462,40.175 L101.462,40.265 C99.895,40.291 99.929,40.557 99.583,42.12 L99.567,42.192 L99.494,42.192 L98.751,42.192 L98.766,42.088 C98.854,41.492 98.956,40.9 99.018,40.289 C99.104,39.697 99.145,39.111 99.145,38.506 L99.145,38.412 L99.238,38.412 L99.816,38.412 L99.834,38.479 C99.982,39.011 100.368,39.014 100.907,39.024 L101.016,39.024 L111.93,39.024 C112.514,39.014 112.943,39.008 112.979,38.456 L112.983,38.353 L113.08,38.373 L113.682,38.467 L113.668,38.562 C113.581,39.128 113.5,39.698 113.436,40.265 C113.392,40.832 113.392,41.402 113.392,41.972 L113.392,42.036 L113.331,42.06 L112.582,42.332 L112.579,42.211 C112.525,41.414 112.442,40.264 111.102,40.264 L107.726,40.264 L107.726,51.424 C107.747,53.019 108.38,53.13 109.387,53.151 L109.882,53.151 L109.882,53.243 L109.882,53.969 L109.795,53.969 L109.795,53.969 Z" id="Shape"></path>
                <path d="M114.355,53.243 L114.653,53.243 C115.415,53.243 116.216,53.139 116.216,52.038 L116.216,40.96 C116.216,39.856 115.414,39.753 114.653,39.753 L114.355,39.753 L114.355,39.117 C115.183,39.117 116.448,39.201 117.483,39.201 C118.545,39.201 119.812,39.117 120.809,39.117 L120.809,39.753 L120.51,39.753 C119.747,39.753 118.945,39.857 118.945,40.96 L118.945,52.038 C118.945,53.139 119.748,53.243 120.51,53.243 L120.809,53.243 L120.809,53.878 C119.792,53.878 118.523,53.797 117.466,53.797 C116.427,53.797 115.183,53.878 114.355,53.878 L114.355,53.243 L114.355,53.243 Z" id="Shape"></path>
                <path d="M120.713,53.785 L120.713,53.338 L120.512,53.338 C119.755,53.338 118.859,53.206 118.859,52.038 L118.859,40.96 C118.859,39.789 119.755,39.659 120.512,39.657 L120.713,39.657 L120.713,39.208 C119.737,39.213 118.513,39.292 117.484,39.292 C116.482,39.292 115.27,39.213 114.449,39.208 L114.449,39.657 L114.655,39.657 C115.406,39.659 116.308,39.789 116.31,40.96 L116.31,52.038 C116.308,53.206 115.406,53.338 114.655,53.338 L114.449,53.338 L114.449,53.785 C115.264,53.777 116.461,53.702 117.468,53.702 C118.491,53.702 119.715,53.78 120.713,53.785 L120.713,53.785 Z M120.81,53.969 C119.787,53.969 118.523,53.881 117.467,53.881 C116.433,53.881 115.184,53.969 114.356,53.969 L114.266,53.969 L114.266,53.878 L114.266,53.243 L114.266,53.151 L114.356,53.151 L114.655,53.151 C115.416,53.138 116.119,53.073 116.125,52.038 L116.125,40.96 C116.119,39.927 115.416,39.856 114.655,39.845 L114.266,39.845 L114.266,39.752 L114.266,39.024 L114.356,39.024 C115.184,39.024 116.456,39.107 117.484,39.107 C118.539,39.107 119.806,39.024 120.81,39.024 L120.898,39.024 L120.898,39.117 L120.898,39.845 L120.81,39.845 L120.512,39.845 C119.739,39.857 119.043,39.927 119.035,40.96 L119.035,52.038 C119.043,53.073 119.738,53.139 120.512,53.151 L120.898,53.151 L120.898,53.243 L120.898,53.969 L120.81,53.969 Z" id="Shape"></path>
                <path d="M129.56,53.265 C133.665,53.265 134.379,49.647 134.379,46.564 C134.379,43.473 132.713,39.731 129.201,39.731 C125.5,39.731 124.399,43.031 124.399,45.863 C124.399,49.646 126.135,53.265 129.56,53.265 M129.24,38.8 C133.75,38.8 137.341,41.595 137.341,46.098 C137.341,50.964 133.853,54.196 129.351,54.196 C124.864,54.196 121.441,51.15 121.441,46.604 C121.44,42.206 124.844,38.8 129.24,38.8" id="Shape"></path>
                <path d="M124.309,45.862 C124.314,43.015 125.425,39.636 129.201,39.636 C132.792,39.644 134.466,43.453 134.473,46.563 C134.465,49.646 133.74,53.351 129.561,53.351 L129.561,53.264 L129.561,53.171 C133.582,53.167 134.282,49.646 134.288,46.563 C134.288,43.498 132.638,39.827 129.201,39.822 C125.572,39.825 124.502,43.044 124.491,45.862 C124.493,49.627 126.214,53.166 129.561,53.172 L129.561,53.265 L129.561,53.352 C126.051,53.348 124.313,49.668 124.309,45.862 M121.345,46.604 C121.356,42.155 124.797,38.715 129.24,38.708 L129.24,38.801 L129.24,38.894 C124.893,38.894 121.531,42.253 121.525,46.605 C121.536,51.1 124.908,54.1 129.352,54.102 C133.807,54.1 137.248,50.914 137.252,46.096 C137.249,41.65 133.713,38.898 129.239,38.894 L129.239,38.8 L129.239,38.707 C133.779,38.712 137.425,41.535 137.431,46.095 C137.426,51.01 133.895,54.278 129.351,54.283 C124.828,54.277 121.355,51.2 121.345,46.604" id="Shape"></path>
                <path d="M151.593,49.71 L151.637,49.668 L151.637,41.74 C151.637,40.004 150.427,39.752 149.794,39.752 L149.332,39.752 L149.332,39.117 C150.325,39.117 151.298,39.201 152.288,39.201 C153.159,39.201 154.024,39.117 154.894,39.117 L154.894,39.752 L154.575,39.752 C153.687,39.752 152.692,39.921 152.692,42.439 L152.692,52.06 C152.692,52.8 152.713,53.539 152.821,54.196 L152.015,54.196 L141.122,42.055 L141.122,50.769 C141.122,52.612 141.484,53.244 143.109,53.244 L143.47,53.244 L143.47,53.879 C142.561,53.879 141.654,53.797 140.743,53.797 C139.791,53.797 138.817,53.879 137.864,53.879 L137.864,53.244 L138.163,53.244 C139.623,53.244 140.063,52.249 140.063,50.563 L140.063,41.653 C140.063,40.469 139.094,39.753 138.139,39.753 L137.864,39.753 L137.864,39.118 C138.67,39.118 139.491,39.202 140.299,39.202 C140.932,39.202 141.54,39.118 142.177,39.118 L151.593,49.71 Z" id="Shape"></path>
                <path d="M151.543,49.668 L151.543,49.663 L151.527,49.647 L151.543,49.668 Z M151.593,49.71 L151.66,49.649 L151.593,49.71 Z M152.016,54.101 L152.709,54.101 C152.619,53.465 152.6,52.763 152.6,52.06 L152.6,42.439 C152.6,39.895 153.667,39.666 154.574,39.658 L154.805,39.658 L154.805,39.209 C153.965,39.214 153.134,39.293 152.285,39.293 C151.323,39.293 150.378,39.214 149.421,39.209 L149.421,39.658 L149.794,39.658 C150.446,39.666 151.723,39.954 151.723,41.741 L151.701,49.736 L151.661,49.778 L151.594,49.845 L142.182,39.208 C141.557,39.208 140.941,39.292 140.301,39.292 C139.521,39.292 138.727,39.213 137.956,39.208 L137.956,39.657 L138.144,39.657 C139.138,39.665 140.158,40.415 140.158,41.652 L140.158,50.561 C140.158,52.252 139.688,53.334 138.166,53.339 L137.957,53.337 L137.957,53.785 C138.876,53.779 139.818,53.701 140.747,53.701 C141.629,53.701 142.506,53.779 143.383,53.785 L143.383,53.339 L143.109,53.339 C141.451,53.337 141.033,52.61 141.033,50.768 L141.033,41.819 L152.016,54.101 Z M152.822,54.283 L151.947,54.256 L141.214,42.294 L141.214,50.769 C141.239,52.612 141.519,53.129 143.107,53.147 L143.563,53.147 L143.563,53.245 L143.563,53.97 L143.473,53.97 C142.558,53.97 141.648,53.886 140.745,53.886 C139.797,53.886 138.824,53.97 137.865,53.97 L137.777,53.97 L137.777,53.879 L137.777,53.148 L137.865,53.148 L138.164,53.148 C139.558,53.143 139.959,52.247 139.975,50.563 L139.975,41.654 C139.975,40.526 139.051,39.846 138.143,39.846 L137.778,39.846 L137.778,39.753 L137.778,39.025 L137.866,39.025 C138.678,39.025 139.501,39.108 140.301,39.108 C140.928,39.108 141.536,39.025 142.252,39.058 L151.544,49.519 L151.544,41.741 C151.535,40.063 150.412,39.857 149.795,39.845 L149.236,39.845 L149.236,39.752 L149.236,39.024 L149.333,39.024 C150.327,39.024 151.303,39.107 152.286,39.107 C153.153,39.107 154.017,39.024 154.896,39.024 L154.984,39.024 L154.984,39.117 L154.984,39.845 L154.896,39.845 L154.574,39.845 C153.705,39.866 152.804,39.947 152.787,42.439 L152.787,52.06 C152.787,52.799 152.804,53.537 152.906,54.181 L152.923,54.284 L152.822,54.284 L152.822,54.283 Z" id="Shape"></path>
                <path d="M161.381,41.486 L161.339,41.486 L159.369,47.471 L163.33,47.471 L161.381,41.486 Z M158.29,50.854 C158.082,51.572 157.827,52.125 157.827,52.502 C157.827,53.138 158.719,53.243 159.411,53.243 L159.647,53.243 L159.647,53.877 C158.801,53.831 157.932,53.796 157.086,53.796 C156.323,53.796 155.564,53.831 154.807,53.877 L154.807,53.243 L154.927,53.243 C155.753,53.243 156.454,52.755 156.764,51.865 L160.156,42.163 C160.429,41.38 160.81,40.323 160.934,39.539 C161.614,39.307 162.455,38.886 162.864,38.629 C162.923,38.608 162.965,38.586 163.031,38.586 C163.092,38.586 163.133,38.586 163.176,38.653 C163.241,38.818 163.304,39.01 163.368,39.179 L167.259,50.239 C167.511,50.979 167.767,51.76 168.042,52.397 C168.297,52.991 168.74,53.243 169.438,53.243 L169.568,53.243 L169.568,53.877 C168.614,53.831 167.662,53.796 166.646,53.796 C165.613,53.796 164.553,53.831 163.472,53.877 L163.472,53.243 L163.706,53.243 C164.189,53.243 165.019,53.159 165.019,52.63 C165.019,52.357 164.829,51.785 164.593,51.106 L163.77,48.654 L158.969,48.654 L158.29,50.854 Z" id="Shape"></path>
                <path d="M161.293,41.515 L161.335,41.496 L161.293,41.515 Z M159.498,47.378 L163.197,47.378 L161.357,41.715 L159.498,47.378 Z M159.243,47.56 L161.272,41.392 L161.334,41.392 L161.38,41.392 L161.38,41.487 L161.358,41.493 L161.38,41.487 L161.38,41.392 L161.445,41.392 L163.443,47.56 L159.243,47.56 Z M163.562,53.781 C164.609,53.743 165.637,53.702 166.646,53.702 C167.628,53.702 168.548,53.743 169.471,53.78 L169.468,53.338 L169.434,53.338 C168.716,53.34 168.218,53.057 167.954,52.434 C167.677,51.796 167.424,51.01 167.172,50.273 L163.281,39.21 C163.218,39.04 163.151,38.853 163.101,38.706 C163.082,38.681 163.084,38.681 163.072,38.681 L163.03,38.681 C162.984,38.681 162.961,38.696 162.912,38.709 C162.498,38.969 161.651,39.391 161.025,39.554 C160.894,40.354 160.511,41.408 160.238,42.195 L156.851,51.899 C156.531,52.818 155.791,53.341 154.927,53.339 L154.896,53.339 L154.896,53.781 C155.622,53.744 156.349,53.703 157.086,53.703 C157.904,53.703 158.74,53.744 159.554,53.781 L159.554,53.339 L159.41,53.339 C158.722,53.328 157.758,53.256 157.73,52.504 C157.736,52.085 157.996,51.546 158.205,50.83 L158.289,50.855 L158.205,50.827 L158.899,48.567 L163.829,48.567 L164.678,51.077 C164.913,51.759 165.105,52.323 165.105,52.632 C165.074,53.278 164.185,53.327 163.705,53.339 L163.562,53.339 L163.562,53.781 L163.562,53.781 Z M169.556,53.969 C168.606,53.931 167.656,53.885 166.647,53.885 C165.616,53.885 164.555,53.931 163.478,53.969 L163.383,53.974 L163.383,53.878 L163.383,53.151 L163.474,53.151 L163.705,53.151 C164.195,53.151 164.925,53.036 164.926,52.63 C164.933,52.389 164.741,51.812 164.502,51.137 L163.701,48.744 L159.032,48.744 L158.379,50.88 C158.166,51.605 157.917,52.158 157.919,52.502 C157.919,53.02 158.713,53.15 159.411,53.15 L159.733,53.15 L159.733,53.242 L159.733,53.972 L159.64,53.967 C158.794,53.929 157.929,53.883 157.086,53.883 C156.326,53.883 155.569,53.929 154.807,53.967 L154.715,53.972 L154.715,53.876 L154.715,53.149 L154.807,53.149 L154.927,53.149 C155.713,53.144 156.374,52.694 156.684,51.837 L160.066,42.13 C160.338,41.346 160.718,40.294 160.906,39.452 C161.571,39.223 162.418,38.798 162.829,38.543 C162.886,38.522 162.943,38.497 163.03,38.497 C163.085,38.491 163.196,38.504 163.26,38.619 C163.324,38.788 163.386,38.979 163.456,39.148 L167.344,50.21 C167.598,50.949 167.852,51.731 168.125,52.362 C168.375,52.92 168.757,53.142 169.434,53.149 L169.653,53.149 L169.653,53.241 L169.653,53.971 L169.556,53.969 Z" id="Shape"></path>
                <path d="M174.893,51.804 C174.893,52.655 175.482,52.904 176.161,52.992 C177.024,53.054 177.978,53.054 178.954,52.947 C179.839,52.842 180.603,52.337 180.98,51.803 C181.317,51.338 181.506,50.746 181.637,50.282 L182.249,50.282 C182.016,51.489 181.721,52.675 181.465,53.877 C179.611,53.877 177.744,53.796 175.884,53.796 C174.023,53.796 172.164,53.877 170.302,53.877 L170.302,53.242 L170.595,53.242 C171.358,53.242 172.186,53.138 172.186,51.825 L172.186,40.96 C172.186,39.856 171.358,39.752 170.595,39.752 L170.302,39.752 L170.302,39.117 C171.422,39.117 172.523,39.201 173.641,39.201 C174.722,39.201 175.778,39.117 176.859,39.117 L176.859,39.752 L176.328,39.752 C175.525,39.752 174.893,39.774 174.893,40.896 L174.893,51.804 L174.893,51.804 Z" id="Shape"></path>
                <path d="M181.391,53.785 C181.635,52.637 181.912,51.514 182.141,50.372 L181.704,50.372 C181.573,50.834 181.386,51.402 181.054,51.862 C180.658,52.41 179.876,52.924 178.957,53.04 C178.405,53.096 177.854,53.124 177.337,53.124 C176.928,53.124 176.531,53.107 176.146,53.078 C175.46,53.004 174.794,52.709 174.795,51.804 L174.795,40.896 C174.795,39.718 175.539,39.658 176.327,39.658 L176.762,39.658 L176.762,39.209 C175.723,39.214 174.694,39.294 173.64,39.294 C172.548,39.294 171.477,39.214 170.394,39.209 L170.394,39.658 L170.595,39.658 C171.351,39.658 172.274,39.79 172.274,40.956 L172.274,51.827 C172.274,53.197 171.353,53.339 170.595,53.339 L170.394,53.339 L170.394,53.786 C172.22,53.782 174.05,53.703 175.884,53.703 C177.724,53.702 179.559,53.781 181.391,53.785 L181.391,53.785 Z M181.466,53.969 C179.602,53.969 177.74,53.885 175.884,53.885 C174.025,53.885 172.165,53.969 170.298,53.969 L170.21,53.969 L170.21,53.878 L170.21,53.151 L170.298,53.151 L170.595,53.151 C171.359,53.132 172.086,53.078 172.095,51.826 L172.095,40.955 C172.086,39.927 171.364,39.856 170.595,39.845 L170.21,39.845 L170.21,39.752 L170.21,39.024 L170.298,39.024 C171.424,39.024 172.525,39.107 173.64,39.107 C174.717,39.107 175.771,39.024 176.859,39.024 L176.945,39.024 L176.945,39.117 L176.945,39.845 L176.859,39.845 L176.328,39.845 C175.509,39.866 174.999,39.826 174.981,40.896 L174.981,51.804 C174.985,52.595 175.504,52.808 176.166,52.901 C176.537,52.925 176.932,52.942 177.338,52.942 C177.856,52.942 178.391,52.918 178.939,52.859 C179.8,52.756 180.541,52.258 180.908,51.755 C181.234,51.3 181.419,50.722 181.548,50.262 L181.566,50.193 L181.637,50.193 L182.364,50.193 L182.343,50.304 C182.105,51.512 181.814,52.692 181.557,53.898 L181.54,53.969 L181.466,53.969 Z" id="Shape"></path>
                <path d="M181.635,40.748 L181.898,40.748 C182.187,40.748 182.319,40.531 182.319,40.18 C182.319,39.826 182.114,39.701 181.883,39.701 L181.635,39.701 L181.635,40.748 Z M180.885,41.923 L180.885,41.816 C181.155,41.778 181.207,41.784 181.207,41.618 L181.207,39.968 C181.207,39.736 181.184,39.654 180.891,39.669 L180.891,39.555 L182.033,39.555 C182.426,39.555 182.785,39.741 182.785,40.148 C182.785,40.478 182.567,40.724 182.258,40.818 L182.627,41.329 C182.797,41.561 182.991,41.779 183.115,41.853 L183.115,41.924 L182.682,41.924 C182.473,41.924 182.29,41.487 181.881,40.903 L181.635,40.903 L181.635,41.639 C181.635,41.785 181.685,41.779 181.96,41.817 L181.96,41.924 L180.885,41.924 L180.885,41.923 Z M181.989,42.555 C182.99,42.555 183.753,41.707 183.753,40.748 C183.753,39.789 182.998,38.935 181.989,38.935 C180.989,38.935 180.227,39.789 180.227,40.748 C180.227,41.707 180.989,42.555 181.989,42.555 L181.989,42.555 Z M181.989,38.517 C183.264,38.517 184.218,39.496 184.218,40.748 C184.218,42.001 183.264,42.97 181.989,42.97 C180.717,42.97 179.765,42.001 179.765,40.748 C179.766,39.496 180.717,38.517 181.989,38.517 L181.989,38.517 Z" id="Shape"></path>
            </g>
            <g id="Group" transform="translate(48.000000, 0.000000)">
                <circle id="Oval" fill="#FFFFFF" cx="37.725" cy="38.461" r="35.814"></circle>
                <path d="M37.775,74.914 C17.249,75.013 0.357,58.384 0.357,38.143 C0.357,16.022 17.249,0.721 37.775,0.725 L47.393,0.725 C67.673,0.721 86.186,16.015 86.186,38.143 C86.186,58.377 67.673,74.914 47.393,74.914 L37.775,74.914 Z M37.859,3.793 C19.103,3.8 3.906,19 3.903,37.756 C3.906,56.51 19.103,71.705 37.859,71.709 C56.615,71.705 71.813,56.51 71.819,37.756 C71.812,19 56.615,3.8 37.859,3.793 Z M30.149,57.838 L30.149,17.668 C22.077,20.776 16.354,28.586 16.332,37.756 C16.354,46.922 22.077,54.732 30.149,57.838 Z M59.386,37.756 C59.369,28.584 53.637,20.762 45.561,17.664 L45.561,57.846 C53.637,54.744 59.369,46.929 59.386,37.756 Z" id="Shape" fill="#004A97"></path>
            </g>
        </g>
    </g>
</svg>