<?xml version="1.0" encoding="utf-8"?>
<!-- Generator: Adobe Illustrator 20.1.0, SVG Export Plug-In . SVG Version: 6.00 Build 0)  -->
<svg version="1.1" id="Layer_1" xmlns="http://www.w3.org/2000/svg" xmlns:xlink="http://www.w3.org/1999/xlink" x="0px" y="0px"
	 viewBox="0 0 155.946 89.548" enable-background="new 0 0 155.946 89.548" xml:space="preserve">
<g>
	<g id="_x33_uOn0o.tif_1_">
		<g>
			<path fill="#053E91" d="M0.171,49.82C0.114,35.733-0.026,21.645,0.049,7.559c0.025-4.687,2.563-7.081,7.185-7.498
				c1.142-0.103,93.173-0.044,138.036-0.042c8.889,0,10.695,1.766,10.672,10.558c-0.035,13.081-0.111,26.161-0.17,39.242
				c-1.313,0.048-2.626,0.096-3.94,0.143c-1.576-0.052-3.151-0.149-4.727-0.15c-39.485-0.008-78.969-0.015-118.454,0
				c-8.18,0.003-16.361,0.097-24.541,0.149C2.797,49.914,1.484,49.867,0.171,49.82z"/>
			<path fill="#169FDB" d="M0.171,49.82c1.313,0.047,2.626,0.095,3.94,0.142C4.096,60.159,4.173,70.359,4.014,80.554
				c-0.053,3.411,0.936,4.939,4.615,4.933c46.251-0.077,92.503-0.071,138.754-0.007c3.303,0.005,4.607-1.073,4.55-4.495
				c-0.172-10.339-0.086-20.682-0.101-31.024c1.313-0.048,2.626-0.096,3.94-0.143c0.066,10.633,0.241,21.267,0.149,31.899
				c-0.044,5.025-2.404,7.268-7.401,7.75c-1.283,0.124-2.585,0.069-3.879,0.069c-44.281,0.003-88.562,0.003-132.843-0.001
				c-1.293,0-2.592,0.031-3.878-0.079C2.3,88.972,0.132,87,0.052,81.287C-0.095,70.8,0.111,60.309,0.171,49.82z"/>
		</g>
	</g>
	<g>
		<path fill="#FFFFFF" d="M94.965,39.237c0-8.875,0-17.655,0-26.579c0.426,0,0.812,0,1.198,0c7.739,0.001,15.478-0.027,23.217,0.032
			c1.32,0.01,2.673,0.263,3.947,0.629c2.568,0.737,3.944,2.605,4.317,5.195c0.51,3.543-0.405,5.371-3.455,7.12
			c0.038,0.046,0.067,0.121,0.113,0.132c3.754,0.97,4.457,3.53,4.312,6.687c-0.206,4.468-2.111,6.603-6.84,6.721
			C112.883,39.394,103.982,39.237,94.965,39.237z M103.088,28.407c0,1.666,0,3.175,0,4.768c5.167,0,10.281,0.038,15.392-0.056
			c0.537-0.01,1.306-0.697,1.544-1.252c0.816-1.9-0.275-3.437-2.34-3.455c-2.398-0.02-4.796-0.004-7.195-0.004
			C108.06,28.407,105.631,28.407,103.088,28.407z M103.087,22.938c4.939,0,9.796,0.012,14.653-0.01
			c0.947-0.004,1.398-0.667,1.588-1.518c0.373-1.675-0.625-2.812-2.496-2.816c-4.028-0.009-8.057,0.001-12.085,0.003
			c-0.534,0-1.068,0-1.659,0C103.087,20.078,103.087,21.441,103.087,22.938z"/>
		<path fill="#FFFFFF" d="M83.115,29.057c2.726,0,5.399,0,8.064,0c0.636,3.564-0.208,7.366-2.674,8.906
			c-1.687,1.054-3.575,1.472-5.499,1.496c-5.704,0.072-11.411,0.128-17.113,0.004c-5.389-0.117-8.626-3.493-8.657-8.859
			c-0.021-3.593-0.097-7.206,0.223-10.776c0.391-4.358,2.879-6.855,7.274-7.104c5.757-0.326,11.537-0.265,17.308-0.309
			c1.222-0.009,2.459,0.176,3.665,0.403c3.046,0.572,4.759,2.47,5.147,5.522c0.159,1.247,0.167,2.513,0.248,3.85
			c-2.797,0-5.435,0-8.107,0c-0.036-0.061-0.122-0.144-0.139-0.24c-0.378-2.051-1.012-2.827-3.141-2.886
			c-3.553-0.099-7.12-0.058-10.668,0.144c-2.381,0.135-3.233,0.965-3.417,3.288c-0.185,2.339-0.165,4.723,0.064,7.059
			c0.196,1.998,1.23,3.033,3.188,3.115c3.801,0.159,7.616,0.14,11.418,0.008c1.768-0.061,2.533-1.084,2.704-2.839
			C83.028,29.594,83.073,29.35,83.115,29.057z"/>
		<path fill="#FFFFFF" d="M45.029,12.719c2.745,0,5.379,0,8.104,0c0.02,0.366,0.055,0.716,0.055,1.066
			c0.004,5.668,0.038,11.336-0.021,17.003c-0.014,1.359-0.182,2.761-0.558,4.063c-0.758,2.619-2.778,4.065-5.341,4.34
			c-5.272,0.566-10.585,0.744-15.842-0.157c-2.993-0.513-4.619-2.382-4.893-5.444c-0.17-1.899-0.032-3.825-0.032-5.872
			c0.484,0,0.945,0,1.407,0c1.989,0,3.978,0,5.961,0c0.085,0.99,0.127,1.856,0.24,2.714c0.181,1.38,0.826,2.194,2.193,2.303
			c2.091,0.167,4.207,0.24,6.298,0.119c1.705-0.099,2.387-1.007,2.401-2.775c0.033-4.25,0.022-8.501,0.027-12.752
			C45.03,15.81,45.029,14.294,45.029,12.719z"/>
	</g>
	<g>
		<path fill="#169FDB" d="M26.811,56.223l-0.027,14.951c0,2.185-0.592,3.729-1.774,4.632c-1.147,0.848-2.718,1.273-4.713,1.273
			c-3.476,0-5.521-1.44-6.135-4.32c-0.126-0.632-0.19-1.237-0.19-1.815v-1.991h4.158v2.14c0,0.316,0.036,0.628,0.108,0.934
			c0.208,1.002,0.921,1.503,2.14,1.503c1.516,0,2.266-0.786,2.248-2.356l0.027-14.951H26.811z"/>
		<path fill="#169FDB" d="M39.208,56.087L33.181,77.39h-3.02l6.013-21.303H39.208z"/>
		<path fill="#169FDB" d="M55.529,62.385c0-0.099,0-0.167,0-0.203l-0.081-0.433c-0.316-1.535-1.693-2.302-4.131-2.302
			c-2.718,0-3.873,0.961-3.467,2.884c0.109,0.515,0.425,0.921,0.948,1.219c0.515,0.271,1.453,0.537,2.817,0.799l3.169,0.609
			c3.034,0.578,4.78,1.955,5.24,4.131c0.425,2.023,0.149,3.742-0.826,5.16c-1.227,1.887-3.548,2.83-6.961,2.83
			c-2.627,0-4.726-0.601-6.297-1.801c-1.246-0.939-2.023-2.157-2.33-3.657c-0.081-0.316-0.131-0.722-0.148-1.219h4.049l0.094,0.637
			c0.343,1.661,1.838,2.492,4.483,2.492c3.169,0,4.528-1.025,4.076-3.074c-0.234-1.129-1.508-1.914-3.818-2.356l-2.83-0.555
			c-3.259-0.632-5.12-2.031-5.58-4.198c-0.46-2.14,0.004-3.941,1.395-5.404c1.255-1.372,3.232-2.058,5.931-2.058
			c4.659,0,7.332,1.594,8.018,4.781c0.09,0.461,0.135,1.034,0.135,1.72H55.529z"/>
		<path fill="#169FDB" d="M66.91,70.172c0.036,0.352,0.072,0.632,0.109,0.84l0.094,0.406c0.352,1.706,1.404,2.56,3.156,2.56
			c1.462,0,2.379-0.582,2.749-1.747h3.819c-0.92,3.233-3.137,4.848-6.65,4.848c-1.742,0-3.259-0.537-4.55-1.612
			c-1.309-1.047-2.149-2.433-2.519-4.158c-0.668-3.124-0.207-5.751,1.382-7.882c1.111-1.471,2.849-2.207,5.214-2.207
			c2.077,0,3.752,0.636,5.025,1.909c1.074,1.075,1.747,2.267,2.018,3.576c0.226,1.056,0.303,2.212,0.23,3.467H66.91z M72.883,67.179
			c-0.154-0.722-0.348-1.259-0.582-1.612c-0.578-0.83-1.386-1.246-2.424-1.246c-1.219,0-2.077,0.469-2.573,1.408
			c-0.244,0.433-0.393,1.057-0.447,1.869h6.108L72.883,67.179z"/>
		<path fill="#169FDB" d="M89.939,67.07c-0.199-0.893-0.429-1.503-0.69-1.828c-0.497-0.614-1.219-0.921-2.167-0.921
			c-1.472,0-2.416,0.786-2.83,2.356c-0.389,1.373-0.416,2.853-0.081,4.442c0.406,1.905,1.435,2.858,3.088,2.858
			c1.382,0,2.275-0.907,2.681-2.722h3.724c-0.388,3.882-2.46,5.823-6.216,5.823c-2.05,0-3.698-0.564-4.944-1.693
			c-1.146-1.011-1.873-2.248-2.181-3.711c-0.631-2.997-0.253-5.607,1.138-7.828c1.065-1.751,2.912-2.627,5.539-2.627
			c1.779,0,3.286,0.506,4.524,1.517c1.074,0.893,1.738,1.941,1.991,3.142c0.045,0.199,0.094,0.596,0.148,1.191H89.939z"/>
		<path fill="#169FDB" d="M107.117,76.442V74.56c-1.048,1.679-2.541,2.519-4.483,2.519c-2.7,0-4.311-1.219-4.835-3.657
			c-0.109-0.505-0.163-1.016-0.163-1.53V61.464h3.887v9.074c0.019,0.623,0.055,1.074,0.109,1.354
			c0.298,1.39,1.146,2.086,2.546,2.086c1.96,0,2.939-1.233,2.939-3.697v-8.816h3.887v14.978H107.117z"/>
		<path fill="#169FDB" d="M119.974,61.464v2.939c0.903-2.122,2.288-3.182,4.157-3.182h0.19c0.09,0,0.195,0.009,0.312,0.027v3.941
			c-0.46-0.081-0.867-0.122-1.219-0.122c-2.294,0-3.44,1.137-3.44,3.412v7.963h-3.887V61.464H119.974z"/>
		<path fill="#169FDB" d="M131.004,70.172c0.036,0.352,0.072,0.632,0.109,0.84l0.094,0.406c0.352,1.706,1.404,2.56,3.156,2.56
			c1.462,0,2.379-0.582,2.749-1.747h3.819c-0.92,3.233-3.137,4.848-6.65,4.848c-1.742,0-3.259-0.537-4.55-1.612
			c-1.309-1.047-2.149-2.433-2.519-4.158c-0.668-3.124-0.207-5.751,1.382-7.882c1.111-1.471,2.849-2.207,5.214-2.207
			c2.077,0,3.752,0.636,5.025,1.909c1.074,1.075,1.747,2.267,2.018,3.576c0.226,1.056,0.303,2.212,0.23,3.467H131.004z
			 M136.977,67.179c-0.154-0.722-0.348-1.259-0.582-1.612c-0.578-0.83-1.386-1.246-2.424-1.246c-1.219,0-2.077,0.469-2.573,1.408
			c-0.244,0.433-0.393,1.057-0.447,1.869h6.108L136.977,67.179z"/>
	</g>
</g>
</svg>
