<?xml version="1.0" encoding="UTF-8" standalone="no"?>
<!-- Generator: Adobe Illustrator 15.1.0, SVG Export Plug-In . SVG Version: 6.00 Build 0)  -->

<svg
   xmlns:dc="http://purl.org/dc/elements/1.1/"
   xmlns:cc="http://creativecommons.org/ns#"
   xmlns:rdf="http://www.w3.org/1999/02/22-rdf-syntax-ns#"
   xmlns:svg="http://www.w3.org/2000/svg"
   xmlns="http://www.w3.org/2000/svg"
   xmlns:sodipodi="http://sodipodi.sourceforge.net/DTD/sodipodi-0.dtd"
   xmlns:inkscape="http://www.inkscape.org/namespaces/inkscape"
   version="1.1"
   id="Layer_1"
   x="0px"
   y="0px"
   width="2058.4619"
   height="2058.4619"
   viewBox="0 0 2058.4619 2058.4618"
   enable-background="new 0 0 3917.48 2055.121"
   xml:space="preserve"
   inkscape:version="0.91 r13725"
   sodipodi:docname="footer31.svg"><metadata
     id="metadata3357"><rdf:RDF><cc:Work
         rdf:about=""><dc:format>image/svg+xml</dc:format><dc:type
           rdf:resource="http://purl.org/dc/dcmitype/StillImage" /><dc:title></dc:title></cc:Work></rdf:RDF></metadata><defs
     id="defs3355" /><sodipodi:namedview
     pagecolor="#ffffff"
     bordercolor="#666666"
     borderopacity="1"
     objecttolerance="10"
     gridtolerance="10"
     guidetolerance="10"
     inkscape:pageopacity="0"
     inkscape:pageshadow="2"
     inkscape:window-width="1920"
     inkscape:window-height="1018"
     id="namedview3353"
     showgrid="false"
     fit-margin-top="0"
     fit-margin-left="0"
     fit-margin-right="0"
     fit-margin-bottom="0"
     inkscape:zoom="0.41408752"
     inkscape:cx="1027.56"
     inkscape:cy="1030.9015"
     inkscape:window-x="-8"
     inkscape:window-y="-8"
     inkscape:window-maximized="1"
     inkscape:current-layer="Layer_1" /><path
     d="m 1029.231,0 c 568.082,0 1029.231,461.148 1029.231,1029.23 0,568.082 -461.149,1029.232 -1029.231,1029.232 C 461.149,2055.12 0,1593.972 0,1029.23 0,461.148 461.149,0 1029.231,0 l 0,0 z m 979.107,1029.23 c 0,-541.348 -437.758,-982.447 -979.106,-982.447 -541.348,0 -982.449,441.099 -982.449,982.447 0,541.35 437.758,979.107 979.106,979.107 541.348,0 982.449,-437.757 982.449,-979.107 l 0,0 z"
     id="path3337"
     inkscape:connector-curvature="0"
     style="fill:#ffffff" /><path
     d="m 1600.137,916.375 c -9.994,-0.005 -18.081,-8.104 -18.081,-18.097 l 0.029,-79.951 -6.667,0 c -41.369,0 -56.751,6.826 -56.751,44.503 l 0,88.163 c -0.01,0.187 -0.031,0.374 -0.031,0.558 l 0,19.326 c -0.012,0.669 -0.052,1.291 -0.052,1.983 l 0,123.182 c 0,15.051 -2.898,27.029 -8.881,36.336 -11.272,17.371 -33.604,25.275 -69.328,25.322 -35.712,-0.047 -58.038,-7.94 -69.317,-25.302 -5.994,-9.311 -8.896,-21.298 -8.896,-36.356 l 0,-123.181 c 0,-0.693 -0.041,-1.314 -0.052,-1.983 l 0,-19.326 c 0,-0.184 -0.02,-0.371 -0.024,-0.558 l 0,-88.163 c 0,-37.677 -15.389,-44.503 -56.746,-44.503 l -13.023,0 c -41.365,0 -56.746,6.826 -56.746,44.503 l 0,88.721 0,93.344 0,51.147 c 0,37.514 8.46,69.281 24.813,94.883 31.569,49.62 92.729,76.049 179.677,76.049 0.104,0 0.212,-0.01 0.316,-0.01 0.109,0 0.212,0.01 0.321,0.01 86.943,0 148.104,-26.429 179.673,-76.049 16.352,-25.602 24.806,-57.369 24.806,-94.883 l 0,-51.147 0,-93.344 0,-35.16 -45.04,-0.017 z"
     id="path3339"
     inkscape:connector-curvature="0"
     style="fill:#a6c307" /><path
     d="m 1791.363,787.546 -68.034,-0.022 c -7.417,-0.005 -13.436,-6.019 -13.436,-13.442 l 0.03,-68.876 c 0,-7.424 6.021,-13.433 13.437,-13.433 l 68.035,0.022 c 7.425,0.004 13.435,6.023 13.435,13.442 l -0.021,68.876 c -0.01,7.423 -6.025,13.433 -13.446,13.433"
     id="path3341"
     inkscape:connector-curvature="0"
     style="fill:#a6c307" /><path
     d="m 1700.708,691.781 -46.21,-0.019 c -5.041,0 -9.124,-4.086 -9.124,-9.129 l 0.015,-46.779 c 0,-5.037 4.088,-9.122 9.131,-9.122 l 46.206,0.018 c 5.038,0 9.126,4.09 9.126,9.129 l -0.017,46.78 c 0,5.038 -4.089,9.122 -9.127,9.122"
     id="path3343"
     inkscape:connector-curvature="0"
     style="fill:#a6c307" /><path
     d="m 442.258,818.247 -98.947,0 c -52.876,0 -76.452,23.58 -76.452,76.453 l 0,339.626 c 0,20.425 6.555,26.982 26.981,26.982 l 6.69,0 c 20.426,0 26.98,-6.558 26.98,-26.982 l 0,-132.13 114.747,0 c 101.876,0 149.328,-45.117 149.328,-141.974 0,-96.865 -47.45,-141.975 -149.327,-141.975 m 88.673,141.975 c 0,55.342 -14.128,85.328 -88.673,85.328 l -114.747,0 0,-142.824 c 0,-19.804 7.367,-27.171 27.168,-27.171 l 87.579,0 c 56.162,0 88.673,13.853 88.673,84.667"
     id="path3345"
     inkscape:connector-curvature="0"
     style="fill:#a6c307" /><path
     d="m 719.023,915.636 c -39.219,0 -63.787,4.92 -73.108,6.78 -16.505,3.592 -23.403,8.122 -23.403,26.888 l 0,5.349 c 0,7.355 1.086,12.445 3.425,16.034 2.716,4.175 7.099,6.291 13.018,6.291 2.893,0 6.236,-0.483 10.238,-1.485 9.422,-2.355 39.553,-7.227 72.506,-7.227 59.181,0 83.323,16.395 83.323,56.589 l 0,35.854 -74.636,0 c -95.948,0 -140.632,32.363 -140.632,101.862 0,67.407 46.144,104.532 129.941,104.532 99.568,0 143.971,-33.89 143.971,-109.881 l 0,-132.367 c 0,-73.493 -47.313,-109.219 -144.643,-109.219 m 85.998,193.026 0,46.557 c 0,37.951 -14.071,59.922 -85.998,59.922 -47.524,0 -70.625,-17.194 -70.625,-52.569 0,-38.797 23.176,-53.909 82.657,-53.909 l 73.966,0 z"
     id="path3347"
     inkscape:connector-curvature="0"
     style="fill:#a6c307" /><path
     d="m 1191.843,931.464 c -4.221,-5.308 -12.221,-6.039 -20.232,-6.039 l -6.013,0 c -19.968,0 -27.799,6.161 -32.22,25.317 l -55.482,230.634 c -6.927,28.338 -16.65,33.526 -33.308,33.526 -20.389,0 -28.546,-4.866 -36.68,-33.637 l -62.84,-230.637 c -5.2,-19.313 -12.874,-25.204 -32.853,-25.204 l -5.349,0 c -8.062,0 -16.086,0.736 -20.208,6.115 -4.128,5.385 -2.733,13.422 -0.606,21.318 l 63.51,232.631 c 11.913,44.52 26.074,81.37 78.984,81.37 9.881,0 19.012,-1.365 26.609,-3.936 -16.043,50.471 -32.375,72.739 -80.515,77.678 -9.771,0.82 -16.12,2.213 -19.66,6.955 -3.669,4.922 -2.836,11.965 -1.522,18.263 l 1.325,5.962 c 2.871,13.792 7.767,22.347 23.253,22.347 1.628,0 3.378,-0.09 5.256,-0.25 71.883,-4.704 110.4,-43.404 132.944,-133.577 l 76.898,-307.606 c 1.827,-7.894 2.926,-15.928 -1.291,-21.23"
     id="path3349"
     inkscape:connector-curvature="0"
     style="fill:#a6c307" /><path
     d="m 1691.786,787.493 -91.601,-0.03 c -9.992,-0.006 -18.1,8.093 -18.1,18.084 l 0,12.777 6.356,0 c 41.363,0 56.744,6.83 56.744,44.506 l 0,53.558 46.557,0.019 c 9.988,0.005 18.092,-8.096 18.097,-18.083 l 0.033,-92.736 c 10e-4,-9.991 -8.09,-18.09 -18.081,-18.095"
     id="path3351"
     inkscape:connector-curvature="0"
     style="fill:#a6c307" /></svg>