<svg xmlns="http://www.w3.org/2000/svg" xmlns:xlink="http://www.w3.org/1999/xlink" viewBox="0 0 315.741 55"><defs><path id="a" d="M0 0h315.741v55H0z"/></defs><clipPath id="b"><use xlink:href="#a" overflow="visible"/></clipPath><path clip-path="url(#b)" d="M136.283 37.128V25.65c0-4.322-2.755-7.23-7.193-7.269-2.333-.038-4.744.689-6.427 3.252-1.262-2.027-3.252-3.252-6.044-3.252-1.951 0-3.863.574-5.356 2.717v-2.257h-3.979v18.287h4.017V26.989c0-3.175 1.76-4.858 4.476-4.858 2.64 0 3.979 1.722 3.979 4.82v10.177h4.017V26.989c0-3.175 1.836-4.858 4.476-4.858 2.715 0 4.016 1.722 4.016 4.82v10.177h4.018zm59.448-18.287h-6.503v-5.548h-4.016v5.548H181.5v3.634h3.712v8.339c0 4.248 1.644 6.772 6.35 6.772 1.721 0 3.711-.535 4.973-1.416l-1.149-3.404c-1.184.689-2.485 1.033-3.517 1.033-1.99 0-2.641-1.225-2.641-3.06v-8.265h6.503v-3.633zm33.934-.46c-2.295 0-3.787 1.072-4.82 2.679v-2.219h-3.94v18.287h3.979V26.874c0-3.021 1.301-4.705 3.902-4.705.804 0 1.644.115 2.487.459l1.225-3.749c-.882-.344-2.03-.498-2.833-.498m-51.302 1.913c-1.912-1.262-4.552-1.913-7.459-1.913-4.629 0-7.612 2.22-7.612 5.854 0 2.984 2.219 4.821 6.312 5.394l1.875.268c2.18.306 3.213.879 3.213 1.913 0 1.415-1.453 2.218-4.171 2.218-2.753 0-4.742-.88-6.081-1.912l-1.874 3.099c2.18 1.605 4.935 2.372 7.917 2.372 5.281 0 8.341-2.486 8.341-5.968 0-3.215-2.409-4.897-6.389-5.471l-1.874-.267c-1.723-.23-3.101-.574-3.101-1.798 0-1.339 1.301-2.143 3.482-2.143 2.333 0 4.59.88 5.699 1.569l1.722-3.215zm29.764-1.913c-5.354 0-9.105 3.903-9.105 9.603 0 5.815 3.902 9.602 9.373 9.602 2.756 0 5.279-.688 7.499-2.564l-1.951-2.944c-1.53 1.225-3.481 1.912-5.317 1.912-2.563 0-4.897-1.186-5.471-4.476h13.58c.038-.497.078-.995.078-1.53-.041-5.7-3.559-9.603-8.686-9.603m-.077 3.558c2.564 0 4.209 1.607 4.629 4.438h-9.486c.42-2.639 2.025-4.438 4.857-4.438m-49.35 6.045v-9.143h-3.978v2.219c-1.263-1.645-3.176-2.679-5.777-2.679-5.126 0-9.143 4.017-9.143 9.603 0 5.584 4.017 9.602 9.143 9.602 2.601 0 4.514-1.032 5.777-2.678v2.22h3.978v-9.144zm-14.805 0c0-3.214 2.104-5.853 5.547-5.853 3.29 0 5.51 2.525 5.51 5.853 0 3.329-2.22 5.853-5.51 5.853-3.443 0-5.547-2.64-5.547-5.853m132.633 0v-9.143h-3.978v2.219c-1.265-1.645-3.176-2.679-5.778-2.679-5.125 0-9.142 4.017-9.142 9.603 0 5.584 4.017 9.602 9.142 9.602 2.603 0 4.514-1.032 5.778-2.678v2.22h3.978v-9.144zm-14.805 0c0-3.214 2.104-5.853 5.548-5.853 3.29 0 5.51 2.525 5.51 5.853 0 3.329-2.22 5.853-5.51 5.853-3.444 0-5.548-2.64-5.548-5.853m-25.898-.038v15.761h3.979V34.87c1.262 1.645 3.174 2.678 5.776 2.678 5.127 0 9.143-4.017 9.143-9.602 0-5.586-4.016-9.603-9.143-9.603-2.603 0-4.515 1.033-5.776 2.678v-2.219h-3.979v9.144zm14.805 0c0 3.213-2.105 5.853-5.548 5.853-3.291 0-5.509-2.526-5.509-5.853 0-3.329 2.218-5.853 5.509-5.853 3.442 0 5.548 2.639 5.548 5.853m45.562-7.613c-1.913-1.263-4.554-1.913-7.46-1.913-4.629 0-7.614 2.219-7.614 5.853 0 2.984 2.221 4.82 6.313 5.394l1.875.268c2.18.307 3.213.879 3.213 1.913 0 1.415-1.454 2.218-4.169 2.218-2.756 0-4.744-.879-6.083-1.912l-1.875 3.099c2.181 1.607 4.936 2.372 7.918 2.372 5.28 0 8.34-2.486 8.34-5.968 0-3.214-2.409-4.896-6.387-5.47l-1.875-.268c-1.722-.23-3.099-.574-3.099-1.798 0-1.339 1.299-2.143 3.481-2.143 2.332 0 4.589.88 5.698 1.569l1.724-3.214zm19.089 0c-1.912-1.263-4.552-1.913-7.46-1.913-4.629 0-7.612 2.219-7.612 5.853 0 2.984 2.219 4.82 6.312 5.394l1.874.268c2.182.307 3.215.879 3.215 1.913 0 1.415-1.454 2.218-4.17 2.218-2.754 0-4.743-.879-6.082-1.912l-1.876 3.099c2.181 1.607 4.937 2.372 7.92 2.372 5.278 0 8.34-2.486 8.34-5.968 0-3.214-2.41-4.896-6.39-5.47l-1.874-.268c-1.721-.23-3.099-.574-3.099-1.798 0-1.339 1.3-2.143 3.48-2.143 2.335 0 4.592.88 5.7 1.569l1.722-3.214z"/><path clip-path="url(#b)" fill="#F79E1B" d="M61.485 0c-15.188 0-27.5 12.312-27.5 27.5S46.297 55 61.485 55s27.5-12.312 27.5-27.5S76.673 0 61.485 0"/><path clip-path="url(#b)" fill="#EB001B" d="M27.5 0C12.312 0 0 12.312 0 27.5S12.312 55 27.5 55 55 42.688 55 27.5 42.688 0 27.5 0"/><path clip-path="url(#b)" fill="#FF5F00" d="M55 27.5c0-8.771-4.112-16.578-10.508-21.613-6.395 5.035-10.507 12.842-10.507 21.613 0 8.771 4.112 16.578 10.507 21.613C50.888 44.078 55 36.271 55 27.5"/></svg>