<svg xmlns="http://www.w3.org/2000/svg" viewBox="0 0 400 400"><title>paypal</title><path d="M243.7,256.76H224.25a2.7,2.7,0,0,0-2.67,2.28l-7.86,49.86a1.62,1.62,0,0,0,1.6,1.87h10a1.89,1.89,0,0,0,1.87-1.6L229.39,295a2.7,2.7,0,0,1,2.67-2.28h6.15c12.81,0,20.2-6.2,22.13-18.49.87-5.37,0-9.6-2.48-12.55C255.1,258.48,250.2,256.76,243.7,256.76ZM245.94,275c-1.06,7-6.39,7-11.55,7h-2.93l2.06-13a1.62,1.62,0,0,1,1.6-1.37h1.34c3.51,0,6.83,0,8.53,2C246,270.75,246.33,272.52,245.94,275Z" fill="#009cde"/><path d="M105,256.76H85.55A2.7,2.7,0,0,0,82.88,259L75,308.91a1.62,1.62,0,0,0,1.6,1.87h9.28a2.7,2.7,0,0,0,2.67-2.28L90.7,295a2.7,2.7,0,0,1,2.67-2.28h6.15c12.81,0,20.2-6.2,22.13-18.49.87-5.37,0-9.6-2.48-12.55C116.41,258.48,111.5,256.76,105,256.76ZM107.24,275c-1.06,7-6.39,7-11.55,7H92.76l2.06-13a1.62,1.62,0,0,1,1.6-1.37h1.34c3.51,0,6.83,0,8.53,2C107.32,270.75,107.63,272.52,107.24,275Z" fill="#003087"/><path d="M163.12,274.75h-9.31a1.62,1.62,0,0,0-1.6,1.37l-.41,2.6-.65-.94c-2-2.93-6.51-3.91-11-3.91-10.29,0-19.08,7.8-20.79,18.73-.89,5.45.37,10.67,3.47,14.31,2.84,3.34,6.9,4.73,11.73,4.73a17.83,17.83,0,0,0,12.89-5.33L147,308.9a1.62,1.62,0,0,0,1.6,1.87H157a2.7,2.7,0,0,0,2.67-2.28l5-31.88A1.62,1.62,0,0,0,163.12,274.75Zm-13,18.12a10.38,10.38,0,0,1-10.51,8.89,7.21,7.21,0,0,1-7.71-9.05,10.42,10.42,0,0,1,10.44-9,7.85,7.85,0,0,1,6.21,2.54A8,8,0,0,1,150.14,292.87Z" fill="#003087"/><path d="M301.82,274.75h-9.31a1.62,1.62,0,0,0-1.6,1.37l-.41,2.6-.65-.94c-2-2.93-6.51-3.91-11-3.91-10.29,0-19.08,7.8-20.79,18.73-.89,5.45.37,10.67,3.47,14.31,2.84,3.34,6.9,4.73,11.73,4.73a17.83,17.83,0,0,0,12.89-5.33l-.42,2.59a1.62,1.62,0,0,0,1.6,1.87h8.39a2.7,2.7,0,0,0,2.67-2.28l5-31.88A1.62,1.62,0,0,0,301.82,274.75Zm-13,18.12a10.38,10.38,0,0,1-10.51,8.89,7.21,7.21,0,0,1-7.71-9.05,10.42,10.42,0,0,1,10.44-9,7.85,7.85,0,0,1,6.21,2.54A8,8,0,0,1,288.84,292.87Z" fill="#009cde"/><path d="M212.72,274.75h-9.36a2.7,2.7,0,0,0-2.24,1.18l-12.91,19-5.47-18.27a2.7,2.7,0,0,0-2.59-1.93H171a1.62,1.62,0,0,0-1.53,2.14l10.31,30.25L170,320.82a1.62,1.62,0,0,0,1.32,2.56h9.35a2.7,2.7,0,0,0,2.22-1.16L214,277.29A1.62,1.62,0,0,0,212.72,274.75Z" fill="#003087"/><path d="M312.79,258.13l-8,50.78a1.62,1.62,0,0,0,1.6,1.87h8a2.7,2.7,0,0,0,2.67-2.28L325,258.64a1.62,1.62,0,0,0-1.6-1.87h-9A1.62,1.62,0,0,0,312.79,258.13Z" fill="#009cde"/><path d="M261.86,117.81c2-12.61,0-21.19-6.83-29-7.51-8.56-21.08-12.22-38.43-12.22H166.21a7.21,7.21,0,0,0-7.12,6.09l-21,133a4.32,4.32,0,0,0,4.27,5h31.1l-2.15,13.61a3.78,3.78,0,0,0,3.74,4.37h26.22a6.31,6.31,0,0,0,6.23-5.32l.26-1.33,4.94-31.32L213,199a6.31,6.31,0,0,1,6.23-5.32h3.92c25.4,0,45.29-10.32,51.1-40.16,2.43-12.47,1.17-22.88-5.25-30.2a25,25,0,0,0-7.18-5.54h0" fill="#009cde"/><path d="M261.86,117.81c2-12.61,0-21.19-6.83-29-7.51-8.56-21.08-12.22-38.43-12.22H166.21a7.21,7.21,0,0,0-7.12,6.09l-21,133a4.32,4.32,0,0,0,4.27,5h31.1l7.81-49.54-.24,1.55a7.18,7.18,0,0,1,7.09-6.08h14.78c29,0,51.77-11.8,58.41-45.91.2-1,.36-2,.52-3" fill="#012169"/><path d="M189.69,118a6.3,6.3,0,0,1,6.23-5.32h39.49a82.36,82.36,0,0,1,13,.95q1.71.28,3.33.63t3.14.8q.76.22,1.49.47a35.61,35.61,0,0,1,5.46,2.31c2-12.61,0-21.19-6.83-29-7.51-8.56-21.08-12.22-38.43-12.22H166.21a7.21,7.21,0,0,0-7.12,6.09l-21,133a4.32,4.32,0,0,0,4.27,5h31.1l7.81-49.54Z" fill="#003087"/></svg>