<?xml version="1.0" encoding="utf-8"?>
<!-- Generator: Adobe Illustrator 17.0.0, SVG Export Plug-In . SVG Version: 6.00 Build 0)  -->
<!DOCTYPE svg PUBLIC "-//W3C//DTD SVG 1.1//EN" "http://www.w3.org/Graphics/SVG/1.1/DTD/svg11.dtd">
<svg version="1.1" xmlns="http://www.w3.org/2000/svg" xmlns:xlink="http://www.w3.org/1999/xlink" x="0px" y="0px" width="880px"
	 height="440px" viewBox="0 0 880 440" enable-background="new 0 0 880 440" xml:space="preserve">
<g id="Layer_2">
	<rect x="0" y="0" fill="none" width="880" height="440"/>
</g>
<g id="logo-paypal">
	<path id="path14499" fill="#253B80" d="M224.95,147.578c-7.986-9.103-22.423-13.005-40.891-13.005h-53.601
		c-3.779,0-6.989,2.748-7.581,6.474l-22.318,141.548c-0.444,2.791,1.718,5.32,4.547,5.32h33.091l8.311-52.714l-0.258,1.651
		c0.592-3.726,3.779-6.474,7.552-6.474h15.725c30.892,0,55.08-12.547,62.146-48.845c0.21-1.073,0.391-2.118,0.549-3.139
		c-0.892-0.472-0.892-0.472,0,0C234.325,164.977,232.205,155.846,224.95,147.578"/>
	<path id="path14519" fill="#263A7F" d="M566.837,214.51h-17.81c-1.703,0-3.297,0.844-4.251,2.257l-24.57,36.183l-10.41-34.77
		c-0.654-2.176-2.657-3.669-4.928-3.669h-17.504c-2.113,0-3.602,2.08-2.92,4.079l19.608,57.566l-18.444,26.025
		c-1.446,2.042,0.015,4.866,2.519,4.866h17.791c1.684,0,3.263-0.825,4.227-2.209l59.226-85.485
		C570.787,217.306,569.327,214.51,566.837,214.51 M447.771,248.999c-1.713,10.124-9.747,16.922-20,16.922
		c-5.138,0-9.256-1.656-11.899-4.785c-2.619-3.101-3.607-7.524-2.777-12.443c1.593-10.038,9.761-17.051,19.857-17.051
		c5.033,0,9.117,1.67,11.813,4.828C447.48,239.652,448.548,244.099,447.771,248.999 M472.465,214.51h-17.719
		c-1.517,0-2.81,1.102-3.049,2.605l-0.778,4.952l-1.236-1.794c-3.841-5.568-12.395-7.433-20.935-7.433
		c-19.575,0-36.297,14.838-39.551,35.643c-1.694,10.381,0.711,20.3,6.598,27.223c5.405,6.36,13.12,9.007,22.314,9.007
		c15.782,0,24.532-10.133,24.532-10.133l-0.792,4.924c-0.296,1.87,1.15,3.564,3.049,3.564h15.954c2.533,0,4.685-1.837,5.081-4.337
		l9.58-60.657C475.809,216.203,474.359,214.51,472.465,214.51 M366.134,214.935c-2.023,13.282-12.166,13.282-21.98,13.282h-5.582
		l3.917-24.799c0.234-1.498,1.527-2.6,3.044-2.6h2.562c6.679,0,12.986,0,16.24,3.802
		C366.282,206.896,366.869,210.274,366.134,214.935 M361.864,180.279h-37.003c-2.533,0-4.685,1.842-5.081,4.342l-14.962,94.884
		c-0.296,1.87,1.15,3.564,3.044,3.564h17.671c2.529,0,4.68-1.842,5.076-4.337l4.041-25.601c0.391-2.5,2.548-4.342,5.076-4.342
		h11.708c24.375,0,38.444-11.794,42.118-35.176c1.655-10.219,0.067-18.253-4.718-23.878
		C383.572,183.552,374.245,180.279,361.864,180.279"/>
	<path id="path14523" fill="#179BD7" d="M757.275,182.887l-15.186,96.62c-0.296,1.87,1.15,3.564,3.044,3.564h15.276
		c2.529,0,4.685-1.842,5.076-4.342l14.976-94.884c0.296-1.87-1.15-3.564-3.049-3.564h-17.089
		C758.802,180.282,757.509,181.384,757.275,182.887 M711.696,248.999c-1.713,10.124-9.747,16.922-20,16.922
		c-5.138,0-9.256-1.655-11.899-4.785c-2.624-3.101-3.607-7.524-2.777-12.443c1.594-10.038,9.761-17.051,19.857-17.051
		c5.033,0,9.117,1.67,11.813,4.828C711.405,239.652,712.474,244.099,711.696,248.999 M736.391,214.51h-17.719
		c-1.517,0-2.81,1.102-3.049,2.605l-0.778,4.952l-1.24-1.794c-3.836-5.568-12.39-7.433-20.93-7.433
		c-19.575,0-36.297,14.838-39.551,35.643c-1.694,10.382,0.711,20.3,6.598,27.223c5.405,6.36,13.12,9.007,22.314,9.007
		c15.782,0,24.532-10.133,24.532-10.133l-0.792,4.924c-0.296,1.87,1.15,3.564,3.049,3.564h15.954c2.533,0,4.685-1.837,5.081-4.337
		l9.58-60.657C739.735,216.203,738.285,214.51,736.391,214.51 M630.06,214.935c-2.023,13.282-12.166,13.282-21.98,13.282h-5.582
		l3.917-24.799c0.234-1.498,1.527-2.6,3.044-2.6h2.562c6.679,0,12.986,0,16.24,3.802
		C630.208,206.896,630.794,210.274,630.06,214.935 M625.79,180.279h-37.003c-2.533,0-4.685,1.842-5.081,4.342l-14.962,94.884
		c-0.296,1.87,1.155,3.564,3.044,3.564h18.988c1.77,0,3.278-1.288,3.554-3.034l4.246-26.903c0.391-2.5,2.548-4.342,5.076-4.342
		h11.708c24.375,0,38.444-11.794,42.118-35.176c1.655-10.219,0.067-18.253-4.718-23.878
		C647.497,183.552,638.17,180.279,625.79,180.279"/>
	<path id="path14527" fill="#253B80" d="M224.95,147.578c-7.986-9.103-22.423-13.005-40.891-13.005h-53.601
		c-3.779,0-6.989,2.748-7.581,6.474l-22.318,141.548c-0.444,2.791,1.718,5.32,4.547,5.32h33.091l8.311-52.714l-0.258,1.651
		c0.592-3.726,3.779-6.474,7.552-6.474h15.725c30.892,0,55.08-12.547,62.146-48.845c0.21-1.073,0.391-2.118,0.549-3.139
		c-0.892-0.472-0.892-0.472,0,0C234.325,164.977,232.205,155.846,224.95,147.578"/>
	<path id="path14531" fill="#263A7F" d="M155.439,178.571c0.353-2.242,1.794-4.079,3.731-5.009c0.883-0.42,1.865-0.654,2.896-0.654
		h42.022c4.976,0,9.618,0.324,13.859,1.007c1.217,0.195,2.395,0.42,3.54,0.677c1.145,0.253,2.257,0.539,3.335,0.854
		c0.539,0.157,1.069,0.32,1.589,0.491c2.085,0.697,4.027,1.508,5.811,2.457c2.104-13.421-0.015-22.547-7.271-30.815
		c-7.991-9.103-22.423-13.005-40.891-13.005h-53.606c-3.774,0-6.985,2.748-7.576,6.474l-22.318,141.543
		c-0.444,2.796,1.718,5.32,4.542,5.32h33.096l8.311-52.714L155.439,178.571L155.439,178.571z"/>
	<path id="path14535" fill="#179BD7" d="M232.222,178.393L232.222,178.393c-0.162,1.026-0.339,2.066-0.549,3.139
		c-7.066,36.292-31.254,48.845-62.146,48.845h-15.73c-3.774,0-6.961,2.748-7.548,6.474l-8.053,51.058l-2.285,14.484
		c-0.386,2.443,1.503,4.656,3.974,4.656h27.895c3.301,0,6.112-2.405,6.627-5.663l0.272-1.422l5.258-33.32l0.339-1.842
		c0.515-3.259,3.325-5.663,6.627-5.663h4.175c27.022,0,48.181-10.978,54.364-42.728c2.581-13.268,1.245-24.346-5.582-32.127
		C237.79,181.928,235.218,179.982,232.222,178.393"/>
	<path id="path14539" fill="#232C64" d="M224.823,175.444c-1.078-0.315-2.19-0.601-3.335-0.854c-1.145-0.253-2.328-0.477-3.54-0.673
		c-4.246-0.687-8.883-1.011-13.864-1.011h-42.017c-1.035,0-2.018,0.234-2.896,0.658c-1.942,0.93-3.378,2.762-3.731,5.009
		l-8.931,56.626l-0.258,1.651c0.587-3.726,3.774-6.474,7.548-6.474h15.73c30.892,0,55.08-12.548,62.146-48.845
		c0.21-1.073,0.386-2.114,0.549-3.139c-1.789-0.945-3.726-1.76-5.811-2.452C225.892,175.769,225.363,175.601,224.823,175.444"/>
</g>
</svg>
