<?xml version="1.0" encoding="utf-8"?>
<!-- Generator: Adobe Illustrator 16.0.0, SVG Export Plug-In . SVG Version: 6.00 Build 0)  -->
<!DOCTYPE svg PUBLIC "-//W3C//DTD SVG 1.1//EN" "http://www.w3.org/Graphics/SVG/1.1/DTD/svg11.dtd">
<svg version="1.1" id="Layer_1" xmlns="http://www.w3.org/2000/svg" xmlns:xlink="http://www.w3.org/1999/xlink" x="0px" y="0px"
	 width="500px" height="300px" viewBox="0 0 500 300" enable-background="new 0 0 500 300" xml:space="preserve">
<g>
	<path fill-rule="evenodd" clip-rule="evenodd" fill="none" d="M0.777,100.476c167.042,0,333.813,0,500.722,0
		c0,33.557,0,67.113,0,100.67c-166.871,0-333.779,0-500.722,0C0.777,167.623,0.777,134.102,0.777,100.476z M190.645,111.986
		c-1.28,0.066-2.122-0.112-2.296,0.151c-3.063,4.647-6.611,2.421-10.319,1.004c-5.566-2.127-11.372-2.768-17.258-1.489
		c-14.176,3.081-24.241,14.455-26.993,30.409c-2.96,17.163,6.666,33.857,22.704,39.378c16.633,5.727,33.381-0.998,41.571-17.368
		c5.352-10.696,9.803-21.843,14.679-32.778c0.618-1.386,1.369-2.712,2.102-4.154c0.707,0.546,1.016,0.661,1.102,0.869
		c5.775,13.96,11.657,27.88,17.222,41.925c1.98,4.999,0.565,6.799-5.069,8.285c-0.75,0.197-1.353,0.954-2.024,1.451
		c0.757,0.578,1.507,1.648,2.271,1.66c8.043,0.12,16.088,0.105,24.132,0.004c0.653-0.009,1.46-0.841,1.852-1.497
		c0.137-0.229-0.677-1.474-1.197-1.582c-5.592-1.169-7.679-5.479-9.671-10.135c-7.288-17.017-14.674-33.992-22.159-50.922
		c-0.728-1.647-2.396-2.878-3.628-4.303c-1.254,1.372-2.933,2.545-3.689,4.151c-3.59,7.634-6.782,15.457-10.395,23.081
		c-4.19,8.841-8.003,17.966-13.21,26.19c-5.424,8.568-14.188,12.116-24.415,10.875c-9.242-1.123-15.549-6.573-18.953-14.926
		c-4.472-10.971-4.165-22.147,0.867-32.914c3.693-7.903,9.713-13.096,18.849-13.604c9.386-0.523,15.755,3.967,20.031,12.111
		c0.621,1.181,2.55,1.676,3.873,2.488c0.325-0.334,0.649-0.669,0.975-1.003C191.287,123.673,190.976,118.005,190.645,111.986z
		 M481.585,182.743c0.37-0.269,0.74-0.536,1.11-0.805c0-1.605,0.001-3.21,0-4.815c-0.008-17.184-0.034-34.367-0.014-51.55
		c0.008-6.98,0.729-7.808,7.331-9.583c0.672-0.181,1.151-1.081,1.72-1.646c-0.665-0.486-1.324-1.384-1.996-1.394
		c-6.545-0.105-13.092-0.105-19.636,0.005c-0.671,0.011-1.325,0.93-1.988,1.427c0.595,0.558,1.103,1.437,1.796,1.624
		c6.468,1.743,7.732,3.167,7.772,9.875c0.069,11.591,0.009,23.184-0.014,34.776c-0.001,0.758-0.142,1.515-0.327,3.372
		c-1.446-1.728-2.294-2.678-3.073-3.68c-11.633-14.954-23.209-29.952-34.964-44.81c-1.067-1.351-3.208-2.371-4.956-2.558
		c-3.641-0.39-7.357-0.233-11.031-0.046c-1.101,0.056-2.16,0.954-3.238,1.465c0.912,0.572,1.755,1.384,2.75,1.676
		c4.537,1.331,5.874,3.016,5.873,7.858c-0.003,15.274,0.004,30.548-0.035,45.823c-0.014,5.478-1.259,6.967-6.39,8.413
		c-0.834,0.234-1.491,1.092-2.23,1.661c0.804,0.528,1.598,1.493,2.412,1.512c5.862,0.133,11.729,0.146,17.59-0.002
		c0.894-0.023,1.761-1.082,2.641-1.661c-0.798-0.522-1.531-1.313-2.405-1.525c-5.385-1.307-6.596-2.663-6.608-8.083
		c-0.032-13.774-0.025-27.548-0.013-41.322c0.001-1.156,0.163-2.311,0.344-4.689c1.502,1.85,2.313,2.815,3.089,3.807
		c13.436,17.18,26.846,34.38,40.343,51.512C478.511,180.743,480.188,181.633,481.585,182.743z M382.773,183.139
		c9.904,0.28,17.649-3.448,24.002-10.271c10.958-11.77,12.669-31.765,4.002-46.077c-9.524-15.728-28.825-20.59-44.374-10.781
		c-12.298,7.759-16.632,19.769-16.02,33.719C351.227,168.948,365.345,183.129,382.773,183.139z M68.401,163.429
		c-0.416-0.281-0.831-0.563-1.247-0.845c-0.93,1.073-2.153,2.009-2.74,3.245c-2.799,5.891-6.725,10.398-13.676,10.766
		c-5.301,0.282-10.629,0.062-15.944,0.014c-4.001-0.035-6.101-2.316-6.214-6.11c-0.198-6.674-0.2-13.359-0.004-20.032
		c0.026-0.908,1.617-2.457,2.571-2.527c3.658-0.272,7.435-0.518,10.997,0.145c1.988,0.37,3.848,2.355,5.358,3.989
		c0.811,0.877,0.658,2.591,1.153,3.842c0.195,0.492,0.971,1.029,1.488,1.035c0.439,0.005,1.268-0.722,1.272-1.132
		c0.078-7.401,0.057-14.803,0.057-22.206c-0.493-0.141-0.984-0.282-1.477-0.423c-0.575,1.072-1.368,2.082-1.69,3.225
		c-1.529,5.417-2.95,6.558-8.647,6.582c-2.727,0.012-5.458-0.104-8.178,0.028c-2.33,0.114-3.105-0.854-3.075-3.113
		c0.089-6.542,0.109-13.088-0.015-19.629c-0.048-2.544,0.996-3.327,3.39-3.286c5.86,0.101,11.724,0.011,17.585,0.062
		c4.353,0.037,7.59,1.992,9.431,5.978c0.738,1.597,1.07,3.389,1.875,4.944c0.405,0.782,1.452,1.233,2.209,1.834
		c0.404-0.754,1.126-1.495,1.16-2.265c0.169-3.947,0.116-7.903,0.234-11.852c0.064-2.131-0.894-2.855-2.948-2.851
		c-16.358,0.042-32.717,0.002-49.076,0.085c-0.81,0.005-1.614,0.905-2.421,1.387c0.696,0.583,1.312,1.51,2.1,1.692
		c5.526,1.275,6.8,2.706,6.807,8.332c0.02,14.996,0.013,29.991-0.008,44.986c-0.009,6.365-0.748,7.204-7.087,8.897
		c-0.698,0.187-1.22,1.032-1.824,1.571c0.615,0.533,1.157,1.226,1.868,1.548c0.568,0.26,1.34,0.078,2.021,0.078
		c15.95,0.001,31.899,0.005,47.849-0.011c1.194-0.002,2.387-0.143,3.868-0.237C66.438,175.122,67.419,169.276,68.401,163.429z
		 M122.048,130.399c0.335-0.326,0.67-0.653,1.005-0.98c0-5.293,0.038-10.587-0.045-15.88c-0.011-0.695-0.617-1.946-0.977-1.958
		c-0.792-0.024-1.99,0.358-2.341,0.966c-1.68,2.914-3.927,2.325-6.354,1.364c-1.517-0.6-3.023-1.284-4.598-1.673
		c-8.772-2.167-17.196-1.888-23.969,4.981c-9.903,10.044-6.216,24.666,7.495,30.365c6.522,2.711,13.214,5.055,19.58,8.087
		c4.774,2.274,6.683,6.651,5.971,11.933c-0.665,4.938-3.676,8.03-8.199,9.806c-7.571,2.974-17.938,0.696-23.341-5.459
		c-1.939-2.21-3.154-5.042-4.884-7.459c-0.542-0.757-1.656-1.398-2.562-1.478c-0.476-0.042-1.407,1.179-1.554,1.942
		c-1.022,5.292-1.893,10.613-2.863,16.219c1.117,0,2.104,0.267,2.335-0.04c3.631-4.798,7.766-2.445,12.131-1.317
		c5.731,1.481,11.646,3.086,17.491,3.114c11.958,0.059,21.29-9.635,21.152-20.949c-0.117-9.678-6.469-14.486-14.375-17.904
		c-6.235-2.695-12.674-4.944-18.806-7.849c-4.946-2.343-6.968-6.829-5.974-11.392c1.006-4.617,5.11-8.239,10.059-8.877
		c9.139-1.177,16.047,2.585,20.434,10.914C119.574,128.233,120.968,129.234,122.048,130.399z M315.959,163.907
		c-0.453-0.339-0.906-0.679-1.359-1.018c-0.803,1.023-1.824,1.942-2.369,3.089c-2.229,4.688-4.776,9.264-10.531,9.754
		c-5.95,0.507-11.966,0.352-17.95,0.304c-3.841-0.031-5.541-2.216-5.53-6.048c0.046-15.259-0.03-30.517,0.021-45.775
		c0.018-5.259,1.529-6.885,6.7-8.149c0.85-0.208,1.552-1.017,2.323-1.55c-0.763-0.545-1.517-1.552-2.287-1.564
		c-7.491-0.12-14.985-0.12-22.477-0.003c-0.766,0.012-1.517,1.009-2.274,1.549c0.625,0.527,1.169,1.328,1.887,1.538
		c5.639,1.654,6.38,2.5,6.387,8.202c0.02,15.123,0.011,30.244-0.006,45.366c-0.007,6.088-0.615,6.819-6.431,8.595
		c-0.714,0.219-1.246,1.03-1.863,1.565c0.753,0.548,1.503,1.57,2.26,1.575c16.075,0.093,32.151,0.108,48.226-0.022
		c0.897-0.007,2.383-1.274,2.574-2.172C314.331,174.102,315.092,168.993,315.959,163.907z M333.01,181.411
		c3.816,0,7.636,0.088,11.446-0.069c0.825-0.033,1.615-0.943,2.422-1.449c-0.718-0.586-1.351-1.487-2.167-1.708
		c-5.371-1.454-6.653-2.828-6.674-8.153c-0.061-15.265-0.07-30.53-0.031-45.795c0.014-5.31,1.384-6.807,6.638-8.192
		c0.823-0.217,1.47-1.101,2.198-1.676c-0.818-0.498-1.632-1.416-2.458-1.428c-7.358-0.113-14.721-0.112-22.078,0
		c-0.813,0.013-1.613,0.936-2.42,1.437c0.721,0.581,1.355,1.459,2.175,1.692c5.069,1.436,6.186,2.726,6.196,8.027
		c0.028,15.402,0.026,30.804-0.01,46.206c-0.012,5.026-1.226,6.426-5.975,7.827c-0.912,0.269-1.616,1.243-2.417,1.892
		c0.978,0.467,1.937,1.288,2.935,1.337C326.189,181.526,329.601,181.422,333.01,181.411z"/>
	<path fill-rule="evenodd" clip-rule="evenodd" fill="#414141" d="M190.645,111.986c0.331,6.019,0.642,11.688,0.953,17.356
		c-0.325,0.334-0.649,0.669-0.975,1.003c-1.323-0.813-3.252-1.307-3.873-2.488c-4.276-8.144-10.645-12.634-20.031-12.111
		c-9.136,0.508-15.156,5.702-18.849,13.604c-5.032,10.767-5.339,21.943-0.867,32.914c3.404,8.353,9.711,13.803,18.953,14.926
		c10.227,1.241,18.99-2.307,24.415-10.875c5.207-8.224,9.021-17.349,13.21-26.19c3.613-7.624,6.805-15.446,10.395-23.081
		c0.756-1.606,2.436-2.779,3.689-4.151c1.232,1.425,2.9,2.656,3.628,4.303c7.485,16.931,14.871,33.906,22.159,50.922
		c1.992,4.655,4.079,8.966,9.671,10.135c0.521,0.108,1.334,1.353,1.197,1.582c-0.392,0.656-1.198,1.488-1.852,1.497
		c-8.044,0.102-16.089,0.116-24.132-0.004c-0.765-0.012-1.515-1.082-2.271-1.66c0.671-0.497,1.274-1.254,2.024-1.451
		c5.634-1.486,7.05-3.286,5.069-8.285c-5.565-14.045-11.447-27.964-17.222-41.925c-0.085-0.208-0.395-0.323-1.102-0.869
		c-0.733,1.441-1.484,2.768-2.102,4.154c-4.876,10.935-9.328,22.082-14.679,32.778c-8.19,16.37-24.938,23.095-41.571,17.368
		c-16.038-5.521-25.665-22.215-22.704-39.378c2.752-15.954,12.817-27.328,26.993-30.409c5.886-1.279,11.692-0.638,17.258,1.489
		c3.708,1.417,7.257,3.643,10.319-1.004C188.523,111.874,189.365,112.052,190.645,111.986z"/>
	<path fill-rule="evenodd" clip-rule="evenodd" fill="#414141" d="M481.585,182.743c-1.396-1.11-3.073-2-4.148-3.364
		c-13.497-17.132-26.907-34.332-40.343-51.512c-0.776-0.992-1.587-1.958-3.089-3.807c-0.181,2.379-0.343,3.534-0.344,4.689
		c-0.013,13.774-0.02,27.548,0.013,41.322c0.013,5.42,1.224,6.776,6.608,8.083c0.874,0.212,1.607,1.003,2.405,1.525
		c-0.88,0.579-1.747,1.638-2.641,1.661c-5.86,0.148-11.728,0.135-17.59,0.002c-0.814-0.019-1.608-0.983-2.412-1.512
		c0.739-0.569,1.396-1.427,2.23-1.661c5.131-1.446,6.376-2.936,6.39-8.413c0.039-15.275,0.032-30.549,0.035-45.823
		c0.001-4.842-1.336-6.528-5.873-7.858c-0.995-0.292-1.838-1.104-2.75-1.676c1.078-0.511,2.138-1.409,3.238-1.465
		c3.674-0.187,7.391-0.343,11.031,0.046c1.748,0.187,3.889,1.208,4.956,2.558c11.755,14.858,23.331,29.856,34.964,44.81
		c0.779,1.002,1.627,1.952,3.073,3.68c0.186-1.857,0.326-2.614,0.327-3.372c0.022-11.592,0.083-23.185,0.014-34.776
		c-0.04-6.708-1.305-8.132-7.772-9.875c-0.693-0.187-1.201-1.065-1.796-1.624c0.663-0.497,1.317-1.416,1.988-1.427
		c6.544-0.11,13.091-0.11,19.636-0.005c0.672,0.01,1.331,0.908,1.996,1.394c-0.568,0.566-1.048,1.466-1.72,1.646
		c-6.602,1.775-7.323,2.603-7.331,9.583c-0.021,17.184,0.006,34.367,0.014,51.55c0.001,1.605,0,3.21,0,4.815
		C482.325,182.207,481.955,182.475,481.585,182.743z"/>
	<path fill-rule="evenodd" clip-rule="evenodd" fill="#414141" d="M382.773,183.139c-17.428-0.01-31.546-14.191-32.39-33.411
		c-0.612-13.95,3.722-25.959,16.02-33.719c15.549-9.809,34.85-4.947,44.374,10.781c8.667,14.313,6.956,34.308-4.002,46.077
		C400.423,179.691,392.677,183.419,382.773,183.139z M360.91,146.043c-0.028,9.313,1.495,17.267,6.225,24.291
		c7.643,11.352,22.766,11.914,31.266,1.262c9.205-11.537,9.771-35.484,1.126-47.541c-9.096-12.682-25.394-12.038-33.371,1.402
		C362.228,132.073,360.856,139.389,360.91,146.043z"/>
	<path fill-rule="evenodd" clip-rule="evenodd" fill="#414141" d="M68.401,163.429c-0.982,5.847-1.963,11.693-2.979,17.747
		c-1.481,0.095-2.674,0.235-3.868,0.237c-15.95,0.016-31.899,0.012-47.849,0.011c-0.682,0-1.454,0.182-2.021-0.078
		c-0.71-0.322-1.252-1.015-1.868-1.548c0.604-0.539,1.126-1.385,1.824-1.571c6.34-1.693,7.078-2.532,7.087-8.897
		c0.021-14.995,0.028-29.99,0.008-44.986c-0.007-5.625-1.281-7.056-6.807-8.332c-0.788-0.182-1.404-1.109-2.1-1.692
		c0.807-0.482,1.612-1.382,2.421-1.387c16.358-0.083,32.717-0.043,49.076-0.085c2.054-0.005,3.012,0.72,2.948,2.851
		c-0.118,3.949-0.064,7.905-0.234,11.852c-0.033,0.77-0.755,1.511-1.16,2.265c-0.757-0.601-1.804-1.052-2.209-1.834
		c-0.804-1.556-1.136-3.348-1.875-4.944c-1.841-3.986-5.079-5.94-9.431-5.978c-5.861-0.051-11.725,0.039-17.585-0.062
		c-2.394-0.041-3.438,0.742-3.39,3.286c0.125,6.541,0.104,13.087,0.015,19.629c-0.03,2.259,0.745,3.227,3.075,3.113
		c2.72-0.132,5.451-0.016,8.178-0.028c5.697-0.024,7.118-1.165,8.647-6.582c0.323-1.143,1.115-2.153,1.69-3.225
		c0.493,0.141,0.984,0.282,1.477,0.423c0,7.402,0.021,14.804-0.057,22.206c-0.004,0.41-0.833,1.137-1.272,1.132
		c-0.517-0.006-1.293-0.543-1.488-1.035c-0.496-1.251-0.342-2.965-1.153-3.842c-1.51-1.633-3.37-3.619-5.358-3.989
		c-3.562-0.663-7.339-0.417-10.997-0.145c-0.954,0.071-2.545,1.619-2.571,2.527c-0.196,6.672-0.194,13.358,0.004,20.032
		c0.113,3.794,2.212,6.075,6.214,6.11c5.315,0.048,10.644,0.269,15.944-0.014c6.951-0.367,10.877-4.875,13.676-10.766
		c0.587-1.236,1.81-2.172,2.74-3.245C67.57,162.865,67.985,163.148,68.401,163.429z"/>
	<path fill-rule="evenodd" clip-rule="evenodd" fill="#414141" d="M122.048,130.399c-1.081-1.166-2.474-2.166-3.189-3.524
		c-4.387-8.329-11.295-12.091-20.434-10.914c-4.949,0.638-9.053,4.26-10.059,8.877c-0.994,4.563,1.028,9.049,5.974,11.392
		c6.132,2.904,12.57,5.153,18.806,7.849c7.905,3.418,14.257,8.227,14.375,17.904c0.137,11.314-9.195,21.008-21.152,20.949
		c-5.844-0.028-11.76-1.633-17.491-3.114c-4.366-1.128-8.5-3.48-12.131,1.317c-0.231,0.307-1.218,0.04-2.335,0.04
		c0.97-5.605,1.84-10.927,2.863-16.219c0.147-0.764,1.078-1.984,1.554-1.942c0.906,0.079,2.021,0.721,2.562,1.478
		c1.729,2.417,2.944,5.249,4.884,7.459c5.403,6.155,15.77,8.433,23.341,5.459c4.523-1.775,7.534-4.867,8.199-9.806
		c0.711-5.281-1.197-9.658-5.971-11.933c-6.366-3.032-13.058-5.376-19.58-8.087c-13.71-5.699-17.397-20.321-7.495-30.365
		c6.773-6.869,15.197-7.148,23.969-4.981c1.575,0.389,3.081,1.073,4.598,1.673c2.427,0.961,4.674,1.549,6.354-1.364
		c0.351-0.608,1.548-0.99,2.341-0.966c0.36,0.011,0.966,1.262,0.977,1.958c0.083,5.292,0.045,10.586,0.045,15.88
		C122.718,129.746,122.383,130.073,122.048,130.399z"/>
	<path fill-rule="evenodd" clip-rule="evenodd" fill="#424242" d="M315.959,163.907c-0.867,5.086-1.628,10.194-2.701,15.236
		c-0.191,0.897-1.677,2.165-2.574,2.172c-16.074,0.131-32.15,0.115-48.226,0.022c-0.757-0.005-1.507-1.027-2.26-1.575
		c0.617-0.535,1.149-1.347,1.863-1.565c5.815-1.775,6.424-2.507,6.431-8.595c0.017-15.122,0.025-30.244,0.006-45.366
		c-0.007-5.702-0.748-6.548-6.387-8.202c-0.718-0.21-1.262-1.01-1.887-1.538c0.758-0.54,1.509-1.537,2.274-1.549
		c7.491-0.117,14.985-0.117,22.477,0.003c0.771,0.012,1.524,1.019,2.287,1.564c-0.771,0.533-1.474,1.342-2.323,1.55
		c-5.171,1.264-6.683,2.89-6.7,8.149c-0.051,15.258,0.025,30.516-0.021,45.775c-0.011,3.832,1.689,6.017,5.53,6.048
		c5.984,0.048,12,0.203,17.95-0.304c5.755-0.49,8.303-5.065,10.531-9.754c0.545-1.146,1.566-2.065,2.369-3.089
		C315.052,163.229,315.506,163.569,315.959,163.907z"/>
	<path fill-rule="evenodd" clip-rule="evenodd" fill="#424242" d="M333.01,181.416c-3.408,0.006-6.82,0.109-10.22-0.059
		c-0.998-0.049-1.957-0.87-2.935-1.337c0.801-0.648,1.505-1.623,2.417-1.892c4.749-1.401,5.963-2.801,5.975-7.827
		c0.036-15.402,0.038-30.804,0.01-46.206c-0.011-5.301-1.127-6.591-6.196-8.027c-0.819-0.233-1.454-1.112-2.175-1.692
		c0.807-0.501,1.606-1.424,2.42-1.437c7.357-0.112,14.72-0.113,22.078,0c0.826,0.013,1.64,0.931,2.458,1.428
		c-0.729,0.576-1.375,1.459-2.198,1.676c-5.254,1.385-6.624,2.882-6.638,8.192c-0.039,15.265-0.029,30.531,0.031,45.795
		c0.021,5.325,1.303,6.699,6.674,8.153c0.816,0.221,1.449,1.122,2.167,1.708c-0.807,0.506-1.597,1.416-2.422,1.449
		C340.645,181.499,336.826,181.411,333.01,181.416z"/>
	<path fill-rule="evenodd" clip-rule="evenodd" fill="none" d="M360.91,146.043c-0.054-6.654,1.318-13.97,5.245-20.585
		c7.978-13.44,24.275-14.084,33.371-1.402c8.646,12.056,8.079,36.003-1.126,47.541c-8.5,10.652-23.623,10.09-31.266-1.262
		C362.405,163.31,360.882,155.356,360.91,146.043z"/>
</g>
</svg>
