<svg id="Layer_1" xmlns="http://www.w3.org/2000/svg" viewBox="0 0 264 60"><style>.st0{fill:#2b2a29}.st1{fill:url(#_228176968_1_)}.st2{fill:#50504f}.st3{fill:#fff}.st4{fill:url(#_228176488_1_)}</style><g id="Layer_x0020_1"><g id="_228178168"><path id="_228162304" class="st0" d="M59.4 16v21.4c0 4.7-4.1 8.3-9.6 8.3s-9.6-3.6-9.6-8.3V21c0-2.7 2.2-5 4.9-5h.5v21.4c0 2.7 2.4 4.1 4.4 4.1 2 0 4.4-1.6 4.4-4.1V20.7c0-2.7 2.2-4.9 4.9-4.9h.2v.2z"/><path id="_228162184" class="st0" d="M69.9 23.6c7.2 0 8.5 4.1 8.5 6.6v15.4h-.3c-2.7 0-4.9-2.4-4.9-4.9V30.5c0-1.6-.5-3.1-3.5-3.1-1.4 0-2 .2-3 .5v17.9h-5.2V25.1c2.3-.9 5.9-1.5 8.4-1.5z"/><path id="_228162640" class="st0" d="M83.3 16c1.6 0 2.7 1.3 2.7 2.7 0 1.4-1.3 2.5-2.7 2.5-1.6 0-2.8-1.1-2.8-2.5 0-1.6 1.2-2.7 2.8-2.7zm2.7 7.6v17c0 2.7-2.2 4.9-4.9 4.9h-.3v-22H86v.1z"/><path id="_228162232" class="st0" d="M100.7 15.5c2.5 0 4.9.5 6.8 1.7v5c-1.3-1.6-2.8-2.7-5.5-2.7-5.3 0-8.6 5.2-8.6 10.7 0 5 3.5 10.7 8.6 10.7 2.2 0 4.4-.6 5.5-2.4v5c-1.6 1.1-3.8 1.7-6.8 1.7-8.3 0-12.9-7.7-12.9-15.2 0-6.8 4.4-14.5 12.9-14.5z"/><path id="_228162280" class="st0" d="M116.6 23.6c.8 0 1.9.2 2.8.3V28c-1.7-1.3-4.1-.8-5.2-.3v12.9c0 2.7-2.2 4.9-4.9 4.9h-.3V25.1c2.1-.9 4.3-1.5 7.6-1.5z"/><path id="_228162664" class="st0" d="M137.8 34.7l-13 1.7c.5 3.6 2.2 5.5 5.5 5.5 3.6 0 5.5-1.3 6.9-2v4.4c-1.4.6-3.8 1.6-7.2 1.6-6.3 0-10.2-4.2-10.2-11.2 0-6.8 3.6-11 9.3-11 5.7 0 9 3.8 9 10.2l-.3.8zm-4.5-3c-.2-4.4-2.8-4.9-4.2-4.9h-.2c-2.8.2-4.2 2.2-4.2 6l8.6-1.1z"/><path id="_228162424" class="st0" d="M156.4 16v29.2c-1.3.3-5.3.5-7.1.5h-.5c-6.3-.2-9.9-3.8-9.9-10.2 0-6.8 3.6-11 9.3-11 1.1 0 2 .2 2.8.3V21c0-2.7 2.2-4.9 4.9-4.9h.5V16zm-5.1 11.8c-.5-.2-1.1-.3-1.7-.3-4.2 0-5.2 4.1-5.2 7.5 0 4.9 1.6 7.1 4.9 7.1.5 0 1.7-.2 2.2-.2l-.2-14.1z"/><path id="_228162040" class="st0" d="M161.5 16c1.6 0 2.7 1.3 2.7 2.7 0 1.4-1.3 2.5-2.7 2.5-1.6 0-2.8-1.1-2.8-2.5-.1-1.6 1.1-2.7 2.8-2.7zm2.6 7.6v17c0 2.7-2.2 4.9-4.9 4.9h-.3v-22h5.2v.1z"/><path id="_228163168" class="st0" d="M173.2 16v7.5h3.3v4.1h-3.3v11.6c0 1.4.5 1.7 2 1.7.5 0 .9-.2 1.4-.3V45c-.3.2-1.3.5-2.7.5-3.8 0-6-1.9-6-5.2V27.6h-2.4v-4.1h2.4v-2.7c.2-2.6 2.4-4.8 5.3-4.8z"/><path id="_228163192" class="st0" d="M200.5 29.5c2.8.6 6.8 3.1 6.8 7.4 0 6-4.7 8.5-11.5 8.5-6.6 0-9-.2-9-.2V17c1.7-.9 4.9-1.6 8.6-1.6 7.2 0 11 3.1 11 7.5-.2 4.1-3.4 6.2-5.9 6.6zm.2-6.1c0-3.3-1.9-4.9-5.5-4.9-1.4 0-2.4.2-3.5.5v9.3h1.7c5.5.3 7.3-1.3 7.3-4.9zm-7.1 7.7h-1.7v11h3.6c3.6 0 6.1-1.4 6.1-5.2 0-4.1-2.2-6-8-5.8z"/><path id="_228163000" class="st0" d="M220.2 31.6V30c0-2.7-1.7-3.6-4.2-3.6-2 0-4.1.8-6.4 2V25c1.4-.6 3.9-1.6 7.2-1.6 4.4 0 8.2 2.2 8.2 7.7v14c-1.6.3-4.9.5-6.9.5H217c-5.8 0-8.8-2.5-8.8-6.6 0-5.4 5.5-6.8 12-7.4zm0 2.3c-4.6.5-7.4 1.4-7.4 5 0 2.7 1.6 3.9 4.6 3.9 1.1 0 2.4-.2 2.8-.2v-8.7z"/><path id="_228163336" class="st0" d="M235.4 23.6c7.2 0 8.5 4.1 8.5 6.6v15.4h-.3c-2.7 0-5-2.4-5-4.9V30.5c0-1.6-.5-3.1-3.5-3.1-1.4 0-2 .2-3 .5v17.9h-5.2V25.3c2.4-1.3 6-1.7 8.5-1.7z"/><path id="_228162928" class="st0" d="M251.6 40.2c0 2.8-2.2 5-5 5V20.9c0-2.8 2.2-5 5-5v17.8L258 24h4.9l-6.8 9.7 7.9 11.5h-5.5l-7.1-10.8v5.8h.2z"/><radialGradient id="_228176968_1_" cx="8.576" cy="-531.966" r="5.488" gradientTransform="matrix(1 0 0 -1 0 -510.2)" gradientUnits="userSpaceOnUse"><stop offset="0" stop-color="#fefefe"/><stop offset=".03" stop-color="#fefefe"/><stop offset=".36" stop-color="#f3997c"/><stop offset="1" stop-color="#e31e24"/></radialGradient><path id="_228176968" class="st1" d="M34.3 30c0 9.4-7.7 17.1-17.1 17.1S0 39.4 0 30s7.7-17.1 17.1-17.1S34.3 20.6 34.3 30z"/><path id="_228176584" class="st2" d="M15.7 20.9c.5.3 2.2 1.4 2.7 1.6.2 0 .2.2.2.2l.2-.2c.2-.3.3-.5-.3-.9-.5-.3-2.4-1.4-2.7-1.6l-.5-.5c.1.6.3 1.2.4 1.4z"/><path id="_228176512" class="st3" d="M16 25.1s1.9-2.7 2.2-2.8c.2-.3.3-.5-.3-.9-.5-.3-2.4-1.4-2.7-1.6-.5-.3-.3-1.3.8-1.6 1.1-.3 10.2-.9 13.7-.5 3.5.5 3.3 1.6 3.1 2.2-.2.8-1.4 2-3.3 3.8 0 0-3.1 3-5.5 4.9-2.4 2-9.7 8.3-11.3 9.4-1.6 1.1-7.1 5.3-7.4 5.7-.5.3-1.4 1.1-1.9.5-.5-.5 0-1.3.3-1.6.1-.3 11.5-16.4 12.3-17.5z"/><linearGradient id="_228176488_1_" gradientUnits="userSpaceOnUse" x1="2.941" y1="-551.233" x2="33.882" y2="-533.369" gradientTransform="matrix(1 0 0 -1 0 -510.2)"><stop offset="0" stop-color="#4b4b4a"/><stop offset=".03" stop-color="#4b4b4a"/><stop offset=".08" stop-color="#939494"/><stop offset=".14" stop-color="#4b4b4a"/><stop offset=".91" stop-color="#4b4b4a"/><stop offset=".96" stop-color="#939494"/><stop offset=".97" stop-color="#737372"/><stop offset="1" stop-color="#50504f"/></linearGradient><path id="_228176488" class="st4" d="M32.7 18.7c.2.3.3.9.2 1.3-.2.8-1.4 2-3.3 3.8 0 0-3.1 3-5.5 4.9-2.4 2-9.7 8.3-11.3 9.4-1.6 1.1-7.1 5.3-7.4 5.7-.3.3-1.6.5-2 .5.2.3.5.5.8.8.5.5 1.6-.3 1.9-.5.3-.2 6-4.4 7.4-5.7 1.4-1.3 9-7.4 11.3-9.4s5.5-4.9 5.5-4.9c1.9-1.7 3-2.7 3.1-3.5.1-.5.2-1.8-.7-2.4z"/></g></g></svg>