<?xml version="1.0" encoding="utf-8"?>
<!-- Generator: Adobe Illustrator 18.0.0, SVG Export Plug-In . SVG Version: 6.00 Build 0)  -->
<!DOCTYPE svg PUBLIC "-//W3C//DTD SVG 1.1//EN" "http://www.w3.org/Graphics/SVG/1.1/DTD/svg11.dtd">
<svg version="1.1" id="Layer_1" xmlns="http://www.w3.org/2000/svg" xmlns:xlink="http://www.w3.org/1999/xlink" x="0px" y="0px"
	 viewBox="43 8.5 646 524" enable-background="new 43 8.5 646 524" xml:space="preserve">
<g>
	<circle fill="#009FE3" cx="369.8" cy="132.9" r="107.8"/>
	<path fill="#009FE3" d="M449,220.2c-20.5,22-56.5,44.7-103.4,44.7c-35.9,0-66.7-13.9-86.5-29.3c-117.4,12.5-205.4,30.1-205.4,30.1
		v47.7h623.4v-98.3C677.9,214.3,570.8,213.6,449,220.2z"/>
</g>
<path fill="#003865" d="M121.2,419.7L121.2,419.7l41.8-61.6h75.5l-58.7,73.3l63.8,82.9h-78.5l-43.3-66.7h-0.7v66.7h-66V358.1h66.7
	v61.6H121.2z M465.9,426.3c-5.1,20.5-17.6,35.9-32.3,48.4c17.6,13.2,35.2,26.4,52.1,40.3h-83.6l-11-9.5
	c-16.9,9.5-40.3,12.5-60.9,12.5c-34.5,0-77.7-8.8-77.7-46.2c0-19.8,16.1-32.3,35.2-39.6c-14.7-8.1-25.7-18.3-25.7-34.5
	c0-33.7,38.9-41.8,75.5-41.8c32.3,0,75.5,3.7,75.5,34.5c0,20.5-27.1,33.7-46.2,39.6c8.1,5.1,16.1,10.3,23.5,15.4
	c5.9-5.1,10.3-11.7,12.5-19.1L465.9,426.3L465.9,426.3z M323.6,454.2c-5.9,5.1-9.5,8.8-9.5,16.1c0,9.5,11.7,14.7,22.7,14.7
	c7.3,0,14.7-2.9,20.5-6.6L323.6,454.2z M357.3,394.8c0-8.1-7.3-12.5-17.6-12.5s-19.1,3.7-19.1,12.5c0,8.8,11,13.9,18.3,17.6
	C347.1,408,357.3,404.3,357.3,394.8z M610.4,358.8h66.7V515h-66.7v-56.5h-44.7V515h-66.7V358.8h66.7v54.3h44.7V358.8z"/>
</svg>
