<svg xmlns="http://www.w3.org/2000/svg" viewBox="0 0 322.67 120.24"><defs><style>.cls-1{fill:#3cbade;}.cls-2{fill:#9dddee;}</style></defs><title>bf_pmgw_2-large_transparent</title><path class="cls-1" d="M64.17 39.36a5.38 5.38 0 0 0-7.5 1.13l-23.67 32.04a5.38 5.38 0 0 0 1.15 7.47l1.73 1.27 30-40.67zM40.29 41.19a5.38 5.38 0 0 0-5.93 4.73l-2.43 21.61 10.24-26.13zM53.87 39.39l-1.76-.69a5.37 5.37 0 0 0-7 3l-7.88 20.24zM81.43 52.11l-10.7-7.9-30 40.67 10.69 7.9a5.38 5.38 0 0 0 7.5-1.13l23.66-32a5.38 5.38 0 0 0-1.15-7.54zm-4 4.93l-7.22 9.78a.71.71 0 0 1-1 .14l-4.83-3.57a.68.68 0 0 1-.14-1l7.23-9.78a.69.69 0 0 1 1-.15l4.83 3.57a.68.68 0 0 1 .14.97zM59.89 13.91c-40.26-17.65-52.03-13.12-56.56.85-9.54 29.45 1.86 83.39 28.62 96.82s74.46-10.38 84-39.83c5.05-15.48 4.12-31.46-56.06-57.84zm25.82 48l-23.71 32.09a9.33 9.33 0 0 1-7.47 3.75 9.2 9.2 0 0 1-5.5-1.81l-10.64-7.94-3.14-2.3-1.68-1.24-1.73-1.28a9.28 9.28 0 0 1-3.7-8.52l1.43-17.92.91-11.14v-.12a9.27 9.27 0 0 1 10.25-8.18l1.88.21.59.07a9.35 9.35 0 0 1 7-3.15 9.18 9.18 0 0 1 3.37.64l1.76.68.56.22a9.33 9.33 0 0 1 5.11-1.56 9.19 9.19 0 0 1 5.49 1.81l1.72 1.28 1.69 1.25 3.14 2.32 10.72 7.93a9.29 9.29 0 0 1 2 13zM152.27 96.71h9.32c-.24 5-4.59 8.16-10 8.16a12.23 12.23 0 0 1 0-24.45 11.32 11.32 0 0 1 7.83 3.14l3.77-3.33a16.31 16.31 0 0 0-11.59-4.69 17.08 17.08 0 0 0 0 34.16c9.52 0 15.89-5.51 15.89-17.39h-15.22zM188.56 89.85c-1.55-2.56-4.88-3.67-7.58-3.67a11.77 11.77 0 0 0 0 23.53c2.8 0 6.09-1.26 7.58-3.72v3.24h4.93v-22.57h-4.93zm-7 15a6.81 6.81 0 0 1-6.91-7 6.69 6.69 0 0 1 6.9-6.85 6.93 6.93 0 1 1 0 13.87zM205.75 78.11h-4.97v8.55h-4.06v4.11h4.06v18.45h4.97v-18.45h4.79v-4.11h-4.79v-8.55zM223.58 86.18a11.21 11.21 0 0 0-11.58 11.69c0 7.15 5.17 11.84 11.59 11.84 4.25 0 8.45-1.84 10.44-5.8-1.3-.58-2.8-1.21-4.06-1.79a7 7 0 0 1-6.14 3.24c-3.62 0-6.43-2.17-6.91-5.65h17.92v-1.84c.05-7.15-4.84-11.69-11.26-11.69zm-6.67 9.9a6.33 6.33 0 0 1 6.67-5.56 6.13 6.13 0 0 1 6.42 5.56zM261.22 101.88l-5.22-15.22h-4.64l-5.21 15.22-5.22-15.22h-5.32l8.51 22.56h4.05l5.51-15.99 5.75 15.99h4.11l8.26-22.56h-5.32l-5.26 15.22zM291.85 89.85c-1.55-2.56-4.88-3.67-7.59-3.67a11.77 11.77 0 0 0 0 23.53c2.8 0 6.09-1.26 7.59-3.72v3.24h4.93v-22.57h-4.93zm-7 15a6.81 6.81 0 0 1-6.91-7 6.69 6.69 0 0 1 6.9-6.85 6.93 6.93 0 1 1 0 13.87zM317.36 86.66l-6.33 15.46-6.28-15.46h-5.32l8.94 21.5-4.88 12.08h5.22l13.96-33.58h-5.31zM143.49 56.95h6.51c7.46 0 10.79-5.28 10.79-10.69s-3.38-10.75-10.79-10.75h-13.5v32.75h7zm0-15.3h6.32c2.61 0 3.94 2.57 3.94 4.61s-1.43 4.61-4.13 4.61h-6.13zM173.05 68.69c1.71 0 5-.81 6.46-2.95v2.52h6.56v-22.2h-6.56v2.47c-1.71-2.47-5-2.95-6.46-2.95a11.55 11.55 0 0 0 0 23.1zm1.09-16.82a5.28 5.28 0 1 1 0 10.55 5.28 5.28 0 1 1 0-10.55zM193.23 75.55h6.98l11.96-29.49h-7.03l-4.95 12.6-4.89-12.6h-7.04l8.56 19.92-3.59 9.57zM238.93 52c1.95 0 3.66 1.52 3.66 4.42v11.84h6.56v-12.6c0-6.7-3.28-10.08-8.55-10.08a7.6 7.6 0 0 0-6.65 3.94c-1.24-2.57-3.61-3.9-7.13-3.9a6.35 6.35 0 0 0-5.82 3.68v-3.24h-6.61v22.2h6.61v-11.74c0-3.38 1.85-4.52 3.85-4.52s3.61 1.47 3.66 4.28v12h6.61v-11.76c.01-3.23 1.72-4.52 3.81-4.52zM252.67 57.09a11.3 11.3 0 0 0 11.6 11.64c3.76 0 7.89-1.19 10.12-4.52l-4.8-3.28a6.13 6.13 0 0 1-4.85 2.07c-2.33 0-5.13-1.14-5.47-3.71h16.25l.09-2c0-7-5-11.69-11.36-11.69s-11.58 4.5-11.58 11.49zm11.64-5.7a4.5 4.5 0 0 1 4.66 3.8h-9.6a4.86 4.86 0 0 1 4.94-3.8zM285.75 56.52c0-3.38 1.76-4.52 4.09-4.52s3.85 1.47 3.85 4.42v11.84h6.61v-13.26c0-6.32-3.14-9.41-8.13-9.41a7.41 7.41 0 0 0-6.42 3.71v-3.24h-6.61v22.2h6.61zM307.23 68.26h6.56v-16.97h4.66v-5.23h-4.66v-8.5h-6.56v8.5h-4.04v5.23h4.04v16.97z"/><path class="cls-2" d="M149.26 15.72a5.52 5.52 0 0 1 4.29 5.18 6.86 6.86 0 0 1-7.26 7h-9.77v-22.77h9.11c4.09 0 6.73 2.44 6.73 6.34a4.49 4.49 0 0 1-3.1 4.25zm-4.09-1.62a2.15 2.15 0 0 0 2.11-2.34c0-1.42-.73-2.38-2.14-2.38h-3.76v4.72zm-3.79 4v5.51h4.62a2.58 2.58 0 0 0 2.44-2.81 2.55 2.55 0 0 0-2.54-2.71zM162.36 5.13v22.74h-4.82v-22.74zM183 11.66a6.61 6.61 0 0 0-5-2.31 7 7 0 0 0-6.8 7.2 7 7 0 0 0 6.8 7.23c2.44 0 5.48-1.52 5.51-3.93h-6.11v-3.93h11.68c0 8.51-4.55 12.28-11.09 12.28a11.67 11.67 0 0 1 0-23.33 11.25 11.25 0 0 1 8.55 3.73zM200.71 5.13h14.22v4.26h-9.37v5.18h7.44v4.22h-7.43v9.08h-4.85zM223.28 5.13v22.74h-4.82v-22.74zM232.25 21.2c.07 1.45 1.22 2.74 3.4 2.74 1.95 0 3.3-.92 3.33-2.41 0-1-.43-1.91-2.74-2.57l-2.74-.76c-5-1.55-5.87-4.49-5.87-6.54 0-4.06 3.46-6.8 7.82-6.8s7.69 2.61 7.69 7h-4.82c0-1.52-1-2.57-2.94-2.57-1.68 0-2.94.92-2.94 2.28 0 .59.23 1.68 2.44 2.31l2.71.86c5.51 1.58 6.3 4.69 6.24 6.87-.07 4.52-4.16 6.67-8.19 6.67-5 0-8.25-2.94-8.25-7zM265.62 5.13v22.74h-4.88v-9.14h-8.09v9.14h-4.82v-22.74h4.82v9.27h8.09v-9.27z"/></svg>