<svg xmlns="http://www.w3.org/2000/svg" viewBox="0 0 64.85 23.76"><defs><style>.cls-1{fill:#3cbade;}.cls-2{fill:#9dddee;}</style></defs><title>bf_pmgw_2-small_transparent</title><path class="cls-1" d="M13.15 7.59a1.08 1.08 0 0 0-1.5.23l-4.73 6.4a1.08 1.08 0 0 0 .23 1.5l.35.25 6-8.13zM8.37 8a1.08 1.08 0 0 0-1.19.95l-.48 4.27 2.05-5.22zM11.09 7.59l-.35-.14a1.07 1.07 0 0 0-1.39.6l-1.59 4zM16.6 10.13l-2.14-1.58-6 8.13 2.14 1.58a1.08 1.08 0 0 0 1.5-.23l4.73-6.41a1.08 1.08 0 0 0-.23-1.49zm-.8 1l-1.44 2a.14.14 0 0 1-.19 0l-1-.71a.14.14 0 0 1 0-.19l1.45-2a.14.14 0 0 1 .19 0l1 .71a.14.14 0 0 1-.01.18zM12.29 2.5c-8.05-3.5-10.41-2.63-11.29.17-1.93 5.89.35 16.67 5.7 19.33s14.89-2.08 16.8-8c1-3 .83-6.23-11.21-11.5zm5.16 9.6l-4.73 6.41a1.87 1.87 0 0 1-1.49.75 1.84 1.84 0 0 1-1.1-.36l-2.13-1.58-.63-.46-.37-.26-.35-.26a1.86 1.86 0 0 1-.74-1.7l.29-3.58.18-2.23a1.85 1.85 0 0 1 1.87-1.67h.75a1.87 1.87 0 0 1 1.39-.63 1.84 1.84 0 0 1 .67.13l.35.14h.11a1.87 1.87 0 0 1 1-.31 1.84 1.84 0 0 1 1.1.36l.34.26.34.25.63.46 2.14 1.58a1.86 1.86 0 0 1 .39 2.59zM30.77 19.06h1.86a1.82 1.82 0 0 1-2 1.63 2.45 2.45 0 0 1 0-4.89 2.26 2.26 0 0 1 1.57.63l.75-.67a3.26 3.26 0 0 0-2.32-.94 3.42 3.42 0 0 0 0 6.83c1.9 0 3.18-1.1 3.18-3.48h-3zM38 17.68a1.79 1.79 0 0 0-1.52-.73 2.35 2.35 0 0 0 0 4.71 1.81 1.81 0 0 0 1.52-.75v.65h1v-4.56h-1zm-1.4 3a1.36 1.36 0 0 1-1.38-1.4 1.34 1.34 0 0 1 1.38-1.37 1.39 1.39 0 1 1 0 2.77zM41.46 15.34h-.99v1.71h-.81v.82h.81v3.69h.99v-3.69h.96v-.82h-.96v-1.71zM45 16.95a2.24 2.24 0 0 0-2.32 2.34 2.37 2.37 0 0 0 4.41 1.21l-.81-.36a1.39 1.39 0 0 1-1.23.65 1.31 1.31 0 0 1-1.38-1.13h3.58v-.37a2.2 2.2 0 0 0-2.25-2.34zm-1.33 2a1.27 1.27 0 0 1 1.33-1.13 1.23 1.23 0 0 1 1.29 1.11zM52.56 20.09l-1.05-3.04h-.92l-1.05 3.04-1.04-3.04h-1.06l1.7 4.51h.81l1.1-3.2 1.15 3.2h.82l1.65-4.51h-1.06l-1.05 3.04zM58.68 17.68a1.79 1.79 0 0 0-1.52-.73 2.35 2.35 0 0 0 0 4.71 1.81 1.81 0 0 0 1.52-.74v.65h1v-4.57h-1zm-1.4 3a1.36 1.36 0 0 1-1.38-1.4 1.34 1.34 0 0 1 1.38-1.37 1.39 1.39 0 1 1 0 2.77zM63.78 17.05l-1.26 3.09-1.26-3.09h-1.06l1.79 4.3-.98 2.41h1.04l2.8-6.71h-1.07zM29 11.1h1.3a2 2 0 0 0 2.16-2.1 2 2 0 0 0-2.16-2.18h-2.69v6.55h1.39zm0-3.1h1.26a.86.86 0 0 1 .79.92.87.87 0 0 1-.83.92h-1.22zM34.92 13.45a1.7 1.7 0 0 0 1.29-.59v.5h1.31v-4.43h-1.3v.49a1.63 1.63 0 0 0-1.29-.59 2.31 2.31 0 0 0 0 4.62zm.22-3.36a1.06 1.06 0 1 1 0 2.11 1.06 1.06 0 1 1 0-2.11zM38.96 14.82h1.4l2.39-5.89h-1.41l-.99 2.52-.98-2.52h-1.4l1.71 3.98-.72 1.91zM48.1 10.11c.39 0 .73.3.73.88v2.37h1.31v-2.51c0-1.34-.66-2-1.71-2a1.52 1.52 0 0 0-1.33.79 1.44 1.44 0 0 0-1.43-.78 1.27 1.27 0 0 0-1.16.73v-.66h-1.32v4.44h1.32v-2.37c0-.68.37-.9.77-.9a.77.77 0 0 1 .72.9v2.4h1.32v-2.4c.02-.63.36-.89.78-.89zM50.85 11.13a2.26 2.26 0 0 0 2.32 2.33 2.38 2.38 0 0 0 2-.9l-1-.66a1.23 1.23 0 0 1-1 .42c-.47 0-1-.23-1.09-.74h3.25v-.41a2.3 2.3 0 1 0-4.59 0zm2.33-1.13a.9.9 0 0 1 .93.76h-1.92a1 1 0 0 1 .99-.76zM57.46 11c0-.68.35-.9.82-.9s.77.29.77.88v2.37h1.32v-2.64c0-1.26-.63-1.88-1.63-1.88a1.48 1.48 0 0 0-1.28.74v-.64h-1.32v4.44h1.32zM61.76 13.37h1.31v-3.4h.93v-1.04h-.93v-1.71h-1.31v1.71h-.81v1.04h.81v3.4z"/><path class="cls-2" d="M30.17 2.86a1.11 1.11 0 0 1 .86 1 1.37 1.37 0 0 1-1.45 1.39h-2v-4.52h1.82a1.22 1.22 0 0 1 1.39 1.27.9.9 0 0 1-.62.86zm-.82-.32a.43.43 0 0 0 .42-.47.42.42 0 0 0-.43-.48h-.75v.95zm-.76.8v1.1h.93a.52.52 0 0 0 .48-.57.51.51 0 0 0-.51-.54zM32.79.73v4.56h-1v-4.56zM36.92 2a1.32 1.32 0 0 0-1-.46 1.4 1.4 0 0 0-1.36 1.46 1.4 1.4 0 0 0 1.36 1.45c.49 0 1.1-.3 1.1-.79h-1.22v-.76h2.34c0 1.7-.91 2.46-2.22 2.46a2.34 2.34 0 0 1 0-4.67 2.25 2.25 0 0 1 1.71.75zM40.45.73h2.85v.85h-1.87v1h1.49v.85h-1.49v1.86h-1zM45 .73v4.56h-1v-4.56zM46.76 4a.61.61 0 0 0 .68.55c.39 0 .66-.19.67-.48s-.09-.38-.55-.52l-.56-.2c-1-.35-1.16-.9-1.16-1.35a1.43 1.43 0 0 1 1.56-1.32 1.4 1.4 0 0 1 1.54 1.39h-.94c0-.3-.21-.52-.59-.52s-.59.19-.59.46c0 .12 0 .34.49.46l.54.17c1.1.32 1.26.94 1.25 1.37a1.67 1.67 0 0 1-3.31-.01zM53.44.73v4.56h-1v-1.83h-1.6v1.83h-1v-4.56h1v1.86h1.62v-1.86z"/></svg>