<svg xmlns="http://www.w3.org/2000/svg" viewBox="0 0 530.63 107.38"><defs><style>.cls-1{fill:#fff;}.cls-2{fill:#3cbade;}.cls-3{fill:#9dddee;}</style></defs><title>bf_pmgw_1-large_white</title><path class="cls-1" d="M0 0h530.63v107.38h-530.63z"/><path class="cls-2" d="M61 35.12a5.11 5.11 0 0 0-7.12 1.08l-22.51 30.43a5.11 5.11 0 0 0 1.07 7.13l1.64 1.24 28.52-38.67zM38.28 36.85a5.11 5.11 0 0 0-5.63 4.49l-2.32 20.54 9.73-24.83zM51.18 35.15l-1.67-.65a5.11 5.11 0 0 0-6.6 2.87l-7.53 19.2zM77.36 47.23l-10.17-7.5-28.52 38.63 10.16 7.5a5.11 5.11 0 0 0 7.17-1.07l22.43-30.44a5.11 5.11 0 0 0-1.07-7.12zm-3.79 4.68l-6.86 9.3a.67.67 0 0 1-.92.13l-4.59-3.39a.65.65 0 0 1-.14-.91l6.87-9.29a.65.65 0 0 1 .91-.14l4.59 3.39a.65.65 0 0 1 .14.91zM56.89 10.94c-38.24-16.77-49.43-12.46-53.73.81-9.06 28 1.76 79.21 27.19 92s70.73-9.86 79.79-37.84c4.77-14.73 3.93-29.91-53.25-54.97zm24.53 45.62l-22.48 30.44a8.86 8.86 0 0 1-7.09 3.56 8.74 8.74 0 0 1-5.22-1.72l-10.16-7.5-3-2.2-1.59-1.14-1.65-1.21a8.82 8.82 0 0 1-3.51-8.1l1.36-17 .87-10.69v-.12a8.8 8.8 0 0 1 9.74-7.76l1.79.2.56.06a8.88 8.88 0 0 1 6.62-3 8.72 8.72 0 0 1 3.2.61l1.67.65.53.21a8.87 8.87 0 0 1 4.94-1.43 8.73 8.73 0 0 1 5.22 1.72l1.64 1.21 1.6 1.19 3 2.2 10.17 7.5a8.83 8.83 0 0 1 1.85 12.32zM355 68.62h9.61c-.25 5.13-4.73 8.42-10.31 8.42a12.61 12.61 0 0 1 0-25.2 11.67 11.67 0 0 1 8.07 3.24l3.88-3.44a16.81 16.81 0 0 0-12-4.83 17.61 17.61 0 0 0 0 35.21c9.81 0 16.39-5.68 16.39-17.93h-15.64zM392.37 61.55c-1.59-2.64-5-3.79-7.82-3.79a11.65 11.65 0 0 0-11.8 12.1 11.69 11.69 0 0 0 11.8 12.14c2.89 0 6.28-1.29 7.82-3.83v3.34h5.08v-23.25h-5.08zm-7.22 15.45a7 7 0 0 1-7.15-7.18 6.89 6.89 0 0 1 7.12-7.07 7.15 7.15 0 1 1 0 14.29zM410.1 49.45h-5.13v8.81h-4.18v4.24h4.18v19.02h5.13v-19.02h4.93v-4.24h-4.93v-8.81zM428.48 57.77c-6.62 0-12 4.68-12 12.05s5.33 12.2 12 12.2c4.38 0 8.72-1.89 10.76-6-1.34-.6-2.89-1.25-4.18-1.84a7.17 7.17 0 0 1-6.33 3.34c-3.74 0-6.62-2.24-7.12-5.83h18.48v-1.89c.04-7.35-4.99-12.03-11.61-12.03zm-6.87 10.23a6.53 6.53 0 0 1 6.87-5.73 6.31 6.31 0 0 1 6.62 5.73zM467.28 73.95l-5.38-15.69h-4.78l-5.38 15.69-5.38-15.69h-5.48l8.77 23.26h4.18l5.68-16.48 5.93 16.48h4.23l8.52-23.26h-5.48l-5.43 15.69zM498.85 61.55c-1.59-2.64-5-3.79-7.82-3.79a11.65 11.65 0 0 0-11.8 12.1 11.69 11.69 0 0 0 11.77 12.14c2.89 0 6.28-1.29 7.82-3.83v3.34h5.08v-23.25h-5.08zm-7.22 15.45a7 7 0 0 1-7.12-7.22 6.89 6.89 0 0 1 7.12-7.07 7.15 7.15 0 1 1 0 14.29zM525.15 58.26l-6.52 15.94-6.48-15.94h-5.48l9.22 22.17-5.03 12.45h5.38l14.39-34.62h-5.48zM149.57 46.81h-13.86v33.76h7.2v-11.66h6.66c7.69 0 11.12-5.44 11.12-11s-3.42-11.1-11.12-11.1zm-.34 15.83h-6.32v-9.5h6.52c2.7 0 4.07 2.65 4.07 4.75s-1.5 4.75-4.27 4.75zM180.05 60.24c-1.76-2.55-5.19-3-6.66-3a11.91 11.91 0 0 0 0 23.81c1.76 0 5.19-.83 6.66-3v2.6h6.76v-22.96h-6.76zm-5.54 14.31a5.45 5.45 0 1 1 0-10.88 5.44 5.44 0 1 1 0 10.88zM201.37 70.67l-5.05-12.98h-7.25l8.82 20.53-5.49 13.57h7.2l14.12-34.1h-7.26l-5.09 12.98zM243 57.2a7.84 7.84 0 0 0-6.86 4.07c-1.27-2.65-3.72-4-7.35-4a6.55 6.55 0 0 0-6 3.77v-3.35h-6.79v22.88h6.81v-12.1c0-3.48 1.91-4.66 4-4.66s3.72 1.52 3.77 4.41v12.35h6.81v-12.1c0-3.33 1.76-4.66 3.92-4.66s3.77 1.57 3.77 4.56v12.2h6.76v-13c0-6.89-3.39-10.37-8.84-10.37zM267.42 57.2c-6.57 0-12 4.65-12 11.86a11.65 11.65 0 0 0 12 12c3.87 0 8.13-1.23 10.44-4.66l-4.95-3.4a6.32 6.32 0 0 1-5 2.16c-2.4 0-5.29-1.18-5.63-3.82h16.72l.1-2.11c.03-7.18-5.17-12.03-11.68-12.03zm-5 9.9a5 5 0 0 1 5.1-3.92 4.64 4.64 0 0 1 4.8 3.92zM296.18 57.2a7.64 7.64 0 0 0-6.61 3.8v-3.31h-6.81v22.88h6.81v-12.1c0-3.48 1.81-4.66 4.21-4.66s4 1.52 4 4.56v12.2h6.81v-13.67c-.03-6.51-3.26-9.7-8.41-9.7zM318.48 48.92h-6.77v8.77h-4.16v5.39h4.16v17.49h6.77v-17.49h4.8v-5.39h-4.8v-8.77z"/><path class="cls-3" d="M147.66 24.68a5.52 5.52 0 0 1 4.34 5.18 6.86 6.86 0 0 1-7.26 7h-9.77v-22.78h9.03c4.09 0 6.73 2.44 6.73 6.34a4.49 4.49 0 0 1-3.07 4.26zm-4.09-1.62a2.15 2.15 0 0 0 2.11-2.34c0-1.42-.73-2.38-2.14-2.38h-3.76v4.72zm-3.79 4v5.51h4.65a2.58 2.58 0 0 0 2.44-2.81 2.55 2.55 0 0 0-2.54-2.71zM160.76 14.08v22.74h-4.82v-22.74zM181.42 20.62a6.61 6.61 0 0 0-5-2.31 7 7 0 0 0-6.8 7.2 7 7 0 0 0 6.8 7.23c2.44 0 5.48-1.52 5.51-3.93h-6.11v-3.94h11.68c0 8.51-4.55 12.28-11.09 12.28a11.67 11.67 0 0 1 0-23.33 11.25 11.25 0 0 1 8.59 3.73zM199.11 14.08h14.22v4.26h-9.33v5.18h7.43v4.22h-7.43v9.08h-4.85zM221.68 14.08v22.74h-4.82v-22.74zM230.65 30.16c.07 1.45 1.22 2.74 3.4 2.74 1.95 0 3.3-.92 3.33-2.41 0-1-.43-1.91-2.74-2.57l-2.74-.76c-5-1.55-5.87-4.49-5.87-6.54 0-4.06 3.46-6.8 7.82-6.8s7.69 2.61 7.69 7h-4.82c0-1.52-1-2.57-2.94-2.57-1.68 0-2.94.92-2.94 2.28 0 .59.23 1.68 2.44 2.31l2.71.86c5.51 1.58 6.3 4.69 6.24 6.87-.07 4.52-4.16 6.67-8.19 6.67-5 0-8.25-2.94-8.25-7zM264 14.08v22.74h-4.88v-9.14h-8.12v9.14h-4.82v-22.74h4.82v9.27h8.09v-9.27z"/></svg>