<svg xmlns="http://www.w3.org/2000/svg" viewBox="0 0 150 30.36"><defs><style>.cls-1{fill:#3cbade;}.cls-2{fill:#9dddee;}</style></defs><title>bf_pmgw_1-small_transparent</title><path class="cls-1" d="M17.19 9.94a1.44 1.44 0 0 0-2 .3l-6.35 8.59a1.44 1.44 0 0 0 .3 2l.46.34 8-10.89zM10.79 10.43a1.44 1.44 0 0 0-1.58 1.27l-.65 5.79 2.74-7zM14.43 9.95l-.43-.18a1.44 1.44 0 0 0-1.86.81l-2.14 5.42zM21.81 13.36l-2.87-2.12-8 10.89 2.86 2.12a1.44 1.44 0 0 0 2-.3l6.34-8.58a1.44 1.44 0 0 0-.33-2.01zm-1.07 1.32l-1.93 2.62a.19.19 0 0 1-.26 0l-1.29-1a.18.18 0 0 1 0-.26l1.94-2.62a.18.18 0 0 1 .26 0l1.29 1a.18.18 0 0 1-.01.25zM16 3.12c-10.74-4.72-13.9-3.51-15.11.23-2.56 7.89.5 22.34 7.67 25.93s19.94-2.78 22.5-10.67c1.34-4.14 1.1-8.42-15.06-15.49zm7 12.88l-6.34 8.58a2.5 2.5 0 0 1-2 1 2.46 2.46 0 0 1-1.47-.48l-2.91-2.1-.84-.62-.44-.38-.46-.34a2.49 2.49 0 0 1-1-2.28l.38-4.8.24-3a2.48 2.48 0 0 1 2.47-2.2h.28l.5.06h.16a2.5 2.5 0 0 1 1.87-.84 2.46 2.46 0 0 1 .9.17l.47.18.19.05a2.5 2.5 0 0 1 1.38-.42 2.46 2.46 0 0 1 1.47.48l.46.34.45.33.84.62 2.87 2.12a2.49 2.49 0 0 1 .53 3.53zM100.09 19.39h2.71a2.65 2.65 0 0 1-2.91 2.37 3.56 3.56 0 0 1 0-7.11 3.29 3.29 0 0 1 2.27.91l1.1-1a4.74 4.74 0 0 0-3.37-1.36 5 5 0 0 0 0 9.93c2.77 0 4.62-1.6 4.62-5.06h-4.42zM110.63 17.39a2.6 2.6 0 0 0-2.2-1.07 3.28 3.28 0 0 0-3.33 3.41 3.3 3.3 0 0 0 3.33 3.43 2.63 2.63 0 0 0 2.2-1.08v.92h1.43v-6.53h-1.43zm-2 4.37a2 2 0 0 1-2-2 1.94 1.94 0 0 1 2-2 2 2 0 1 1 0 4zM115.63 13.98h-1.44v2.49h-1.18v1.19h1.18v5.36h1.44v-5.36h1.39v-1.19h-1.39v-2.49zM120.81 16.33a3.26 3.26 0 0 0-3.37 3.4 3.44 3.44 0 0 0 6.4 1.76l-1.17-.49a2 2 0 0 1-1.78.94 1.9 1.9 0 0 1-2-1.64h5.21v-.53a3.19 3.19 0 0 0-3.29-3.44zm-1.94 2.88a1.84 1.84 0 0 1 1.94-1.61 1.78 1.78 0 0 1 1.87 1.61zM131.75 20.89l-1.51-4.42h-1.35l-1.52 4.42-1.51-4.42h-1.55l2.47 6.55h1.18l1.6-4.64 1.67 4.64h1.2l2.4-6.55h-1.55l-1.53 4.42zM140.66 17.39a2.6 2.6 0 0 0-2.2-1.07 3.28 3.28 0 0 0-3.33 3.41 3.3 3.3 0 0 0 3.33 3.43 2.63 2.63 0 0 0 2.2-1.08v.92h1.43v-6.53h-1.43zm-2 4.37a2 2 0 0 1-2-2 1.94 1.94 0 0 1 2-2 2 2 0 1 1 0 4zM148.07 16.47l-1.84 4.49-1.82-4.49h-1.55l2.6 6.25-1.42 3.51h1.52l4.06-9.76h-1.55zM42.17 13.24h-3.91v9.52h2v-3.29h1.88a2.94 2.94 0 0 0 3.14-3.11 3 3 0 0 0-3.11-3.12zm-.1 4.46h-1.78v-2.7h1.84a1.26 1.26 0 0 1 1.15 1.34 1.27 1.27 0 0 1-1.2 1.36zM50.77 17a2.37 2.37 0 0 0-1.88-.86 3.36 3.36 0 0 0 0 6.71 2.47 2.47 0 0 0 1.88-.85v.73h1.91v-6.42h-1.91zm-1.56 4a1.54 1.54 0 1 1 0-3.07 1.53 1.53 0 1 1 0 3.07zM56.78 19.97l-1.43-3.67h-2.04l2.49 5.79-1.55 3.83h2.03l3.98-9.62h-2.05l-1.43 3.67zM68.52 16.17a2.21 2.21 0 0 0-1.93 1.15 2.09 2.09 0 0 0-2.07-1.13 1.85 1.85 0 0 0-1.69 1.06v-.94h-1.92v6.45h1.92v-3.42c0-1 .54-1.31 1.12-1.31a1.12 1.12 0 0 1 1.05 1.25v3.48h1.92v-3.42c0-.94.5-1.31 1.11-1.31s1.06.44 1.06 1.28v3.44h1.91v-3.65c0-1.95-.95-2.93-2.48-2.93zM75.4 16.17a3.25 3.25 0 0 0-3.4 3.34 3.29 3.29 0 0 0 3.4 3.39 3.45 3.45 0 0 0 2.94-1.31l-1.4-1a1.78 1.78 0 0 1-1.41.61c-.68 0-1.49-.33-1.59-1.08h4.72v-.59a3.25 3.25 0 0 0-3.26-3.36zm-1.4 2.83a1.41 1.41 0 0 1 1.44-1.11 1.31 1.31 0 0 1 1.33 1.11zM83.51 16.17a2.15 2.15 0 0 0-1.86 1.08v-.94h-1.92v6.45h1.92v-3.42c0-1 .51-1.31 1.19-1.31s1.16.43 1.16 1.29v3.44h1.92v-3.86c-.05-1.84-.92-2.73-2.41-2.73zM89.8 13.83h-1.91v2.47h-1.17v1.52h1.17v4.94h1.91v-4.94h1.35v-1.52h-1.35v-2.47z"/><path class="cls-2" d="M41.64 7a1.56 1.56 0 0 1 1.21 1.46 1.93 1.93 0 0 1-2 2h-2.85v-6.46h2.57a1.72 1.72 0 0 1 1.9 1.79 1.27 1.27 0 0 1-.83 1.21zm-1.15-.46a.61.61 0 0 0 .6-.66c0-.4-.2-.67-.6-.67h-1.08v1.33zm-1.08 1.13v1.55h1.31a.73.73 0 0 0 .69-.79.72.72 0 0 0-.72-.76zM45.33 4v6.41h-1.33v-6.41zM51.16 5.85a1.87 1.87 0 0 0-1.41-.65 2 2 0 0 0-1.92 2 2 2 0 0 0 1.92 2c.69 0 1.55-.43 1.55-1.11h-1.72v-1.04h3.29c0 2.4-1.29 3.46-3.13 3.46a3.29 3.29 0 0 1 0-6.58 3.17 3.17 0 0 1 2.42 1.07zM56.14 4h4v1.2h-2.63v1.47h2.09v1.19h-2.09v2.56h-1.37zM62.51 4v6.41h-1.36v-6.41zM65 8.54a.85.85 0 0 0 1 .77c.55 0 .93-.26.94-.68s-.12-.54-.77-.73l-.77-.21c-1.4-.43-1.67-1.26-1.67-1.84a2 2 0 0 1 2.21-1.92 2 2 0 0 1 2.17 2h-1.36c0-.43-.29-.73-.83-.73s-.83.26-.83.64c0 .17.06.47.69.65l.76.24c1.56.42 1.78 1.27 1.76 1.91a2.36 2.36 0 0 1-4.64-.1zM74.44 4v6.41h-1.37v-2.57h-2.28v2.58h-1.36v-6.42h1.36v2.62h2.28v-2.62z"/></svg>