<svg id="Layer_1" data-name="Layer 1" xmlns="http://www.w3.org/2000/svg" viewBox="0 0 317 140"><g id="bf-pmgw-narrow-color"><path d="M75.69,50.71a5,5,0,0,0-7.08.74L45,80.51a5.05,5.05,0,0,0,.73,7.09l1.4,1.14,30-36.89Z" fill="#fff"/><path d="M66,49.36c.14-.17.29-.33.44-.49l-1-.49a5,5,0,0,0-6.71,2.4L50.09,69Z" fill="#fff"/><path d="M72.88,30.19c-35.62-15.62-46-11.61-50,.75C14.41,57,24.49,104.71,48.17,116.6s65.86-9.18,74.3-35.24C126.91,67.66,126.13,53.53,72.88,30.19Zm22,42.61-23.6,29.07a8.35,8.35,0,0,1-11.73,1.22L43.66,90.16a8,8,0,0,1-1.6-1.73l0,0a8.16,8.16,0,0,1-.91-1.63L41,86.7a8.44,8.44,0,0,1-.8-5.54L46,52.66a8.35,8.35,0,0,1,9.82-6.53l2.12.42h0a8.33,8.33,0,0,1,8.94-1.16l2.88,1.36a8.37,8.37,0,0,1,8,1.38L93.69,61.07A8.34,8.34,0,0,1,94.91,72.8Z" fill="#fff"/><path d="M91.61,63.63l-8.25-6.7L53.41,93.82l8.25,6.7a5,5,0,0,0,7.08-.73L92.35,70.72A5,5,0,0,0,91.61,63.63Zm-3,5.25-4,5a1.9,1.9,0,0,1-2.68.28L79,71.83a1.9,1.9,0,0,1-.27-2.68l4-5a1.91,1.91,0,0,1,2.68-.28l2.83,2.29A1.93,1.93,0,0,1,88.56,68.88Z" fill="#fff"/><path d="M55.15,49.37a5,5,0,0,0-5.93,3.94l-3.43,17L55.7,49.48Z" fill="#fff"/><path d="M138.16,74.92V47.13h11.42c3,0,5.24.89,6.82,2.7a10,10,0,0,1,0,12.83c-1.58,1.78-3.84,2.66-6.82,2.66h-5.49v9.6Zm5.93-22.59v7.83h5.21a3.72,3.72,0,0,0,3.51-3.91c0-1.94-1.29-3.92-3.35-3.92Z" fill="#fff"/><path d="M174.67,74.92V72.79a5.09,5.09,0,0,1-2.5,1.85,7.89,7.89,0,0,1-3,.65,9.42,9.42,0,0,1-6.69-2.71,9.27,9.27,0,0,1-2.91-7.09,9.19,9.19,0,0,1,2.91-7.06,9.46,9.46,0,0,1,6.69-2.75,6.89,6.89,0,0,1,5.49,2.5V56.09h5.56V74.92Zm0-9.43A4.43,4.43,0,0,0,170.11,61a4.87,4.87,0,0,0-3.31,1.29,4.12,4.12,0,0,0-1.41,3.19,4.2,4.2,0,0,0,1.41,3.22A4.83,4.83,0,0,0,170.11,70,4.43,4.43,0,0,0,174.67,65.49Z" fill="#fff"/><path d="M202.38,56.09,190.76,84.16h-5.93L189.35,73l-7.26-16.9h6l4.15,10.69,4.2-10.69Z" fill="#fff"/><path d="M221.86,65v10h-5.61V64.76c0-2.26-1.37-3.63-3.1-3.63-1.9,0-3.27,1.13-3.27,3.83v10h-5.61V56.09h5.61v2.74a5.32,5.32,0,0,1,4.92-3.11c3,0,5,1.09,6,3.31a6.38,6.38,0,0,1,5.65-3.35c4.56,0,7.26,3,7.26,8.55V74.92h-5.57v-10c0-2.38-1.33-3.75-3.1-3.75C223.15,61.13,221.86,62.38,221.86,65Z" fill="#fff"/><path d="M255.17,71.5c-1.73,2.54-4.59,3.83-8.59,3.83a9.78,9.78,0,0,1-7-2.75,9.54,9.54,0,0,1-2.82-7.14,9.3,9.3,0,0,1,2.82-7,9.74,9.74,0,0,1,7-2.71,9.2,9.2,0,0,1,6.86,2.79,9.51,9.51,0,0,1,2.78,7.14c0,.52,0,1.09-.08,1.73H242.35c.28,2.06,2.42,3.15,4.64,3.15a5,5,0,0,0,4.11-1.78Zm-4.59-7.67c-.57-4.28-7.27-4.32-8.15,0Z" fill="#fff"/><path d="M264.81,74.92h-5.6V56.09h5.6v2.74a6.29,6.29,0,0,1,5.45-3.15c4.35,0,6.9,2.71,6.9,8V74.92h-5.61v-10c0-2.42-1.29-3.75-3.27-3.75-2.3,0-3.47,1.29-3.47,3.83Z" fill="#fff"/><path d="M288.61,56.09h3.95v4.43h-3.95v14.4H283V60.52h-3.43V56.09H283V48.87h5.57Z" fill="#fff"/><g opacity="0.6"><path d="M148.73,29a4.44,4.44,0,0,1,2.61,1.72,4.21,4.21,0,0,1,.93,2.56,5.64,5.64,0,0,1-1.63,4.09A5.8,5.8,0,0,1,146.27,39h-8.06V20.23h7.52c3.38,0,5.56,2,5.56,5.23A3.72,3.72,0,0,1,148.73,29Zm-6.52-1.34h3.14a1.78,1.78,0,0,0,1.74-1.93c0-1.2-.6-2-1.77-2h-3.11Zm0,3.3v4.55h3.85a2.1,2.1,0,0,0,2-2.31A2.12,2.12,0,0,0,146,30.94Z" fill="#fff"/><path d="M155.52,20.23h4V39h-4Z" fill="#fff"/><path d="M176.51,25.63a5.44,5.44,0,0,0-8.13-.17,6.31,6.31,0,0,0,0,8.43,5.24,5.24,0,0,0,4,1.74,5.69,5.69,0,0,0,3.08-.9,2.84,2.84,0,0,0,1.47-2.34h-5V29.14h9.65c0,3.41-.82,6-2.48,7.64a9,9,0,0,1-6.68,2.5,9.26,9.26,0,0,1-6.84-2.8,9.4,9.4,0,0,1-2.78-6.82,9.62,9.62,0,0,1,16.68-6.57Z" fill="#fff"/><path d="M191,39V20.23h11.75v3.52H195V28h6.13v3.49H195V39Z" fill="#fff"/><path d="M205.62,20.23h4V39h-4Z" fill="#fff"/><path d="M217,33.5a2.51,2.51,0,0,0,2.81,2.27c1.63,0,2.72-.79,2.75-2,0-1-.49-1.61-2.26-2.13L218,31c-3.25-1-4.86-2.81-4.86-5.4a5,5,0,0,1,1.86-4A6.82,6.82,0,0,1,219.6,20a6.64,6.64,0,0,1,4.56,1.56,5.23,5.23,0,0,1,1.8,4.19h-4c0-1.28-.88-2.12-2.43-2.12s-2.43.79-2.43,1.88c0,.9.69,1.53,2,1.91l2.24.71c3.51,1,5.23,2.91,5.15,5.66a5.06,5.06,0,0,1-1,3.08,6.91,6.91,0,0,1-5.72,2.43,7.34,7.34,0,0,1-4.94-1.61A5.31,5.31,0,0,1,213,33.5Z" fill="#fff"/><path d="M240.43,20.23h4V39h-4V31.46h-6.68V39h-4V20.23h4v7.66h6.68Z" fill="#fff"/></g><path d="M158.63,89.38a9.14,9.14,0,0,0-6.53-2.62,9.34,9.34,0,0,0-7,3,10.62,10.62,0,0,0,0,14.44,9.31,9.31,0,0,0,7,3,9.05,9.05,0,0,0,5.81-1.86,6.55,6.55,0,0,0,2.54-5h-7.79V96.68h12.71c0,9.64-5,14.52-13.27,14.52a13.54,13.54,0,0,1-10-4.15,14.53,14.53,0,0,1,0-20.17,13.45,13.45,0,0,1,10-4.2,13.11,13.11,0,0,1,9.68,3.92Z" fill="#fff"/><path d="M183.31,110.8v-2.7c-1.17,1.93-3.87,3.1-6.33,3.1a9.82,9.82,0,0,1,0-19.64,7.59,7.59,0,0,1,6.33,3.06V92h4.12V110.8ZM181.5,97.16a5.88,5.88,0,0,0-4-1.57,5.7,5.7,0,0,0-4.12,1.62,5.44,5.44,0,0,0-1.65,4.11,5.64,5.64,0,0,0,5.77,5.85,5.62,5.62,0,0,0,5.8-5.85A5.26,5.26,0,0,0,181.5,97.16Z" fill="#fff"/><path d="M198,84.82V92h4v3.43h-4V110.8h-4.16V95.39h-3.39V92h3.39V84.82Z" fill="#fff"/><path d="M222.68,102.85h-15c.36,2.91,2.7,4.72,5.76,4.72a5.78,5.78,0,0,0,5.13-2.7l3.39,1.49c-1.62,3.19-5,4.84-8.72,4.84a9.45,9.45,0,0,1-9.68-9.88,9.33,9.33,0,0,1,2.78-7.06,9.5,9.5,0,0,1,6.9-2.7,9.08,9.08,0,0,1,6.78,2.7,9.56,9.56,0,0,1,2.66,7.06A14,14,0,0,1,222.68,102.85Zm-4-3a5.1,5.1,0,0,0-5.37-4.64,5.26,5.26,0,0,0-5.56,4.64Z" fill="#fff"/><path d="M253.9,92,247,110.8h-3.42l-4.81-13.35-4.59,13.35h-3.39L223.69,92h4.44l4.35,12.71L236.84,92h3.87l4.36,12.71L249.46,92Z" fill="#fff"/><path d="M271,110.8v-2.7c-1.17,1.93-3.87,3.1-6.33,3.1a9.82,9.82,0,0,1,0-19.64A7.59,7.59,0,0,1,271,94.62V92h4.12V110.8Zm-1.81-13.64a5.88,5.88,0,0,0-4-1.57A5.69,5.69,0,0,0,261,97.21a5.45,5.45,0,0,0-1.66,4.11,5.66,5.66,0,0,0,5.77,5.85,5.62,5.62,0,0,0,5.81-5.85A5.26,5.26,0,0,0,269.19,97.16Z" fill="#fff"/><path d="M297.1,92l-11.66,28h-4.36l4.08-10.09L277.7,92h4.43l5.25,12.91L292.66,92Z" fill="#fff"/></g></svg>