<svg id="Layer_1" data-name="Layer 1" xmlns="http://www.w3.org/2000/svg" viewBox="0 0 482 140"><g id="bf-pmgw-wide-color"><path d="M75.44,50.71a5,5,0,0,0-7.08.74L44.75,80.51a5,5,0,0,0,.74,7.09l1.4,1.14,30-36.89Z"/><path d="M65.79,49.36c.14-.17.29-.33.44-.49l-1-.49a5,5,0,0,0-6.71,2.4L49.83,69Z"/><path d="M72.63,30.19c-35.62-15.62-46-11.61-50,.75C14.15,57,24.24,104.71,47.91,116.6s65.87-9.18,74.31-35.24C126.66,67.66,125.87,53.53,72.63,30.19Zm22,42.61-23.6,29.07a8.36,8.36,0,0,1-11.74,1.22L43.41,90.16a8,8,0,0,1-1.61-1.73v0a7.7,7.7,0,0,1-.91-1.63.94.94,0,0,1-.09-.12,8.38,8.38,0,0,1-.8-5.54l5.74-28.5a8.34,8.34,0,0,1,9.82-6.53l2.11.42h0a8.35,8.35,0,0,1,9-1.16l2.87,1.36a8.36,8.36,0,0,1,8,1.38L93.44,61.07A8.34,8.34,0,0,1,94.66,72.8Z"/><path d="M91.36,63.63l-8.25-6.7-30,36.89,8.26,6.7a5,5,0,0,0,7.08-.73l23.6-29.07A5.05,5.05,0,0,0,91.36,63.63ZM88.3,68.88l-4,5a1.9,1.9,0,0,1-2.68.28l-2.83-2.29a1.91,1.91,0,0,1-.28-2.68l4-5a1.9,1.9,0,0,1,2.68-.28L88,66.19A1.91,1.91,0,0,1,88.3,68.88Z"/><path d="M54.9,49.37A5,5,0,0,0,49,53.31l-3.43,17,9.9-20.87Z"/><path d="M137.91,92.39V64.6h11.42c3,0,5.24.89,6.81,2.7a10,10,0,0,1,0,12.83c-1.57,1.78-3.83,2.66-6.81,2.66h-5.49v9.6Zm5.93-22.59v7.83H149a3.71,3.71,0,0,0,3.51-3.91c0-1.94-1.29-3.92-3.34-3.92Z"/><path d="M174.41,92.39V90.26a5,5,0,0,1-2.5,1.85,7.85,7.85,0,0,1-3,.65,9.46,9.46,0,0,1-6.7-2.71,10.08,10.08,0,0,1,0-14.15,9.5,9.5,0,0,1,6.7-2.75,6.89,6.89,0,0,1,5.48,2.5V73.56H180V92.39Zm0-9.43a4.42,4.42,0,0,0-4.55-4.48,4.87,4.87,0,0,0-3.31,1.29A4.12,4.12,0,0,0,165.14,83a4.2,4.2,0,0,0,1.41,3.22,4.83,4.83,0,0,0,3.31,1.25A4.42,4.42,0,0,0,174.41,83Z"/><path d="M202.12,73.56l-11.61,28.07h-5.93l4.51-11.17-7.26-16.9h6L192,84.25l4.19-10.69Z"/><path d="M221.61,82.43v10H216V82.23c0-2.26-1.37-3.63-3.11-3.63s-3.26,1.13-3.26,3.83v10H204V73.56h5.61V76.3a5.32,5.32,0,0,1,4.92-3.11c3,0,5,1.09,6,3.31a6.37,6.37,0,0,1,5.64-3.35c4.56,0,7.27,2.95,7.27,8.55V92.39h-5.57v-10c0-2.38-1.33-3.75-3.11-3.75C222.9,78.6,221.61,79.85,221.61,82.43Z"/><path d="M254.92,89c-1.73,2.54-4.6,3.83-8.59,3.83a9.78,9.78,0,0,1-7-2.75,9.51,9.51,0,0,1-2.82-7.14,9.3,9.3,0,0,1,2.82-7.06,9.78,9.78,0,0,1,7-2.7,9.22,9.22,0,0,1,6.86,2.79A9.54,9.54,0,0,1,256,83.08c0,.52,0,1.08-.08,1.73h-13.8c.29,2.06,2.42,3.15,4.64,3.15a5,5,0,0,0,4.12-1.78Zm-4.6-7.67c-.56-4.28-7.26-4.32-8.15,0Z"/><path d="M264.56,92.39H259V73.56h5.61V76.3A6.29,6.29,0,0,1,270,73.15c4.35,0,6.89,2.7,6.89,8V92.39h-5.6v-10c0-2.42-1.29-3.75-3.27-3.75-2.3,0-3.47,1.29-3.47,3.83Z"/><path d="M288.36,73.56h3.95V78h-3.95v14.4h-5.57V78h-3.43V73.56h3.43V66.34h5.57Z"/><path d="M148.48,46.27A4.49,4.49,0,0,1,151.09,48a4.23,4.23,0,0,1,.93,2.56,5.64,5.64,0,0,1-1.64,4.09A5.77,5.77,0,0,1,146,56.3H138V37.52h7.53c3.38,0,5.56,2,5.56,5.24A3.71,3.71,0,0,1,148.48,46.27ZM142,44.94h3.14A1.79,1.79,0,0,0,146.84,43c0-1.2-.6-2-1.77-2H142Zm0,3.3v4.55h3.84a2.29,2.29,0,0,0-.08-4.55Z" opacity="0.6"/><path d="M155.26,37.52h4V56.3h-4Z" opacity="0.6"/><path d="M176.25,42.92a5.42,5.42,0,0,0-8.12-.16,6.27,6.27,0,0,0,0,8.42,5.23,5.23,0,0,0,4,1.74,5.63,5.63,0,0,0,3.08-.9,2.84,2.84,0,0,0,1.47-2.34h-5V46.44h9.65c0,3.4-.82,5.94-2.48,7.63a9,9,0,0,1-6.68,2.51A9.54,9.54,0,0,1,162.52,47a9.62,9.62,0,0,1,16.68-6.57Z" opacity="0.6"/><path d="M190.76,56.3V37.52H202.5V41h-7.74v4.28h6.14v3.49h-6.14V56.3Z" opacity="0.6"/><path d="M205.37,37.52h4V56.3h-4Z" opacity="0.6"/><path d="M216.71,50.8a2.51,2.51,0,0,0,2.81,2.26c1.63,0,2.72-.79,2.75-2,0-1-.49-1.61-2.26-2.13l-2.27-.62c-3.24-1-4.85-2.81-4.85-5.4a5,5,0,0,1,1.86-4,6.75,6.75,0,0,1,4.6-1.58,6.59,6.59,0,0,1,4.55,1.55,5.26,5.26,0,0,1,1.8,4.2h-4c0-1.28-.87-2.13-2.42-2.13s-2.43.79-2.43,1.88c0,.9.68,1.53,2,1.91l2.23.71c3.52,1,5.24,2.92,5.16,5.67a5.08,5.08,0,0,1-1,3.08,6.92,6.92,0,0,1-5.72,2.42,7.39,7.39,0,0,1-4.94-1.6,5.31,5.31,0,0,1-1.88-4.2Z" opacity="0.6"/><path d="M240.18,37.52h4V56.3h-4V48.75H233.5V56.3h-4V37.52h4v7.66h6.68Z" opacity="0.6"/><path d="M323.88,71a9.14,9.14,0,0,0-6.53-2.62,9.34,9.34,0,0,0-7,3,10.65,10.65,0,0,0,0,14.44,9.37,9.37,0,0,0,7,3,9,9,0,0,0,5.81-1.85,6.57,6.57,0,0,0,2.54-5h-7.79V78.27h12.71c0,9.64-5,14.53-13.27,14.53a13.53,13.53,0,0,1-10-4.16,14.5,14.5,0,0,1,0-20.17,13.43,13.43,0,0,1,10-4.19A13.14,13.14,0,0,1,327,68.19Z"/><path d="M348.57,92.39v-2.7c-1.17,1.94-3.87,3.11-6.34,3.11a9.83,9.83,0,0,1,0-19.65,7.58,7.58,0,0,1,6.34,3.07V73.55h4.11V92.39Zm-1.82-13.63a5.84,5.84,0,0,0-4-1.58,5.71,5.71,0,0,0-4.12,1.62A5.46,5.46,0,0,0,337,82.91a5.64,5.64,0,0,0,5.77,5.85,5.62,5.62,0,0,0,5.81-5.85A5.25,5.25,0,0,0,346.75,78.76Z"/><path d="M363.29,66.41v7.14h4V77h-4V92.39h-4.16V77h-3.39V73.55h3.39V66.41Z"/><path d="M387.93,84.45H373c.36,2.9,2.7,4.71,5.77,4.71a5.74,5.74,0,0,0,5.12-2.7l3.39,1.5c-1.62,3.18-5,4.84-8.71,4.84a9.48,9.48,0,0,1-9.69-9.89,9.3,9.3,0,0,1,2.79-7.06,9.46,9.46,0,0,1,6.9-2.7,9.06,9.06,0,0,1,6.77,2.7A9.52,9.52,0,0,1,388,82.91,14.27,14.27,0,0,1,387.93,84.45Zm-4-3a5.09,5.09,0,0,0-5.36-4.64A5.27,5.27,0,0,0,373,81.42Z"/><path d="M419.15,73.55l-6.89,18.84h-3.43L404,79l-4.6,13.35H396l-7.1-18.84h4.44l4.35,12.71,4.36-12.71H406l4.36,12.71,4.4-12.71Z"/><path d="M436.25,92.39v-2.7c-1.17,1.94-3.87,3.11-6.33,3.11a9.83,9.83,0,0,1,0-19.65,7.57,7.57,0,0,1,6.33,3.07V73.55h4.12V92.39Zm-1.81-13.63a5.84,5.84,0,0,0-4-1.58,5.7,5.7,0,0,0-4.12,1.62,5.46,5.46,0,0,0-1.65,4.11,5.64,5.64,0,0,0,5.77,5.85,5.62,5.62,0,0,0,5.8-5.85A5.24,5.24,0,0,0,434.44,78.76Z"/><path d="M462.35,73.55l-11.66,28h-4.35l4.07-10.09-7.46-18h4.44l5.24,12.91,5.28-12.91Z"/></g></svg>