<?xml version="1.0" encoding="utf-8"?>
<!-- Generator: Adobe Illustrator 21.1.0, SVG Export Plug-In . SVG Version: 6.00 Build 0)  -->
<svg version="1.0" id="Layer_1" xmlns="http://www.w3.org/2000/svg" xmlns:xlink="http://www.w3.org/1999/xlink" x="0px" y="0px"
	 viewBox="0 0 540 120" enable-background="new 0 0 540 120" xml:space="preserve">
<g>
	<path fill-rule="evenodd" clip-rule="evenodd" fill="#006647" d="M194.3,61.1c-4.7,26.6-21.2,30-35.3,30c-13.8,0-26.6-9.5-23-30.2
		c2.8-16.1,12.4-31,35.7-29.9C187.9,31.9,197.5,43,194.3,61.1L194.3,61.1z M168.9,42.6c-5.1,0-10.9,2.6-14.2,18.4
		c-3.7,17.6,3.7,18.7,7.3,18.7c3.3,0,10.2-1.8,13.6-18.6C178,49.3,176.1,42.6,168.9,42.6L168.9,42.6z"/>
	<path fill-rule="evenodd" clip-rule="evenodd" fill="#006647" d="M229.6,88.8l-0.9,0.9c-3.5,0.6-7.6,1.2-9.8,1.2
		c-8.2,0-20.2-1.2-15.1-21.9c3.4-14,5.9-24.4,5.9-24.4l-7.6,0.2l-0.7-0.9l3.2-11l0.8-0.5h7.2l3.1-14l0.8-0.8
		c8.1-1.8,10.3-2.4,17.8-4.6l0.7,0.6l-4.8,18.9l11.1-0.2l0.4,0.8c-1.5,4.6-2,5.8-3.4,10.9l-0.9,0.8l-10-0.2c0,0-2,8.4-4.9,20.2
		c-3.1,12.7-1.5,12,1.6,13.3c2.6,1,6.1-0.3,8-0.9l0.6,0.5L229.6,88.8L229.6,88.8z"/>
	<path fill-rule="evenodd" clip-rule="evenodd" fill="#006647" d="M268.9,36.4c2.8-2,7.5-5.2,14.5-5.2c10.9,0,18.1,8.1,18.1,21.9
		c0,7.8-2.7,17-8.4,23.9c-10.8,13.1-24.3,13-35.8,13l-6.2,26l-0.8,0.5c-2.5,0-4.9-0.1-7.4-0.1c-3.7,0-6.9,0.2-11,0.3l-0.5-0.8
		c0,0,3.8-11.5,8.6-31.3c5-20.8,9.7-45.1,10.1-50l0.8-0.8l18.6-3l0.6,0.8L268.9,36.4L268.9,36.4z M260.1,78
		c5.1,0.6,10.7-1.1,14.5-4.2c4.3-3.7,8.3-11.3,8.3-19.5c0-9.1-5.9-10.2-8-10.2c-3.2,0-5.5,1.6-7.8,3.1L260.1,78L260.1,78z"/>
	<path fill-rule="evenodd" clip-rule="evenodd" fill="#77BC1F" d="M302.6,89.3c0.7-3.3,5.4-22.6,10.2-44.3
		c4.1-18.6,6.9-30.2,7.9-38.9l0.9-0.8l11.8-2.1L334,4l-3,12.1l-5,20.9c4.6-2.5,8.9-4.9,15.9-4.9c10.7,0,19.8,7.3,19.8,21
		c0,5.5-1.7,16-9,24.3c-9.8,11.2-21.8,11.9-35.8,12.5h-6l-7.6,0.1L302.6,89.3L302.6,89.3z M315.8,81.3c6.1,0.3,15.2,0.1,22.3-4.7
		c8-5.5,11.8-15.2,11.8-22.2c0-9.9-6-13.7-12.9-13.7c-5.5,0-9.4,2.4-12.9,4.6C324.1,45.4,316.5,78.7,315.8,81.3L315.8,81.3z"/>
	<path fill-rule="evenodd" clip-rule="evenodd" fill="#77BC1F" d="M419.8,55.3C416,72,415.2,76.1,413,89.1l-0.8,0.8L402.1,90
		l-0.5-0.8l0.8-4.3c-1.8,1.5-6.6,5.5-15.9,5.5c-11.1,0-20.1-7.8-20.1-21.4c0-8.6,4.1-17.9,8.7-23.3c10.1-11.8,24.1-12.5,34.1-12.5
		l15,0.1l0.5,0.9L419.8,55.3L419.8,55.3z M411.7,41.5c-1.6,0-3.3-0.1-4.9-0.1c-3.6,0-10.6,0.2-17,4.6c-11.4,7.8-11.6,21.8-11.6,22.4
		c0,5.2,2.8,13.6,12.7,13.6c2.9,0,7.8-0.7,13-5.3L411.7,41.5L411.7,41.5z"/>
	<path fill-rule="evenodd" clip-rule="evenodd" fill="#77BC1F" d="M473.5,89.2l-0.9,0.7l-11.1,0.3l-0.4-0.8
		c1.6-7.3,8.3-31.8,8.4-39.4c0.1-6.5-4-8.7-9.1-8.7c-6.7,0-11.2,3.4-14.4,5.8c-4,18.2-5.3,24-8.8,42.1l-0.8,0.7l-11.1,0.3l-0.5-0.8
		c0,0,3.3-13.3,6.3-27.1c2.3-10.8,4.2-19.7,5.1-27.2l0.8-0.8c5.1-0.7,6.3-0.9,11.5-2l0.5,0.8l-1.5,5.5c4.2-2.8,9.7-6.6,18.7-6.6
		c3.6,0,15.3,1,15.3,14.1C481.5,54,474.6,81.5,473.5,89.2L473.5,89.2z"/>
	<path fill-rule="evenodd" clip-rule="evenodd" fill="#77BC1F" d="M515,56.8l16.8,32l-0.6,0.9L519.2,90l-0.9-0.7
		c-2.8-7.6-15.1-31.6-15.1-31.6c-3.2,13.8-3.8,17-6.5,31.4l-0.8,0.7l-11,0.2l-0.4-0.7c0,0,5.8-24.1,10.8-46.4
		c2.3-10.4,6-26.9,7.4-36.9l0.8-0.7l11.8-2l0.7,0.8c-2.2,7.5-12.5,52-12.5,52c7.8-6.8,20.7-20.4,22.5-22.3l1.2-0.7h12.5l0.3,1
		c-3.1,2.4-8.8,7.6-10.9,9.5L515,56.8L515,56.8z"/>
	<path fill-rule="evenodd" clip-rule="evenodd" fill="#006647" d="M0,56.9C0,27.3,24,3.3,53.6,3.2v19.4c-18.9,0-34.2,15.4-34.2,34.3
		c0,18.9,15.3,34.3,34.3,34.3c18.8,0,34.3-15.2,34.3-34.4l19.4,0c0,29.7-24,53.7-53.6,53.7C24,110.5,0,86.5,0,56.9L0,56.9z"/>
	<path fill-rule="evenodd" clip-rule="evenodd" fill="#77BC1F" d="M30,56.9c0-13.1,10.6-23.8,23.8-23.8c13.1,0,23.8,10.7,23.8,23.8
		c0,13.1-10.7,23.8-23.8,23.8C40.6,80.7,30,70,30,56.9L30,56.9z"/>
	<path fill-rule="evenodd" clip-rule="evenodd" fill="#006647" d="M70.3,26.7c0-7.5,6.1-13.6,13.6-13.6c7.5,0,13.6,6.1,13.6,13.6
		c0,7.5-6.1,13.6-13.6,13.6C76.4,40.4,70.3,34.3,70.3,26.7L70.3,26.7z"/>
</g>
</svg>
